<?xml version="1.0" encoding="UTF-8"?><svg id="Layer_1" xmlns="http://www.w3.org/2000/svg" viewBox="0 0 600 600"><defs><style>.cls-1{fill:#de7f43;}</style></defs><path class="cls-1" d="m271.84,335.83v-10.91c0-9.44,2.01-17.64,6.05-24.63,4.03-6.98,11.4-14.4,22.12-22.27,10.32-7.37,17.13-13.37,20.42-17.99,3.29-4.62,4.94-9.78,4.94-15.48,0-6.39-2.36-11.26-7.08-14.6-4.72-3.34-11.31-5.01-19.76-5.01-14.75,0-31.56,4.82-50.43,14.45l-16.07-32.29c21.92-12.29,45.17-18.43,69.75-18.43,20.25,0,36.35,4.87,48.29,14.6,11.94,9.73,17.92,22.71,17.92,38.93,0,10.81-2.46,20.15-7.37,28.02-4.92,7.87-14.25,16.71-28.02,26.54-9.44,6.98-15.41,12.29-17.92,15.93-2.51,3.64-3.76,8.41-3.76,14.3v8.85h-39.08Zm-4.72,50.43c0-8.26,2.21-14.5,6.64-18.73,4.42-4.23,10.86-6.34,19.32-6.34s14.47,2.16,18.95,6.49c4.47,4.33,6.71,10.52,6.71,18.58s-2.26,13.89-6.78,18.36c-4.52,4.47-10.81,6.71-18.87,6.71s-14.65-2.19-19.17-6.56c-4.52-4.37-6.78-10.54-6.78-18.51Z"/><path class="cls-1" d="m300,505.19c-113.14,0-205.19-92.05-205.19-205.19s92.05-205.19,205.19-205.19,205.19,92.05,205.19,205.19-92.05,205.19-205.19,205.19Zm0-385.55c-99.45,0-180.36,80.91-180.36,180.36s80.91,180.36,180.36,180.36,180.36-80.91,180.36-180.36-80.91-180.36-180.36-180.36Z"/></svg>