<?xml version="1.0" encoding="UTF-8"?><svg id="Layer_1" xmlns="http://www.w3.org/2000/svg" viewBox="0 0 600 600"><defs><style></style></defs><path class="cls-1" d="m306.11,116.02c-1.49-1.84-3.73-2.9-6.11-2.91-2.36,0-4.6,1.07-6.1,2.9-.45.55-45.61,54.59-145.02,64.93-4.01.42-7.05,3.79-7.05,7.82v150.69c0,48.02,28,92.42,71.34,113.11l83.44,39.84c1.07.51,2.23.77,3.39.77s2.32-.26,3.39-.77l83.44-39.84c43.34-20.69,71.34-65.09,71.34-113.11v-150.69c0-4.03-3.04-7.4-7.05-7.82-99.19-10.31-144.38-64.15-145.01-64.92Zm136.34,223.43c0,42-24.49,80.83-62.39,98.92l-80.05,38.23-80.06-38.23c-37.9-18.1-62.39-56.92-62.39-98.92v-143.68c81.67-10.29,126.94-47.82,142.45-63.24,15.5,15.43,60.77,52.95,142.44,63.24v143.68Z"/><path class="cls-1" d="m483.63,241.84c4.34,0,7.86-3.52,7.86-7.86v-76.86c0-4.03-3.04-7.4-7.05-7.82-122.26-12.7-177.79-79.28-178.33-79.95-1.49-1.84-3.73-2.91-6.12-2.91-2.36,0-4.61,1.07-6.1,2.9-.55.68-56.08,67.26-178.34,79.96-4.01.42-7.05,3.79-7.05,7.82v190.38c0,58,33.82,111.63,86.16,136.62l101.94,48.68c1.07.51,2.23.77,3.39.77s2.32-.26,3.39-.77l101.94-48.68c52.34-24.99,86.16-78.62,86.16-136.62v-26.51c0-4.34-3.52-7.86-7.86-7.86s-7.86,3.52-7.86,7.86v26.51c0,51.98-30.31,100.04-77.21,122.43l-98.55,47.06-98.56-47.06c-46.91-22.4-77.21-70.46-77.21-122.43v-183.36c102.59-12.52,158.21-60.32,175.77-78.2,17.56,17.88,73.18,65.68,175.77,78.2v69.84c0,4.34,3.52,7.86,7.86,7.86Z"/><path class="cls-1" d="m253.08,215.26v23.59h-35.91c-14.74,0-26.74,11.99-26.74,26.73v100.27c0,14.74,11.99,26.74,26.74,26.74h165.65c14.74,0,26.74-11.99,26.74-26.74v-100.27c0-14.74-11.99-26.73-26.74-26.73h-35.91v-23.59c0-7.8-6.35-14.15-14.15-14.15h-65.53c-7.8,0-14.15,6.35-14.15,14.15Zm78.11,161.6h-62.38v-122.29h62.38v122.29Zm-125.03-11.01v-100.27c0-6.07,4.94-11.01,11.01-11.01h9.83v122.29h-9.83c-6.07,0-11.01-4.94-11.01-11.01Zm36.56,11.01v-122.29h10.35v122.29h-10.35Zm151.1-111.28v100.27c0,6.07-4.94,11.01-11.01,11.01h-9.83v-122.29h9.83c6.07,0,11.01,4.94,11.01,11.01Zm-36.56,111.28h-10.35v-122.29h10.35v122.29Zm-88.46-160.03h62.38v22.02h-62.38v-22.02Z"/></svg>