<?xml version="1.0" encoding="UTF-8"?><svg id="Layer_1" xmlns="http://www.w3.org/2000/svg" viewBox="0 0 600 600"><defs><style></style></defs><path class="cls-1" d="m300,91.18c-113.54,0-205.91,92.37-205.91,205.91,0,3.86,3.13,6.98,6.98,6.98s6.98-3.13,6.98-6.98c0-19.26,27.17-35.53,59.33-35.53s57.27,15.08,59.2,33.38c.06,1.35.12,2.24.14,2.61,0,.04,0,.07.01.11.01.13.03.27.05.4.01.1.03.19.04.29.02.13.05.25.08.38.02.1.05.19.07.29.03.12.07.23.11.35.03.1.07.2.11.3.04.1.09.21.13.31.05.1.1.21.15.31.05.09.1.19.15.28.06.1.12.2.18.3.05.08.11.17.17.25.07.1.14.19.22.29.06.08.12.15.19.23.08.09.16.18.24.27.07.07.14.14.21.21.09.08.17.16.26.24.08.07.15.13.23.2.09.07.19.14.28.21.08.06.17.12.25.18.1.06.2.12.3.18.09.05.18.11.27.15.11.06.22.11.32.16.09.04.18.09.27.12.12.05.24.09.36.13.09.03.17.06.26.09.14.04.28.07.42.11.08.02.15.04.23.06.18.04.35.06.53.08.05,0,.1.02.14.02.23.02.46.04.7.04,0,0,0,0,0,0,0,0,0,0,0,0,0,0,.01,0,.02,0,.15,0,.29,0,.44-.02.04,0,.07,0,.1-.01.15-.01.29-.03.43-.05.09-.01.18-.02.27-.04.14-.03.28-.06.42-.09.09-.02.17-.04.26-.07.13-.04.26-.08.39-.13.09-.03.18-.06.26-.1.12-.05.24-.1.36-.16.09-.04.18-.08.26-.13.11-.06.22-.12.33-.19.08-.05.17-.1.25-.15.11-.07.21-.14.31-.22.08-.06.16-.12.24-.18.1-.08.19-.16.29-.25.07-.06.14-.13.21-.19.09-.09.18-.19.27-.28.06-.07.13-.13.19-.2.09-.1.17-.21.25-.31.05-.07.11-.14.16-.21.08-.11.15-.23.22-.34.05-.07.09-.15.14-.23.07-.12.13-.24.19-.36.04-.08.08-.16.12-.24.05-.12.1-.24.15-.37.03-.09.07-.18.1-.27.04-.12.07-.25.11-.37.03-.1.05-.2.08-.3.03-.12.05-.24.07-.37.02-.11.04-.21.05-.32.01-.12.02-.25.03-.37,0-.11.01-.22.02-.33,0-.05,0-.09,0-.14,0-14.92,16.31-28.04,38.61-33.2v195.56c0,4.9-3.99,8.89-8.89,8.89s-8.89-3.99-8.89-8.89v-3.89c0-9.7-7.89-17.59-17.58-17.59s-17.59,7.89-17.59,17.59v6.06c0,26.02,21.17,47.19,47.19,47.19s47.19-21.17,47.19-47.19v-197.73c22.3,5.16,38.61,18.28,38.61,33.2,0,.05,0,.09,0,.14,0,.11,0,.22.02.33,0,.12.02.25.03.37.01.11.03.22.05.32.02.12.04.25.07.37.02.1.05.2.08.3.03.12.07.25.11.37.03.09.07.18.1.27.05.12.09.25.15.37.04.08.08.17.12.25.06.12.12.24.19.36.04.08.09.15.14.23.07.11.14.23.22.33.05.08.11.15.17.22.08.1.16.21.24.3.06.07.13.14.19.21.09.09.17.18.26.27.07.07.15.14.22.2.09.08.18.16.28.24.08.07.17.13.25.19.1.07.19.14.29.2.09.06.18.11.27.16.1.06.21.12.31.18.09.05.19.09.28.14.11.05.22.1.34.15.09.04.19.07.28.1.12.04.25.09.37.12.09.03.18.05.28.07.13.03.27.06.41.09.09.02.18.03.28.04.14.02.28.04.43.05.04,0,.07,0,.1.01.15.01.29.01.44.02,0,0,.01,0,.02,0,0,0,0,0,0,0,0,0,0,0,0,0,.23,0,.47-.01.7-.04.05,0,.1-.02.14-.02.18-.02.36-.05.53-.08.08-.02.15-.04.23-.06.14-.03.28-.07.42-.11.09-.03.18-.06.26-.09.12-.04.24-.08.36-.13.09-.04.18-.08.27-.12.11-.05.22-.1.32-.16.09-.05.18-.1.27-.15.1-.06.2-.12.3-.18.09-.06.17-.12.25-.18.09-.07.19-.14.28-.21.08-.06.15-.13.23-.2.09-.08.18-.16.26-.24.07-.07.14-.14.21-.21.08-.09.16-.17.24-.27.06-.08.13-.15.19-.23.07-.09.15-.19.22-.29.06-.08.11-.17.17-.25.06-.1.12-.2.18-.3.05-.09.1-.18.15-.28.05-.1.1-.2.15-.3.05-.1.09-.21.13-.31.04-.1.07-.2.11-.3.04-.12.08-.23.11-.35.03-.1.05-.19.07-.29.03-.13.06-.25.08-.38.02-.09.03-.19.04-.29.02-.13.03-.26.05-.4,0-.04.01-.07.01-.11.02-.37.08-1.26.14-2.61,1.93-18.3,28.25-33.38,59.2-33.38s59.33,16.27,59.33,35.53c0,3.86,3.13,6.98,6.98,6.98s6.98-3.13,6.98-6.98c0-113.54-92.37-205.91-205.91-205.91Zm-132.62,156.41c-23.09,0-43.37,6.86-56.71,17.8,14.12-84.63,83.81-150.69,170.17-159.29-43.67,45.96-52.81,120.14-54.29,161.43-13.23-12.17-34.6-19.95-59.17-19.95Zm139.37,214.03c0,18.32-14.91,33.23-33.23,33.23s-33.23-14.9-33.23-33.23v-6.06c0-2,1.63-3.62,3.62-3.62s3.62,1.63,3.62,3.62v3.89c0,12.6,10.25,22.85,22.85,22.85s22.85-10.25,22.85-22.85v-197.65c.13,0,.26-.02.4-.03.64-.04,1.29-.07,1.93-.1.43-.02.85-.05,1.28-.06.72-.02,1.45-.03,2.17-.04.33,0,.65-.02.97-.02s.63.01.95.01c.73,0,1.47.01,2.2.04.42.01.84.04,1.26.06.65.03,1.3.06,1.96.11.13,0,.26.02.39.03v199.82Zm-6.75-214.03c-24.68,0-46.13,7.84-59.35,20.11,1.7-42.18,11.63-119.94,59.35-160.54,47.66,40.56,57.61,118.33,59.33,160.53-13.22-12.26-34.66-20.1-59.33-20.1Zm132.62,0c-24.56,0-45.93,7.77-59.16,19.95-1.48-41.29-10.61-115.47-54.29-161.43,86.35,8.6,156.04,74.66,170.16,159.29-13.34-10.94-33.62-17.8-56.71-17.8Z"/><path class="cls-1" d="m273.53,509.82c-26.57,0-48.19-21.62-48.19-48.19v-6.06c0-10.25,8.34-18.59,18.59-18.59s18.58,8.34,18.58,18.59v3.89c0,4.35,3.54,7.89,7.88,7.89s7.89-3.54,7.89-7.89v-194.3c-21.95,5.41-36.61,18.15-36.61,31.93v.15c-.01.15-.02.27-.03.39-.01.15-.02.29-.04.43-.02.13-.04.25-.06.38-.02.14-.05.28-.08.42-.02.1-.05.19-.07.29-.05.19-.09.33-.14.47-.04.11-.08.21-.11.31-.05.14-.11.28-.17.42-.04.08-.07.16-.11.23-.09.19-.16.32-.24.46-.05.09-.11.18-.16.27-.08.12-.16.25-.25.38-.05.07-.1.13-.15.2-.12.16-.22.29-.32.4l-.15.17c-.16.17-.26.28-.37.38-.06.06-.12.11-.18.17-.17.15-.28.25-.39.34l-.3.23c-.11.08-.21.15-.32.22-.07.05-.15.09-.23.14-.18.11-.31.18-.44.25-.08.04-.16.08-.24.12-.19.09-.33.15-.47.21-.08.03-.17.06-.26.1-.19.07-.34.12-.49.16l-.24.06c-.22.05-.38.09-.54.12-.08.01-.17.03-.26.04-.21.03-.37.05-.54.06h-.1c-.52.05-.94.03-1.35,0l-.14-.02c-.23-.03-.43-.06-.63-.1-.06-.01-.13-.03-.19-.04l.08-1.01-.23.97c-.14-.03-.27-.07-.41-.11-.08-.03-.16-.05-.24-.08l.23-.98-.33.95c-.13-.04-.26-.09-.38-.14-.09-.04-.16-.07-.24-.11l.31-.96-.42.91c-.11-.05-.22-.1-.33-.16-.09-.05-.16-.09-.24-.14l.38-.94-.51.86c-.1-.06-.19-.11-.28-.17-.09-.06-.17-.12-.25-.17-.15-.11-.26-.19-.36-.27-.08-.07-.16-.13-.24-.2-.13-.11-.23-.21-.33-.3-.08-.08-.16-.16-.24-.24-.09-.1-.19-.2-.28-.31-.07-.08-.14-.17-.21-.27-.08-.1-.17-.21-.25-.33-.07-.1-.13-.19-.19-.29-.07-.12-.14-.23-.21-.35-.06-.1-.12-.21-.17-.32-.06-.11-.11-.23-.17-.35-.05-.12-.1-.24-.15-.36-.04-.11-.08-.22-.12-.34-.05-.13-.09-.27-.13-.4-.03-.11-.06-.22-.09-.33-.03-.15-.07-.29-.09-.43-.02-.12-.04-.22-.05-.33-.02-.16-.04-.3-.05-.46v-.11c-.04-.38-.09-1.28-.16-2.64-1.88-17.85-28-32.42-58.2-32.42s-58.33,15.81-58.33,34.53c0,4.4-3.58,7.98-7.98,7.98s-7.98-3.58-7.98-7.98c0-114.09,92.82-206.91,206.91-206.91s206.91,92.82,206.91,206.91c0,4.4-3.58,7.98-7.98,7.98s-7.98-3.58-7.98-7.98c0-18.72-26.71-34.53-58.33-34.53s-56.32,14.57-58.21,32.48c-.06,1.31-.11,2.2-.14,2.57l-.02.14c-.01.14-.03.29-.05.43-.02.12-.03.22-.05.33-.03.15-.06.3-.09.44-.02.1-.05.21-.08.32-.04.15-.08.28-.13.41-.04.11-.08.22-.12.33-.05.13-.1.25-.16.37-.05.12-.11.23-.17.35-.05.1-.11.21-.17.32-.06.11-.13.23-.21.34-.06.1-.12.19-.19.29-.08.11-.16.22-.25.33-.07.09-.14.18-.21.26-.09.1-.18.2-.27.3-.08.08-.15.16-.23.24-.1.1-.21.19-.31.28-.08.07-.17.15-.26.22-.11.08-.21.16-.32.24-.12.09-.2.15-.29.2-.11.07-.22.13-.33.2l-.6-.81.51.86c-.08.04-.15.09-.23.13-.12.06-.23.11-.34.17l-.53-.85.42.91c-.08.04-.16.07-.24.11-.13.05-.26.1-.39.14l-.44-.9.35.94c-.08.03-.16.06-.24.08-.14.04-.28.08-.42.11l-.38-.94.25.97c-.06.02-.13.03-.19.04-.2.04-.4.07-.61.09l-.17.02c-.45.05-.93.05-1.33.02h-.13c-.15-.03-.31-.05-.47-.07l-.32-.05c-.16-.03-.31-.06-.47-.1-.1-.02-.21-.05-.32-.08-.13-.04-.27-.08-.41-.13-.14-.05-.24-.09-.34-.12-.13-.05-.26-.11-.39-.17-.13-.06-.23-.1-.32-.15-.12-.06-.24-.13-.36-.2-.1-.06-.21-.12-.31-.19-.1-.07-.2-.14-.3-.21-.15-.11-.23-.17-.32-.24-.11-.09-.21-.18-.32-.27-.1-.09-.18-.16-.25-.23-.09-.09-.18-.18-.27-.28l-.08-.08c-.06-.06-.11-.12-.17-.19-.1-.11-.19-.23-.28-.35l-.18-.25c-.09-.13-.17-.26-.25-.39-.08-.14-.13-.2-.16-.27-.07-.12-.14-.26-.21-.4l-.13-.28c-.06-.15-.12-.28-.17-.42l-.11-.31c-.05-.15-.09-.29-.13-.43-.03-.11-.06-.22-.08-.33-.03-.15-.06-.29-.08-.43-.02-.12-.04-.24-.06-.36-.02-.15-.03-.29-.04-.43,0-.12-.02-.25-.02-.38,0-.06,0-.11,0-.16,0-13.79-14.66-26.52-36.61-31.93v196.47c0,26.57-21.62,48.19-48.19,48.19Zm-29.6-70.84c-9.15,0-16.59,7.44-16.59,16.59v6.06c0,25.47,20.72,46.19,46.19,46.19s46.19-20.72,46.19-46.19v-198.99l1.23.28c23.56,5.45,39.38,19.18,39.38,34.17v.12c0,.1.02.19.02.28,0,.11.01.22.03.32.01.09.03.18.04.27.02.11.04.22.06.32.02.07.04.16.06.25.03.11.06.21.09.32l.08.21c.05.13.09.24.14.34l.07.15c.08.16.13.26.19.36l.08.13c.1.17.17.27.23.36l.11.15c.1.13.17.22.24.3l.11.12-.66.76.73-.68c.07.07.13.14.2.21.06.06.11.11.17.16.1.09.18.16.26.22l.19.15c.12.09.2.14.28.19.07.05.15.09.23.14.09.05.18.11.27.15.06.03.13.06.2.09.14.06.23.11.33.15l.22.08c.13.04.23.08.33.11.08.02.16.04.24.06.12.03.23.06.35.08l.16.02c.2.03.32.04.44.05h.12c.29.03.66.03.97,0l.25.97-.12-.99c.16-.02.31-.04.46-.07l.2-.05c.16-.04.26-.06.36-.09l.23-.08c.13-.04.22-.07.31-.11l.27-.13c.08-.04.16-.08.24-.12l.24-.14c.08-.05.16-.1.24-.15l.17-.12c.13-.09.21-.15.29-.21.06-.05.13-.11.19-.17.08-.07.16-.14.23-.21l.18-.18c.07-.07.14-.15.21-.23.06-.07.11-.13.16-.2.06-.08.12-.16.18-.24.05-.07.1-.14.15-.22.05-.08.11-.17.16-.26.05-.08.09-.16.13-.23.05-.09.09-.18.13-.27.04-.09.08-.18.12-.27.03-.08.06-.17.09-.25.04-.1.07-.2.1-.3.02-.07.04-.15.06-.23.03-.12.05-.23.07-.34l.04-.25c.01-.11.03-.22.04-.34v-.11c.04-.35.09-1.23.15-2.57,2-18.96,29-34.33,60.2-34.33s60.33,16.73,60.33,36.53c0,3.3,2.68,5.98,5.98,5.98s5.98-2.68,5.98-5.98c0-112.99-91.92-204.91-204.91-204.91s-204.91,91.92-204.91,204.91c0,3.3,2.68,5.98,5.98,5.98s5.98-2.68,5.98-5.98c0-19.8,27.63-36.53,60.33-36.53s58.2,15.38,60.2,34.27c.07,1.4.12,2.28.15,2.65v.09c.02.12.04.23.05.34l.04.25c.02.1.04.21.07.32.02.08.04.16.06.25.03.1.06.2.09.29.03.08.06.17.09.26.04.09.07.18.11.27.04.09.08.18.13.26.04.08.08.16.13.23.05.09.11.18.16.27l.15.22c.06.08.12.16.18.24.05.07.1.13.15.19.07.08.14.16.21.23.06.07.12.13.18.19.07.07.15.14.22.2l.2.17c.08.06.16.12.24.18l.22.15c.06.04.13.08.2.12l.29.17c.07.04.15.07.23.11l.28.13c.08.03.17.06.26.1l.27.09c.09.03.19.05.29.07l.19.05c.23.05.39.07.54.09l.12.02c.33.03.69.04.99.02h.09c.13-.02.25-.04.37-.05l.22-.03c.13-.02.25-.05.37-.08l.22-.06c.11-.03.22-.07.34-.11l.22-.08c.11-.04.21-.09.31-.14l.22-.11c.1-.05.19-.11.29-.16l.21-.13c.08-.05.16-.11.24-.17l.68.74-.59-.81.15-.11c.08-.06.16-.14.24-.21l.18-.16c.08-.08.16-.16.24-.25l.16-.17c.07-.09.14-.18.21-.27l.14-.18c.07-.09.13-.19.19-.29l.12-.2c.06-.1.11-.2.16-.3l.1-.21c.04-.1.09-.21.13-.31.03-.08.06-.16.09-.23.03-.1.06-.21.09-.32l.06-.25c.02-.1.04-.2.06-.3.02-.11.03-.2.04-.29.01-.1.02-.21.03-.32,0-.09.01-.19.01-.28v-.11c0-15,15.83-28.73,39.39-34.18l1.23-.28v196.82c0,5.45-4.44,9.89-9.89,9.89s-9.88-4.43-9.88-9.89v-3.89c0-9.15-7.44-16.59-16.58-16.59Zm29.6,56.87c-18.87,0-34.23-15.35-34.23-34.23v-6.06c0-2.55,2.07-4.62,4.62-4.62s4.62,2.07,4.62,4.62v3.89c0,12.05,9.8,21.85,21.85,21.85s21.85-9.8,21.85-21.85v-198.58l1.33-.1c.61-.04,1.21-.07,1.82-.1l.52-.03c.3-.02.6-.03.9-.04.73-.02,1.46-.03,2.2-.04h.38c.39-.02.78-.02,1.17,0h.4c.74.01,1.48.02,2.22.05.28,0,.56.02.84.04l.43.02c.66.03,1.32.06,1.98.11l1.32.09v200.75c0,18.87-15.35,34.23-34.23,34.23Zm-29.6-42.91c-1.45,0-2.62,1.18-2.62,2.62v6.06c0,17.77,14.46,32.23,32.23,32.23s32.23-14.46,32.23-32.23v-198.88c-.46-.03-.93-.05-1.39-.07l-.45-.02c-.27-.01-.53-.03-.8-.04-.73-.02-1.45-.03-2.18-.04h-.42c-.36-.01-.72-.01-1.08,0h-.4c-.72.01-1.44.02-2.15.05-.29,0-.58.02-.86.04l-.53.03c-.42.02-.83.04-1.25.06v196.71c0,13.15-10.7,23.85-23.85,23.85s-23.85-10.7-23.85-23.85v-3.89c0-1.45-1.17-2.62-2.62-2.62Zm-4.37-182.86l.1-2.42c1.72-42.72,11.77-120.49,59.7-161.26l.65-.55.65.55c47.86,40.74,57.93,118.51,59.68,161.25l.1,2.42-1.78-1.65c-13.58-12.6-34.96-19.83-58.65-19.83s-45.08,7.23-58.67,19.84l-1.78,1.65Zm60.44-161.61c-45.92,39.69-56.27,114.26-58.24,156.91,13.99-11.97,35.05-18.79,58.24-18.79s44.24,6.82,58.23,18.78c-2-42.66-12.36-117.24-58.23-156.89Zm72.53,161.27l-.08-2.17c-1.45-40.34-10.38-114.87-54.01-160.78l-1.85-1.95,2.68.27c86.42,8.61,156.76,74.45,171.05,160.12l.44,2.63-2.06-1.69c-13.62-11.17-34.06-17.58-56.08-17.58-23.58,0-44.89,7.17-58.49,19.68l-1.6,1.47Zm-50.81-162.36c41.76,45.72,50.98,117.53,52.65,158.01,13.99-11.97,35.07-18.79,58.25-18.79,21.39,0,41.36,5.95,55.28,16.41-14.95-82.66-82.73-146.13-166.17-155.62Zm-94.26,162.36l-1.6-1.47c-13.59-12.51-34.91-19.68-58.49-19.68-22.02,0-42.46,6.41-56.08,17.57l-2.06,1.69.44-2.63c14.3-85.67,84.63-151.51,171.05-160.12l2.68-.27-1.85,1.95c-43.63,45.91-52.57,120.44-54.02,160.78l-.08,2.17Zm-60.09-23.15c23.18,0,44.25,6.83,58.25,18.79,1.67-40.48,10.89-112.29,52.65-158-83.45,9.49-151.23,72.96-166.18,155.62,13.92-10.45,33.89-16.41,55.28-16.41Z"/></svg>