<?xml version="1.0" encoding="UTF-8"?><svg id="Layer_1" xmlns="http://www.w3.org/2000/svg" viewBox="0 0 600 600"><defs><style>.cls-1{fill:#de7f43;}</style></defs><path class="cls-1" d="m498.8,216c-10.87-25.7-26.43-48.77-46.23-68.58-19.81-19.8-42.88-35.36-68.58-46.23-26.62-11.26-54.88-16.97-84-16.97s-57.38,5.71-84,16.97c-25.7,10.87-48.77,26.43-68.58,46.23-19.8,19.81-35.36,42.88-46.23,68.58-11.26,26.62-16.97,54.88-16.97,84s5.71,57.38,16.97,84c10.87,25.7,26.43,48.77,46.23,68.58,19.81,19.8,42.88,35.36,68.58,46.23,26.62,11.26,54.88,16.97,84,16.97s57.38-5.71,84-16.97c25.7-10.87,48.77-26.43,68.58-46.23,19.8-19.81,35.36-42.88,46.23-68.58,11.26-26.62,16.97-54.88,16.97-84s-5.71-57.38-16.97-84Zm-17.24,160.7c-9.93,23.46-24.13,44.54-42.23,62.63-18.09,18.09-39.17,32.3-62.63,42.23-24.3,10.28-50.1,15.49-76.7,15.49s-52.4-5.21-76.7-15.49c-23.46-9.93-44.54-24.13-62.63-42.23-18.09-18.09-32.3-39.17-42.23-62.63-10.28-24.3-15.49-50.1-15.49-76.7s5.21-52.4,15.49-76.7c9.93-23.46,24.13-44.54,42.23-62.63,18.09-18.09,39.17-32.3,62.63-42.23,24.3-10.28,50.1-15.49,76.7-15.49s52.4,5.21,76.7,15.49c23.46,9.93,44.54,24.13,62.63,42.23,18.09,18.09,32.3,39.17,42.23,62.63,10.28,24.3,15.49,50.1,15.49,76.7s-5.21,52.4-15.49,76.7Z"/><path class="cls-1" d="m432.61,190.08c-.54-.05-1.09-.07-1.63-.07-4.94,0-9.71,1.96-13.24,5.48l-65.09,65.09h-13.24v-13.24l65.09-65.09c3.91-3.91,5.89-9.36,5.41-14.87-.48-5.51-3.38-10.53-7.91-13.7-29.92-20.94-65.19-32.01-102-32.01-47.63,0-92.42,18.55-126.1,52.23-33.68,33.68-52.23,78.46-52.23,126.1,0,36.81,11.07,72.08,32.01,102,3.17,4.54,8.19,7.43,13.7,7.91.54.05,1.09.07,1.63.07,4.94,0,9.71-1.96,13.24-5.49l65.08-65.08h13.24v13.24l-65.08,65.08c-3.92,3.91-5.9,9.36-5.42,14.87.48,5.51,3.38,10.53,7.91,13.7,29.92,20.94,65.19,32.01,102,32.01,47.63,0,92.42-18.55,126.1-52.23,33.68-33.68,52.23-78.46,52.23-126.1,0-36.81-11.07-72.08-32.01-102-3.17-4.54-8.19-7.43-13.7-7.91Zm-263.59,201.18c-18.61-26.58-28.63-58.15-28.63-91.27,0-42.63,16.6-82.71,46.75-112.86,30.14-30.15,70.23-46.75,112.86-46.75,33.11,0,64.69,10.02,91.27,28.63l-51.85,51.85v-37.31h-78.84v77.03h-77.03v78.84h37.31l-51.85,51.85Zm243.84,21.59c-30.14,30.15-70.23,46.75-112.86,46.75-33.11,0-64.69-10.02-91.27-28.63l51.85-51.85v37.31h78.84v-77.03h77.03v-78.84h-37.31l51.85-51.85c18.6,26.58,28.63,58.15,28.63,91.27,0,42.63-16.6,82.71-46.75,112.86Z"/></svg>