<?xml version="1.0" encoding="UTF-8"?><svg id="Layer_1" xmlns="http://www.w3.org/2000/svg" viewBox="0 0 600 600"><defs><style></style></defs><path class="cls-1" d="m438.77,517.62H147.8c-11.45,0-20.77-9.32-20.77-20.77V103.14c0-11.45,9.32-20.77,20.77-20.77h290.97c11.45,0,20.77,9.32,20.77,20.77v138.14c0,5.04-4.08,9.11-9.11,9.11s-9.11-4.08-9.11-9.11V103.14c0-1.4-1.14-2.54-2.54-2.54H147.8c-1.4,0-2.54,1.14-2.54,2.54v393.71c0,1.4,1.14,2.54,2.54,2.54h290.97c1.4,0,2.54-1.14,2.54-2.54v-112.78c0-5.03,4.08-9.11,9.11-9.11s9.11,4.08,9.11,9.11v112.78c0,11.45-9.32,20.77-20.77,20.77Z"/><path class="cls-1" d="m356.33,320.04h-131.46c-5.03,0-9.11-4.08-9.11-9.11s4.08-9.11,9.11-9.11h131.46c5.03,0,9.11,4.08,9.11,9.11s-4.08,9.11-9.11,9.11Z"/><path class="cls-1" d="m319.18,354.47h-94.31c-5.03,0-9.11-4.08-9.11-9.11s4.08-9.11,9.11-9.11h94.31c5.03,0,9.11,4.08,9.11,9.11s-4.08,9.11-9.11,9.11Z"/><path class="cls-1" d="m337.85,191.64h-20.51v-20.51c0-7.84-6.38-14.23-14.23-14.23h-19.66c-7.85,0-14.23,6.38-14.23,14.23v20.51h-20.51c-7.84,0-14.23,6.38-14.23,14.23v19.72c0,7.84,6.38,14.23,14.23,14.23h20.51v20.51c0,7.85,6.38,14.23,14.23,14.23h19.66c7.84,0,14.23-6.38,14.23-14.23v-20.51h20.51c7.84,0,14.23-6.38,14.23-14.23v-19.72c0-7.84-6.38-14.23-14.23-14.23Zm-4,29.94h-25.62c-5.03,0-9.11,4.08-9.11,9.11v25.62h-11.66v-25.62c0-5.03-4.08-9.11-9.11-9.11h-25.62v-11.71h25.62c5.03,0,9.11-4.08,9.11-9.11v-25.62h11.66v25.62c0,5.04,4.08,9.11,9.11,9.11h25.62v11.71Z"/><path class="cls-1" d="m273.01,471.31c-3.35,0-6.54-1.25-8.99-3.45-5.16,4.63-13.94,4.34-18.82-.69-1.79-1.83-2.98-4.09-3.5-6.56-5.6.58-11.02-2.42-13.55-7.55-1.8-3.66-1.85-7.82-.24-11.43-4.12-2.38-6.73-6.78-6.73-11.73,0-4.96,2.6-9.36,6.73-11.74-1.61-3.62-1.56-7.77.24-11.44,2.53-5.13,7.92-8.13,13.55-7.55.52-2.47,1.72-4.73,3.5-6.56,4.88-5.02,13.66-5.31,18.82-.69,5.16-4.62,13.94-4.33,18.83.69,1.78,1.83,2.98,4.09,3.5,6.55,5.64-.54,11.03,2.42,13.55,7.56,1.8,3.66,1.85,7.82.24,11.44,4.13,2.39,6.73,6.79,6.73,11.74,0,4.95-2.61,9.35-6.73,11.73,1.61,3.62,1.56,7.77-.24,11.43-2.53,5.14-7.94,8.12-13.55,7.56-.53,2.46-1.72,4.72-3.5,6.56-2.56,2.63-6.14,4.14-9.84,4.14Zm-8.99-24.57c2.08,0,4.09.47,5.91,1.35.59-1.1,1.34-2.12,2.24-3.05,1.99-2.04,4.58-3.4,7.35-3.9-.28-2.01-.1-4.07.54-6.05.64-1.98,1.72-3.75,3.12-5.2-1.4-1.46-2.48-3.23-3.12-5.22-.64-1.98-.81-4.05-.54-6.05-2.77-.5-5.36-1.86-7.35-3.9-.9-.93-1.65-1.95-2.24-3.05-3.63,1.76-8.19,1.75-11.82,0-.59,1.1-1.34,2.13-2.24,3.05-1.99,2.04-4.57,3.4-7.34,3.9.27,2,.1,4.06-.54,6.04-.64,1.98-1.72,3.76-3.12,5.22,1.4,1.45,2.47,3.23,3.12,5.2.64,1.98.81,4.05.54,6.05,2.77.5,5.36,1.86,7.35,3.9.9.92,1.65,1.95,2.24,3.05,1.82-.88,3.83-1.35,5.91-1.35Z"/><path class="cls-1" d="m514.29,278.27l-29.36-29.36c-3.42-3.42-9.47-3.42-12.89,0l-18.07,18.08-114.81,114.81c-.09.09-.16.21-.25.3-.21.23-.41.48-.61.74-.18.25-.35.5-.5.76-.08.13-.18.24-.25.38l-21.43,40.4c-1.87,3.54-1.22,7.89,1.61,10.72l-6.44,6.44c-3.56,3.56-3.56,9.33,0,12.89,1.78,1.78,4.11,2.67,6.44,2.67s4.66-.89,6.44-2.67l6.45-6.45h0c1.76,1.76,4.09,2.67,6.45,2.67,1.68,0,3.37-.46,4.87-1.41l37.9-23.94c.57-.36,1.08-.79,1.54-1.24,0,0,.02-.01.03-.02l114.81-114.81,18.08-18.07c1.71-1.71,2.67-4.03,2.67-6.44s-.96-4.74-2.67-6.44Zm-35.81-10.03l16.47,16.47-5.19,5.19-16.47-16.47,5.19-5.19Zm-140.13,161.7l-2.97-2.97,12.49-23.56,12.58,12.58-22.1,13.96Zm36.61-25.23l-16.47-16.47,101.92-101.92,16.47,16.47-101.92,101.92Z"/></svg>