<?xml version="1.0" encoding="UTF-8"?><svg id="Layer_1" xmlns="http://www.w3.org/2000/svg" viewBox="0 0 600 600"><defs><style>.cls-1,.cls-2{fill:#de7f43;}.cls-2{stroke:#de7f43;stroke-miterlimit:10;}</style></defs><path class="cls-1" d="m509,342.95c-20.7-11.2-44.51-14.62-67.21-10.65-25.22-10.53-52.77-11.61-78.15-3.65-25.57-15.35-58.75-15.47-89.2,10.03-35.18-9.56-72.41-7.04-106.18,7.34v-21.44c0-4.48-3.63-8.11-8.11-8.11h-65.3c-4.48,0-8.11,3.63-8.11,8.11v158.98c0,4.48,3.63,8.11,8.11,8.11h65.3c4.48,0,8.11-3.63,8.11-8.11v-28.14l115.69,30.04c29.72,7.73,61.95.99,86.14-18.16l140.08-110.87c2.13-1.69,3.28-4.35,3.04-7.06s-1.82-5.13-4.22-6.43Zm-94.26-1.87c-8.11,3.93,2.23-1.9-55.94,32.08l-25.16-10.83c11.86-7.73,39.09-28.69,81.1-21.24Zm-71.32-3.79c-8.11,4.39-3.51,1.59-27.66,17.34-26.85-11.56-16.75-7.26-22.85-9.72,14.84-10.38,33.59-13.05,50.51-7.62Zm-191.37,138.17h-49.08v-142.76h49.08v142.76Zm207.97-20.87c-20.16,15.98-47.08,21.65-72,15.18l-119.76-31.1v-74.71c38.39-18.54,82.46-19.7,121.77-2.76l74.18,31.94c3.22,1.39,5.6,4.12,6.54,7.5,2.14,7.71-4.11,14.92-11.23,14.59l-56.74-6.26c-4.44-.42-8.46,2.72-8.95,7.17-.49,4.45,2.72,8.46,7.17,8.95l57.2,6.3c19.32.91,33.16-17.15,28.17-35.1-1.65-5.94-5.19-11.02-9.99-14.65,38.85-22.69,67.96-46.05,113.25-29.66l-129.63,102.59Z"/><path class="cls-1" d="m127.51,463.02c4.48,0,8.11-3.63,8.11-8.11v-12.08c0-4.48-3.63-8.11-8.11-8.11s-8.11,3.63-8.11,8.11v12.08c0,4.48,3.63,8.11,8.11,8.11Z"/><path class="cls-2" d="m306.11,108.33c-44.61,0-80.78,36.17-80.78,80.78s36.17,80.78,80.78,80.78,80.78-36.17,80.78-80.78-36.17-80.78-80.78-80.78Zm27.25,112.92c-4.54,4.17-10.53,6.77-17.96,7.82v16.66h-14.97v-16.77c-5.33-.83-10.45-2.29-15.37-4.39-4.92-2.1-9.25-4.73-13-7.88l7.99-16.1c3.98,3.53,8.69,6.42,14.13,8.67,5.44,2.25,10.26,3.38,14.47,3.38,3.08,0,5.5-.56,7.26-1.69,1.76-1.13,2.65-2.78,2.65-4.95,0-1.8-.66-3.3-1.97-4.5-1.32-1.2-2.97-2.16-4.96-2.87-1.99-.71-4.78-1.56-8.39-2.53-5.4-1.5-9.87-3.02-13.4-4.56-3.53-1.54-6.55-3.86-9.06-6.98-2.52-3.12-3.77-7.26-3.77-12.44,0-6.3,2.08-11.54,6.25-15.7s9.89-6.81,17.17-7.94v-15.99h14.97v15.76c4.5.53,8.9,1.52,13.17,2.98,4.28,1.46,8.11,3.29,11.48,5.46l-7.77,16.44c-4.2-2.48-8.69-4.5-13.45-6.08-4.77-1.58-8.76-2.37-11.99-2.37-2.55,0-4.56.47-6.02,1.41-1.46.94-2.2,2.31-2.2,4.11s.64,3.17,1.91,4.33c1.28,1.17,2.85,2.1,4.73,2.81,1.87.71,4.65,1.63,8.33,2.76,5.48,1.58,10,3.15,13.57,4.73,3.56,1.58,6.62,4,9.18,7.26,2.55,3.27,3.83,7.53,3.83,12.78,0,6.76-2.27,12.22-6.81,16.38Z"/></svg>