<?xml version="1.0" encoding="UTF-8"?><svg id="Layer_1" xmlns="http://www.w3.org/2000/svg" viewBox="0 0 600 600"><defs><style>.cls-1,.cls-2,.cls-3{fill-rule:evenodd;}.cls-1,.cls-2,.cls-3,.cls-4{fill:#de7f43;}.cls-2{stroke-width:2px;}.cls-2,.cls-3{stroke:#de7f43;stroke-miterlimit:10;}.cls-3{stroke-width:5px;}</style></defs><path class="cls-2" d="m328.92,281.73h0s-.1-.33-.1-.33h0s-28.61-88.84-28.61-88.84l-.06-.23c-.21-.89-.73-1.71-1.44-2.34h0c-.67-.6-1.51-1-2.43-1.09l-25.64-2.57v.02s-3.29-.33-3.29-.33c-.79-.08-1.56.09-2.2.46-.6.35-1.1.89-1.4,1.59l-35.58,82.58-.1.18c-.11.22-.21.47-.28.74-.07.26-.11.53-.12.81-.05,1.14.38,2.23,1.11,3.06.72.83,1.73,1.4,2.86,1.52l23.89,2.39h0s3.22.31,3.22.31c.84.08,1.66-.11,2.32-.53.62-.39,1.12-1,1.39-1.79h0s3.03-8.84,3.03-8.84l.81-2.36,2.47.25,19.67,1.97,2.21.22.53,2.15,2.25,9.05.04.16c.18.94.68,1.8,1.39,2.45.68.63,1.55,1.05,2.5,1.15l24.56,2.46v-.02s3.22.33,3.22.33c.2.02.43.02.68,0,.26-.02.49-.06.69-.11h0c.17-.06.11-.04.16-.05.88-.28,1.57-.9,1.97-1.67.41-.8.53-1.77.28-2.76Zm-40.33-32.91l-18.93-1.9-4.24-.42,1.66-3.91,10.47-24.72,3.31-7.8,2.57,8.07,8.46,26.61,1.44,4.54-4.74-.48Z"/><path class="cls-1" d="m416.73,442.17l-24.66-8.4-.13-.04-.15-.05h-.02s0,0,0,0l-.13-.03h0c-.56-.12-1.1-.03-1.52.23-.4.24-.7.64-.83,1.13l-.02.1h0c-.29,1.31-.63,2.59-1.02,3.83-.4,1.25-.83,2.36-1.28,3.34-.43.93-.88,1.77-1.36,2.52-.48.76-1.02,1.48-1.63,2.15l-.11.12-.12.11h0s-.06.06-.06.06c-.55.58-1.16,1.09-1.85,1.54-.68.44-1.41.81-2.18,1.09l-.21.06-.24.07h0c-.92.3-1.9.5-2.94.62h0c-1.02.12-2.14.15-3.37.11-1.18-.04-2.29-.17-3.3-.38h0c-1.09-.23-2.09-.54-2.98-.93l-.16-.07-.2-.1h0c-.82-.4-1.6-.88-2.33-1.45-1.75-1.73-2.8-2.55-3.84-4.87-.4-.89-.76-1.92-1.08-3.08l-.21-.79h0c-.05-.19-.11-.46-.18-.78h0c-.37-1.69-.65-3.59-.84-5.68-.11-1.18-.18-2.44-.23-3.75h-.06v-3.01c0-.45,0-.89.01-1.32v-1.76s.06,0,.06,0c.07-1.55.2-3,.39-4.38.31-2.29.79-4.31,1.44-6.05h0c.07-.18.14-.38.23-.59l1.5-2.81h0s0-.01,0-.01c.61-.9,1.27-1.69,1.97-2.38.77-.76,1.6-1.4,2.46-1.92l.05-.02.32-.19.06-.04.27-.15.16-.07.17-.08h0c1.09-.54,2.29-.93,3.59-1.17,1.23-.23,2.53-.31,3.92-.26,3.05.11,6.32,1.2,8.73,3.11h0c.35.27.71.58,1.05.92h.02s.2.22.2.22c.16.16.32.33.48.5.08.09.19.21.31.36h.01s.28.34.28.34l.05.05.2.25.04.05.17.23.05.07.11.13.07.1v.02c.28.39.56.89.86,1.51.16.32.31.68.47,1.06l1.05,2.94c.17.56.56,1.03,1.04,1.33.46.28,1.02.41,1.56.31,7.16-1.32,18.73-2.72,25.23-4.66h0s.07-.02.07-.02h0c.49-.17.88-.51,1.1-.94.23-.44.29-.97.15-1.51h0l-.04-.12h0c-1.21-3.71-2.66-7.09-4.34-10.12-5.41-9.77-13.05-16.07-23.8-19.24-2.35-.69-4.87-1.25-7.55-1.66-2.73-.42-5.56-.68-8.46-.79-5.55-.21-10.65.16-15.3,1.1-14.24,2.89-24.94,11.55-29.88,25.37-6.7,18.79-3.71,43.09,9.58,58.11,13.37,15.11,45.69,20.59,64.01,8.81,1.78-1.15,3.45-2.45,4.99-3.92.3-.28.59-.56.86-.85.24-.24.51-.53.83-.88h0s.02-.01.02-.01h0s.02-.02.02-.02h0s.02-.03.02-.03h0s.02-.03.02-.03c.25-.27.48-.53.68-.77h.01c.22-.28.46-.56.71-.87l.09-.11.14-.16h0s.06-.07.06-.07h0c.93-1.18,1.8-2.44,2.61-3.76.81-1.33,1.56-2.76,2.26-4.26.62-1.34,1.21-2.83,1.76-4.44.55-1.61,1.04-3.26,1.46-4.94l.05-.17.05-.16h0c.17-.56.08-1.15-.19-1.67-.28-.53-.76-.97-1.37-1.17h0Z"/><path class="cls-3" d="m503.54,287.15l-97.42-11.87,10.98-15.3.6-.84V101.36l-4.44-.54-147.54-17.98-1.4-.17-1.06.94-64.22,57.21-2.11,1.88v103.05l-19.54-2.99-1.1-.17-.97.57-80.82,47.99-2.5,1.49v4.46s.07,142.84.07,142.84v2.46s2.4.58,2.4.58l143.64,34.93,3.94.96,2.33-1.95,42.83-35.79v56.67l2.79.32,161.78,18.68,4.61.53,1.68-2.34,49.3-68.68.6-.84v-157.78l-4.44-.54Zm-92.13-30l-43.61,60.76v-153.67l27.22-32.16,16.4-19.37v144.44Zm-145.03-167.91l142.02,17.31-16.27,19.23-28.78,34-155.94-18,58.98-52.53Zm-88.82,159.9l19.38,2.96v55.49l-92.74-14.88,73.36-43.57Zm60.62,134.14l-.06,88.18-139.78-33.99-.07-139.37,64.16,10.29,75.79,12.16-.04,62.72Zm-34.96-77.42v-158.25l158.28,18.27v158.25l-6.83-.79-45.98-5.31-6.93-.8h-.1s-.15-.03-.15-.03l-18.59-2.15-32.97-3.81-1.9-.22h-.06s-44.78-5.18-44.78-5.18Zm85.66,21.24l-1.68,1.58v104.27l-42.82,35.79.1-149.05,3.89-2.28,45.56,5.26-5.05,4.44Zm162.89,183.37l-158.28-18.27v-62.86l.22-95.36,158.06,18.25v158.25Zm1.84-164.62l-155.93-18,4.74-4.21,59.07,6.82,2.79.32,1.82.21,1.08-1.5.6-.84,34.14-47.56,96.73,11.79-45.04,52.96Zm48.06,97.64l-43.61,60.76v-153.67l43.61-51.53v144.44Z"/><path class="cls-4" d="m213.41,410.4c0-2.31-.23-4.54-.69-6.67-.46-2.15-1.15-4.23-2.06-6.21-.2-.43-.39-.83-.58-1.2l-.15-.29-.49-.86c-.21-.38-.45-.78-.72-1.21h0c-.12-.21-.25-.4-.37-.6l-.3-.44-.07-.1h0c-.57-.82-1.21-1.63-1.89-2.43-.68-.78-1.41-1.55-2.21-2.3l-2.34-2.22,2.28-2.28h0s.06-.05.06-.05c.92-.87,1.72-1.82,2.4-2.83.68-1.01,1.25-2.11,1.72-3.31.46-1.19.82-2.45,1.05-3.79.24-1.35.36-2.77.36-4.26,0-2.62-.35-5.16-1.05-7.63-.71-2.49-1.77-4.91-3.2-7.27-.33-.54-.63-1.02-.9-1.43-.15-.23-.3-.45-.45-.65l-.46-.61v-.02s-.03-.01-.03-.01c-.16-.22-.43-.56-.8-1.02h0c-.31-.39-.61-.75-.91-1.1l-.09-.1-.2-.25-.13-.15h0c-1.12-1.26-2.36-2.46-3.72-3.58-1.36-1.12-2.79-2.14-4.3-3.04h0c-.21-.12-.46-.27-.77-.43-.49-.27-.88-.48-1.05-.57h-.01c-1.77-.93-3.69-1.75-5.75-2.46-2.11-.73-4.3-1.32-6.55-1.78h-.01s-.03,0-.03,0l-49.27-9.92-.2-.04-.31-.08h0s-.19-.05-.19-.05h0c-.22-.04-.46-.06-.72-.06h0c-.66-.01-1.24.18-1.67.53-.41.33-.71.83-.83,1.43-.04.18-.06.42-.06.72v86.21c0,1.22.52,2.45,1.35,3.45.85,1.02,2,1.78,3.23,2.03l42.23,8.5v-.03l3.76.76c.53.11,1.21.22,2.04.33.81.11,1.75.22,2.82.33.81.08,1.94.18,3.36.3l2.1.17,2.15.16c1.84.13,3.48.18,4.91.14,1.4-.04,2.68-.16,3.85-.37h0s.54-.09.54-.09h0s.45-.1.45-.1h0s.01,0,.01,0h.04s.08-.03.08-.03h.03s0,0,0,0h.07v-.02l.21-.05h0c.13-.03.32-.09.58-.17.22-.07.41-.13.58-.2h.01s0,0,0,0h0s.05-.02.05-.02h.01c1-.39,1.96-.84,2.88-1.35.93-.52,1.79-1.09,2.56-1.7h0c.82-.65,1.57-1.36,2.27-2.11.56-.61,1.08-1.26,1.56-1.94l.31-.48v-.02s.01-.01.01-.01c.6-.92,1.12-1.86,1.54-2.82.45-1,.82-2.05,1.12-3.14.3-1.12.53-2.27.69-3.45.15-1.13.22-2.36.22-3.67Zm-59.93-39.93v-20.19l3.76.76,11.76,2.37c2.27.46,4.22,1.05,5.83,1.77,1.8.81,3.25,1.81,4.36,2.99,1.1,1.17,1.92,2.48,2.47,3.92.55,1.43.82,2.96.82,4.6,0,1.76-.29,3.32-.86,4.67-.64,1.51-1.62,2.71-2.93,3.62l-.05.04c-1.3.86-2.97,1.35-5.01,1.44-1.69.08-3.7-.12-6.03-.59l-11.58-2.33-2.53-.51v-2.56Zm31.39,35.03c-.72,1.53-1.8,2.77-3.23,3.71h0c-1.42.94-3.22,1.46-5.41,1.57-1.86.09-4.07-.12-6.63-.64l-13.59-2.74-2.53-.51v-23.85l3.76.76,13.53,2.72c2.59.52,4.79,1.18,6.6,1.98,2,.88,3.6,1.95,4.83,3.21,1.22,1.25,2.13,2.62,2.75,4.1.63,1.51.94,3.11.94,4.79,0,1.83-.34,3.47-1.01,4.9Z"/></svg>