<?xml version="1.0" encoding="UTF-8"?><svg id="Layer_1" xmlns="http://www.w3.org/2000/svg" viewBox="0 0 600 600"><defs><style>.cls-1{fill:#de7f43;stroke:#de7f43;stroke-miterlimit:10;stroke-width:5px;}</style></defs><path class="cls-1" d="m394.76,474.56h-138.79v-13.69h138.79c6.18,0,11.21-5.03,11.21-11.21V110.65c0-6.18-5.03-11.21-11.21-11.21h-246.74c-6.18,0-11.21,5.03-11.21,11.21v231.07h-13.69V110.65c0-13.73,11.17-24.9,24.9-24.9h246.74c13.73,0,24.9,11.17,24.9,24.9v339.02c0,13.73-11.17,24.9-24.9,24.9Z"/><path class="cls-1" d="m376.79,215.87h-210.79c-3.78,0-6.84-3.06-6.84-6.84v-79.9c0-3.78,3.06-6.84,6.84-6.84h210.79c3.78,0,6.84,3.06,6.84,6.84v79.9c0,3.78-3.06,6.84-6.84,6.84Zm-203.94-13.69h197.1v-66.21h-197.1v66.21Z"/><rect class="cls-1" x="181.14" y="272.71" width="61.54" height="13.69"/><rect class="cls-1" x="300.11" y="401.36" width="61.54" height="13.69"/><rect class="cls-1" x="300.11" y="370.85" width="61.54" height="13.69"/><rect class="cls-1" x="300.11" y="272.71" width="61.54" height="13.69"/><rect class="cls-1" x="324.03" y="248.79" width="13.69" height="61.54"/><path class="cls-1" d="m509.66,435.89h0l-59.05-.02c-1.81,0-3.56-.72-4.84-2.01-1.28-1.28-2-3.02-2-4.84l.06-217.55c0-3.78,3.06-6.84,6.84-6.84h0l59.05.02c1.81,0,3.56.72,4.84,2.01,1.28,1.28,2,3.02,2,4.84l-.06,217.55c0,3.78-3.06,6.84-6.84,6.84Zm-52.2-13.7h45.36s.05-203.85.05-203.85h-45.36s-.05,203.85-.05,203.85Z"/><path class="cls-1" d="m491.53,474.56h-22.8c-6.67,0-12.94-2.61-17.66-7.33-4.72-4.72-7.31-10.99-7.31-17.66v-27.39s72.74.02,72.74.02v27.39c0,6.67-2.61,12.94-7.33,17.66-4.72,4.71-10.99,7.31-17.65,7.31Zm-34.07-38.68v13.7c0,3.01,1.17,5.85,3.3,7.98,2.13,2.13,4.96,3.31,7.98,3.31h22.79s0,0,0,0c3.01,0,5.85-1.17,7.98-3.3,2.13-2.13,3.31-4.96,3.31-7.98v-13.7s-45.36-.01-45.36-.01Z"/><path class="cls-1" d="m509.72,217.95h0l-59.05-.02c-2.44,0-4.7-1.31-5.93-3.42-1.22-2.12-1.22-4.73,0-6.84l29.54-51.13c1.22-2.12,3.48-3.42,5.93-3.42h0c2.44,0,4.7,1.31,5.93,3.42l29.51,51.15c1.22,2.12,1.22,4.73,0,6.84-1.22,2.12-3.48,3.42-5.93,3.42Zm-47.19-13.7h35.34s-17.66-30.6-17.66-30.6l-17.68,30.6Z"/><path class="cls-1" d="m180.98,514.25c-13.16,0-25.94-2.58-37.97-7.67-11.62-4.91-22.05-11.94-31-20.9-8.96-8.96-15.99-19.39-20.9-31-5.09-12.03-7.67-24.8-7.67-37.97s2.58-25.94,7.67-37.97c4.91-11.62,11.94-22.05,20.9-31,8.96-8.96,19.39-15.99,31-20.9,12.03-5.09,24.8-7.67,37.97-7.67s25.94,2.58,37.97,7.67c11.62,4.91,22.05,11.94,31,20.9,8.96,8.96,15.99,19.39,20.9,31,5.09,12.03,7.67,24.8,7.67,37.97s-2.58,25.94-7.67,37.97c-4.91,11.62-11.94,22.05-20.9,31-8.96,8.96-19.39,15.99-31,20.9-12.03,5.09-24.8,7.67-37.97,7.67Zm0-181.39c-46.24,0-83.85,37.62-83.85,83.85s37.62,83.85,83.85,83.85,83.85-37.62,83.85-83.85-37.62-83.85-83.85-83.85Z"/><path class="cls-1" d="m211.16,419.91c-4.91-5.09-12.58-9.12-23.36-12.28v-35.78c6.86,1.67,11.43,5.62,13.89,11.95,1.03,2.64,3.51,4.35,6.34,4.35h.06c2.23,0,4.33-1.1,5.6-2.94,1.26-1.82,1.55-4.14.77-6.21-2.46-6.53-9.1-16.93-26.66-19.45v-5.32c0-3.73-3.03-6.76-6.76-6.76s-6.76,3.03-6.76,6.76v5.02c-7.98.83-14.81,3.6-19.97,8.13-5.98,5.26-9.28,12.63-9.28,20.76,0,8.64,2.72,14.96,8.56,19.9,4.58,3.87,11.07,6.93,20.68,9.68v40.69c-8.45-1.83-14.82-7.3-17.6-15.39-.94-2.74-3.52-4.57-6.42-4.57-2.2,0-4.21,1.02-5.5,2.81-1.29,1.78-1.64,4-.96,6.09,2.37,7.25,6.87,13.24,13.03,17.31,4.94,3.27,10.79,5.29,17.45,6.06v8.44c0,3.73,3.03,6.76,6.76,6.76s6.76-3.03,6.76-6.76v-8.48c3.07-.34,5.96-.92,8.63-1.71,4.66-1.39,8.69-3.46,11.97-6.16,6.61-5.43,10.1-13.36,10.1-22.93,0-8.45-2.33-14.8-7.34-19.99Zm-23.36,1.67c13.64,4.85,16.65,11.11,16.65,19.28,0,10.16-5.59,16.11-16.65,17.77v-37.05Zm-13.52-17.71c-4.79-1.63-8.25-3.41-10.65-5.46-3.29-2.81-4.75-6.29-4.75-11.28,0-5.43,2.14-14.17,15.41-15.9v32.64Z"/></svg>