<?xml version="1.0" encoding="UTF-8"?><svg id="Layer_1" xmlns="http://www.w3.org/2000/svg" viewBox="0 0 600 600"><defs><style>.cls-1{fill:#de7f43;}</style></defs><path class="cls-1" d="m210.86,492.94c-1.44,0-2.89-.32-4.24-.97-3.38-1.63-5.53-5.05-5.53-8.8v-61.34h-32.42c-42.41,0-76.91-35.06-76.91-78.16v-158.45c0-43.1,34.5-78.16,76.91-78.16h262.65c42.4,0,76.91,35.06,76.91,78.16v158.45c0,43.1-34.5,78.16-76.91,78.16h-127.9l-86.47,68.98c-1.76,1.41-3.92,2.13-6.09,2.13Zm-42.18-366.33c-31.63,0-57.37,26.3-57.37,58.62v158.45c0,32.32,25.74,58.62,57.37,58.62h42.19c5.39,0,9.77,4.37,9.77,9.77v50.82l73.28-58.46c1.73-1.38,3.88-2.13,6.09-2.13h131.32c31.63,0,57.37-26.3,57.37-58.62v-158.45c0-32.32-25.73-58.62-57.37-58.62H168.68Z"/><path class="cls-1" d="m210.86,495.44c-1.83,0-3.67-.42-5.32-1.21-4.22-2.03-6.95-6.37-6.95-11.05v-58.84h-29.92c-43.79,0-79.41-36.18-79.41-80.66v-158.45c0-44.47,35.62-80.66,79.41-80.66h262.65c43.79,0,79.41,36.18,79.41,80.66v158.45c0,44.47-35.62,80.66-79.41,80.66h-127.03l-85.78,68.43c-2.16,1.73-4.88,2.68-7.65,2.68Zm-42.18-385.87c-41.03,0-74.41,33.94-74.41,75.66v158.45c0,41.72,33.38,75.66,74.41,75.66h34.92v63.84c0,2.78,1.62,5.35,4.11,6.55,2.48,1.2,5.55.84,7.68-.86l87.15-69.53h128.78c41.03,0,74.41-33.94,74.41-75.66v-158.45c0-41.72-33.38-75.66-74.41-75.66H168.68Zm49.46,358.5v-56.01c0-4.01-3.26-7.27-7.27-7.27h-42.19c-33.01,0-59.87-27.42-59.87-61.12v-158.45c0-33.7,26.86-61.12,59.87-61.12h262.65c33.01,0,59.87,27.42,59.87,61.12v158.45c0,33.7-26.86,61.12-59.87,61.12h-131.32c-1.64,0-3.25.56-4.53,1.59l-77.34,61.69Zm-49.46-338.96c-30.25,0-54.87,25.17-54.87,56.12v158.45c0,30.94,24.61,56.12,54.87,56.12h42.19c6.77,0,12.27,5.5,12.27,12.27v45.63l69.22-55.22c2.17-1.73,4.88-2.68,7.65-2.68h131.32c30.25,0,54.87-25.17,54.87-56.12v-158.45c0-30.94-24.61-56.12-54.87-56.12H168.68Z"/><path class="cls-1" d="m218.56,275.16c-2.59,0-5.03-1.03-6.89-2.83-1.86-1.86-2.88-4.3-2.88-6.94,0-.63.1-1.27.2-1.9.15-.63.29-1.22.54-1.81.24-.59.59-1.17.93-1.71.34-.54.78-1.03,1.22-1.47,3.62-3.66,10.16-3.66,13.77,0,1.86,1.81,2.88,4.35,2.88,6.89s-1.03,5.08-2.88,6.94c-.88.88-1.95,1.61-3.12,2.1-1.22.49-2.44.73-3.76.73Z"/><path class="cls-1" d="m218.56,277.66c-3.22,0-6.29-1.26-8.63-3.54-2.35-2.35-3.64-5.44-3.64-8.73,0-.83.12-1.61.23-2.29l.03-.17c.15-.65.33-1.42.66-2.21.26-.63.62-1.3,1.13-2.09.49-.77,1.08-1.41,1.55-1.88,2.19-2.22,5.35-3.49,8.66-3.49h0c3.32,0,6.48,1.27,8.66,3.49,2.28,2.22,3.6,5.38,3.6,8.64s-1.28,6.37-3.62,8.7c-1.11,1.12-2.47,2.03-3.92,2.64-1.58.63-3.11.92-4.73.92Zm-7.12-13.7c-.08.52-.15,1.01-.15,1.43,0,1.97.74,3.76,2.15,5.17,1.38,1.35,3.21,2.1,5.12,2.1.99,0,1.89-.18,2.84-.55.82-.34,1.62-.88,2.28-1.54,1.41-1.41,2.16-3.2,2.16-5.17s-.78-3.78-2.13-5.1c-1.29-1.31-3.15-2.04-5.14-2.04h0c-1.99,0-3.85.73-5.11,2-.29.29-.65.68-.89,1.05-.22.35-.54.86-.73,1.33-.15.37-.26.79-.39,1.32Z"/><path class="cls-1" d="m299.98,275.16c-2.59,0-5.03-1.03-6.89-2.83-1.86-1.86-2.88-4.3-2.88-6.94s1.08-5.08,2.88-6.89c.44-.44.93-.88,1.47-1.22.54-.34,1.12-.63,1.71-.88.59-.24,1.22-.44,1.81-.59,3.17-.63,6.55.39,8.84,2.69,1.81,1.81,2.83,4.35,2.83,6.89s-.98,5.08-2.83,6.94c-1.86,1.81-4.3,2.83-6.94,2.83Z"/><path class="cls-1" d="m299.98,277.66c-3.22,0-6.28-1.26-8.63-3.54-2.36-2.36-3.64-5.45-3.64-8.73s1.32-6.36,3.61-8.66c.43-.43,1.09-1.05,1.89-1.56.64-.4,1.33-.76,2.09-1.08.65-.27,1.38-.51,2.16-.7l.12-.03c3.97-.8,8.23.5,11.1,3.37,2.27,2.27,3.57,5.42,3.57,8.66s-1.27,6.4-3.56,8.7c-2.37,2.31-5.45,3.57-8.7,3.57Zm-1.36-19.4c-.52.13-1,.29-1.4.46-.48.2-.94.44-1.33.68-.38.25-.78.62-1.04.88-1.34,1.34-2.14,3.26-2.14,5.12,0,1.97.74,3.76,2.15,5.17,1.38,1.35,3.21,2.1,5.12,2.1s3.79-.75,5.19-2.12c1.35-1.35,2.08-3.14,2.08-5.14,0-1.89-.79-3.8-2.1-5.12-1.69-1.69-4.18-2.45-6.52-2.01Z"/><path class="cls-1" d="m381.46,275.16c-1.32,0-2.59-.24-3.76-.73-1.17-.49-2.25-1.22-3.18-2.1-1.86-1.86-2.88-4.3-2.88-6.94s1.08-5.08,2.88-6.89c.44-.44.98-.88,1.47-1.22.54-.34,1.12-.63,1.71-.88.58-.24,1.22-.44,1.81-.59,1.27-.24,2.59-.24,3.86,0,.59.15,1.22.34,1.81.59.59.24,1.17.54,1.71.88.54.34,1.03.78,1.46,1.22,1.81,1.81,2.83,4.35,2.83,6.89s-.98,5.08-2.83,6.94c-1.86,1.81-4.3,2.83-6.89,2.83Z"/><path class="cls-1" d="m381.46,277.66c-1.66,0-3.25-.31-4.72-.92-1.42-.6-2.75-1.47-3.94-2.6-2.38-2.38-3.66-5.47-3.66-8.75s1.32-6.35,3.61-8.65c.52-.52,1.16-1.05,1.8-1.5l.11-.07c.63-.4,1.33-.76,2.08-1.07.64-.27,1.36-.5,2.15-.7l.15-.03c1.57-.3,3.23-.3,4.8,0l.14.03c.78.2,1.51.43,2.15.7.75.31,1.45.67,2.09,1.07.63.41,1.23.9,1.9,1.57,2.27,2.27,3.57,5.42,3.57,8.66s-1.27,6.4-3.57,8.7c-2.37,2.31-5.43,3.57-8.65,3.57Zm-4.08-18.3c-.39.28-.79.61-1.09.91-1.34,1.34-2.14,3.26-2.14,5.12,0,1.97.74,3.76,2.15,5.17.7.66,1.52,1.21,2.37,1.57.85.35,1.8.54,2.8.54,1.91,0,3.73-.75,5.14-2.12,1.35-1.35,2.08-3.14,2.08-5.14,0-1.89-.79-3.8-2.1-5.12-.4-.4-.74-.69-1.05-.88-.38-.24-.84-.47-1.32-.67-.39-.16-.87-.32-1.39-.45-.91-.17-1.87-.17-2.78,0-.52.13-1,.29-1.39.45-.46.19-.91.42-1.28.65Z"/></svg>