<?xml version="1.0" encoding="UTF-8"?><svg id="Layer_1" xmlns="http://www.w3.org/2000/svg" viewBox="0 0 600 600"><defs><style></style></defs><path class="cls-1" d="m420.59,440.99c-6.08,0-11.01,4.93-11.01,11.01s4.93,11.01,11.01,11.01c60.16,0,103.83-47.43,103.83-112.76v-179.76c0-18.47-15.03-33.5-33.51-33.5H111.08c-18.47,0-33.5,15.03-33.5,33.5v179.76c0,65.34,43.66,112.76,103.82,112.76,6.08,0,11.01-4.93,11.01-11.01s-4.93-11.01-11.01-11.01c-47.4,0-81.8-38.16-81.8-90.74v-5.65c3.59,1.31,7.44,2.07,11.48,2.07h11.25c44.4,0,96.24,21.69,96.24,82.84,0,18.47,15.03,33.5,33.5,33.5h97.85c18.47,0,33.51-15.03,33.51-33.5,0-54.97,32.38-82.84,96.24-82.84h11.24c4.04,0,7.89-.75,11.48-2.07v5.65c0,52.58-34.4,90.74-81.8,90.74Zm81.8-178.4h-71.56c-4.5,0-8.16-3.66-8.16-8.16v-28.96c0-4.5,3.66-8.16,8.16-8.16h71.56v45.29Zm-402.79-45.29h71.56c4.5,0,8.17,3.66,8.17,8.16v28.96c0,4.5-3.66,8.16-8.17,8.16h-71.56v-45.29Zm391.31,107.35h-11.24c-76.27,0-118.27,37.24-118.27,104.86,0,6.33-5.15,11.48-11.48,11.48h-97.85c-6.33,0-11.48-5.15-11.48-11.48,0-72.44-59.4-104.86-118.27-104.86h-11.25c-6.33,0-11.48-5.15-11.48-11.48v-28.55h71.56c16.65,0,30.19-13.54,30.19-30.19v-28.96c0-16.65-13.54-30.19-30.19-30.19h-71.56v-24.79c0-6.33,5.15-11.48,11.48-11.48h379.83c6.33,0,11.48,5.15,11.48,11.48v24.79h-71.56c-16.65,0-30.19,13.54-30.19,30.19v28.96c0,16.65,13.54,30.19,30.19,30.19h71.56v28.55c0,6.33-5.15,11.48-11.48,11.48Z"/></svg>