<?xml version="1.0" encoding="UTF-8"?><svg id="Layer_1" xmlns="http://www.w3.org/2000/svg" viewBox="0 0 600 600"><defs><style>.cls-1{fill:#de7f43;stroke:#de7f43;stroke-miterlimit:10;}</style></defs><path class="cls-1" d="m302.34,464.56c-16.24,0-31.6-5.14-41.08-13.76-3.02-2.75-3.25-7.42-.5-10.44,2.74-3.03,7.42-3.25,10.45-.5,6.84,6.21,18.47,9.91,31.14,9.91s24.3-3.71,31.14-9.91c3.02-2.75,7.7-2.52,10.45.5,2.75,3.02,2.52,7.7-.5,10.44-9.48,8.61-24.84,13.76-41.08,13.76Z"/><path class="cls-1" d="m302.34,466.13c-16.62,0-32.36-5.3-42.13-14.17-3.66-3.32-3.93-9-.61-12.65,1.61-1.77,3.81-2.81,6.2-2.92,2.42-.15,4.68.71,6.46,2.31,6.56,5.96,17.8,9.52,30.08,9.52s23.53-3.55,30.09-9.51c3.66-3.33,9.34-3.05,12.65.61,3.32,3.66,3.05,9.33-.61,12.65-9.77,8.87-25.51,14.17-42.14,14.17Zm-36.1-26.63c-.1,0-.2,0-.29,0-1.56.07-2.99.75-4.03,1.9-2.16,2.38-1.98,6.07.39,8.24,9.2,8.36,24.17,13.35,40.03,13.35s30.83-4.99,40.03-13.35c2.37-2.16,2.55-5.86.39-8.24-1.05-1.15-2.48-1.83-4.03-1.9-1.66-.11-3.05.46-4.2,1.5-7.11,6.47-19.15,10.33-32.19,10.33s-25.07-3.86-32.19-10.33c-1.08-.98-2.46-1.51-3.91-1.51Z"/><path class="cls-1" d="m300.93,512.48c-61.52,0-117.69-38.59-139.77-96.03-1.46-3.81.44-8.09,4.25-9.56,3.81-1.46,8.09.43,9.56,4.25,19.91,51.77,70.53,86.55,125.97,86.55s106.13-34.82,126.01-86.65c1.46-3.81,5.74-5.72,9.55-4.25,3.81,1.46,5.72,5.74,4.25,9.55-22.06,57.5-78.25,96.14-139.82,96.14Z"/><path class="cls-1" d="m300.92,514.05c-62.16,0-118.91-38.99-141.23-97.03-1.77-4.61.53-9.81,5.14-11.58,4.62-1.78,9.81.55,11.58,5.15,19.67,51.16,69.71,85.54,124.5,85.54s104.9-34.42,124.55-85.64c1.77-4.61,6.96-6.92,11.58-5.15,2.23.86,4,2.53,4.97,4.72.97,2.19,1.04,4.62.18,6.86-22.29,58.11-79.07,97.14-141.28,97.14Zm-132.88-106.08c-.7,0-1.4.12-2.09.39-2.99,1.16-4.5,4.54-3.34,7.53,21.85,56.84,77.43,95.03,138.31,95.03s116.52-38.23,138.36-95.14c.56-1.46.52-3.04-.12-4.46-.63-1.42-1.78-2.51-3.24-3.07-3.02-1.17-6.38.35-7.53,3.35-20.11,52.42-71.34,87.65-127.48,87.65s-107.29-35.18-127.43-87.55c-.89-2.31-3.11-3.74-5.46-3.74Z"/><path class="cls-1" d="m152.31,334.3c-4.06,0-7.37-3.28-7.39-7.35v-.42c-.02-.32-.03-.64-.03-.97,0-86.82,70.64-157.46,157.46-157.46s157.46,70.63,157.46,157.46c0,.09,0,.39-.01.48,0,4.08-3.31,7.36-7.39,7.36s-7.39-3.34-7.39-7.43c0-.09,0-.39.01-.48,0-78.6-64-142.6-142.67-142.6s-142.67,64-142.67,142.67l.03,1.29c.03,4.08-3.26,7.42-7.35,7.44h-.05Z"/><path class="cls-1" d="m152.36,335.87h-.06c-4.9,0-8.92-3.99-8.96-8.9l-.03-1.4c0-87.69,71.33-159.02,159.02-159.02s159.03,71.33,159.03,159.02v.48c-.01,4.92-4.03,8.92-8.97,8.92s-8.96-4.03-8.96-8.99v-.48c0-77.77-63.29-141.03-141.1-141.03s-141.1,63.3-141.1,141.1l.04,1.25c.03,4.97-3.96,9.01-8.9,9.05h0Zm149.98-166.19c-85.96,0-155.89,69.93-155.89,155.89l.03,1.34c.02,3.24,2.64,5.83,5.83,5.83h.05c3.2-.02,5.8-2.65,5.79-5.86l-.04-1.27c0-79.57,64.7-144.28,144.23-144.28s144.23,64.67,144.23,144.17v.48c0,3.23,2.61,5.86,5.82,5.86s5.83-2.6,5.83-5.79v-.48c.01-85.96-69.92-155.89-155.88-155.89Z"/><path class="cls-1" d="m168.06,421.2c-.1,0-.2,0-.3,0-46.17-1.86-62.92-37.03-62.92-60.2,0-25.13,15.78-42.69,38.37-42.69,3.68,0,7.39.49,11.02,1.47,3.94,1.06,6.29,5.11,5.23,9.06-1.06,3.94-5.11,6.29-9.06,5.23-2.39-.64-4.81-.96-7.19-.96-16.29,0-23.58,14.01-23.58,27.9,0,12.09,8.76,43.81,48.73,45.43,4.08.17,7.25,3.61,7.09,7.69-.16,3.98-3.44,7.1-7.38,7.1Z"/><path class="cls-1" d="m168.06,422.76h-.4c-47.24-1.92-64.4-37.99-64.4-61.77,0-26.05,16.43-44.25,39.94-44.25,3.8,0,7.65.51,11.42,1.52,2.31.61,4.24,2.1,5.44,4.16,1.2,2.07,1.52,4.49.89,6.8-.62,2.32-2.1,4.25-4.18,5.45-2.07,1.19-4.46,1.51-6.79.89-2.25-.6-4.54-.91-6.78-.91-15.21,0-22.02,13.23-22.02,26.33,0,11.67,8.48,42.3,47.23,43.86,4.94.2,8.79,4.38,8.59,9.31-.2,4.83-4.12,8.6-8.95,8.6Zm-24.85-102.9c-21.67,0-36.81,16.91-36.81,41.12,0,22.57,16.36,56.82,61.42,58.64l.24,1.57v-1.57c3.14,0,5.69-2.46,5.82-5.59.13-3.21-2.37-5.93-5.58-6.06-41.21-1.66-50.23-34.49-50.23-46.99,0-14.67,7.77-29.47,25.15-29.47,2.52,0,5.08.34,7.6,1.02,1.51.39,3.07.2,4.42-.58,1.35-.78,2.31-2.04,2.72-3.54s.2-3.08-.59-4.43c-.78-1.35-2.03-2.31-3.53-2.71-3.51-.94-7.08-1.41-10.61-1.41Z"/><path class="cls-1" d="m433.83,421.09c-3.87,0-7.12-3.01-7.37-6.93-.26-4.08,2.84-7.59,6.91-7.85,37.18-2.35,47.01-30.68,47.01-45.33,0-13.89-7.29-27.9-23.58-27.9-1.13,0-2.3.08-3.47.23-4.03.52-7.75-2.35-8.27-6.4-.52-4.05,2.35-7.75,6.4-8.27,1.79-.23,3.59-.34,5.34-.34,22.59,0,38.37,17.55,38.37,42.69,0,22.6-16.21,57.26-60.86,60.09-.16.01-.32.01-.48.01Z"/><path class="cls-1" d="m433.83,422.66c-4.71,0-8.63-3.69-8.93-8.4-.31-4.93,3.44-9.2,8.37-9.5,36.03-2.29,45.54-29.63,45.54-43.77,0-13.11-6.81-26.33-22.02-26.33-1.06,0-2.16.07-3.27.21-2.34.31-4.7-.32-6.6-1.79-1.9-1.47-3.12-3.58-3.42-5.96-.62-4.9,2.86-9.39,7.75-10.02,1.87-.23,3.74-.35,5.55-.35,23.51,0,39.94,18.2,39.94,44.25,0,23.2-16.6,58.75-62.33,61.65-.18.02-.37.02-.57.02Zm22.97-91.14c17.37,0,25.15,14.8,25.15,29.47s-10.13,44.46-48.48,46.89c-3.2.21-5.65,2.98-5.45,6.19.2,3.06,2.75,5.46,5.81,5.46h.35c43.6-2.77,59.42-36.52,59.42-58.54,0-24.21-15.14-41.12-36.8-41.12-1.68,0-3.41.11-5.15.33-3.19.41-5.45,3.33-5.05,6.52.2,1.55.99,2.92,2.23,3.88,1.22.95,2.74,1.41,4.29,1.16,1.24-.16,2.48-.24,3.68-.24Z"/><path class="cls-1" d="m370.59,392.26c-6.13,0-11.09-4.97-11.09-11.09v-14.97c0-6.13,4.97-11.09,11.09-11.09s11.09,4.97,11.09,11.09v14.97c0,6.13-4.97,11.09-11.09,11.09Z"/><path class="cls-1" d="m370.59,393.82c-6.98,0-12.66-5.68-12.66-12.66v-14.97c0-6.98,5.68-12.65,12.66-12.65s12.66,5.68,12.66,12.65v14.97c0,6.98-5.68,12.66-12.66,12.66Zm0-37.15c-5.25,0-9.53,4.27-9.53,9.52v14.97c0,5.25,4.27,9.53,9.53,9.53s9.53-4.27,9.53-9.53v-14.97c0-5.25-4.27-9.52-9.53-9.52Z"/><path class="cls-1" d="m231.3,392.26c-6.13,0-11.09-4.97-11.09-11.09v-14.97c0-6.13,4.97-11.09,11.09-11.09s11.09,4.97,11.09,11.09v14.97c0,6.13-4.97,11.09-11.09,11.09Z"/><path class="cls-1" d="m231.3,393.82c-6.98,0-12.65-5.68-12.65-12.66v-14.97c0-6.98,5.68-12.65,12.65-12.65s12.66,5.68,12.66,12.65v14.97c0,6.98-5.68,12.66-12.66,12.66Zm0-37.15c-5.25,0-9.52,4.27-9.52,9.52v14.97c0,5.25,4.27,9.53,9.52,9.53s9.53-4.27,9.53-9.53v-14.97c0-5.25-4.27-9.52-9.53-9.52Z"/><path class="cls-1" d="m293.88,164.51c-19.32,0-35.04-15.72-35.04-35.04,0-1.33.07-2.67.21-4.1.4-4.06,3.99-7.03,8.08-6.64,4.06.4,7.04,4.01,6.64,8.08-.09.88-.14,1.76-.14,2.66,0,11.17,9.09,20.25,20.25,20.25,8.14,0,12.61-4.48,12.61-12.61,0-5.68-4.62-10.3-10.3-10.3-4.08,0-7.39-3.31-7.39-7.39s3.31-7.39,7.39-7.39c13.83,0,25.09,11.26,25.09,25.09,0,16.39-11.01,27.4-27.4,27.4Z"/><path class="cls-1" d="m293.88,166.07c-20.19,0-36.61-16.42-36.61-36.61,0-1.38.07-2.76.21-4.25.48-4.9,4.79-8.51,9.79-8.05,4.92.48,8.53,4.87,8.05,9.79-.08.83-.13,1.66-.13,2.51,0,10.31,8.38,18.68,18.69,18.68,7.22,0,11.05-3.82,11.05-11.05,0-4.81-3.92-8.73-8.73-8.73s-8.96-4.02-8.96-8.96,4.02-8.96,8.96-8.96c14.7,0,26.66,11.96,26.66,26.65,0,17.33-11.64,28.97-28.97,28.97Zm-27.47-45.82c-2.96,0-5.51,2.26-5.8,5.27-.13,1.38-.2,2.67-.2,3.94,0,18.46,15.02,33.48,33.48,33.48,15.45,0,25.84-10.38,25.84-25.84,0-12.97-10.56-23.52-23.53-23.52-3.21,0-5.83,2.62-5.83,5.83s2.62,5.83,5.83,5.83c6.54,0,11.86,5.32,11.86,11.86,0,9.01-5.17,14.18-14.18,14.18-12.03,0-21.82-9.79-21.82-21.81,0-.95.06-1.89.15-2.81.31-3.2-2.04-6.05-5.24-6.37-.19-.02-.37-.03-.56-.03Z"/><path class="cls-1" d="m287.66,215.9c-4.08,0-7.39-3.31-7.39-7.39s3.31-7.39,7.39-7.39c19.67,0,48.93-16.78,48.93-63.01,0-26.4-18.5-35.81-35.81-35.81-14.05,0-25.67,10.53-27.03,24.5-.39,4.06-4.01,7.02-8.07,6.65-4.06-.39-7.04-4.01-6.65-8.07,2.1-21.59,20.04-37.86,41.75-37.86,30.26,0,50.59,20.33,50.59,50.59,0,57.08-38.11,77.8-63.72,77.8Z"/><path class="cls-1" d="m287.66,217.47c-4.94,0-8.96-4.02-8.96-8.96s4.02-8.96,8.96-8.96c19.04,0,47.37-16.37,47.37-61.44,0-25.24-17.69-34.24-34.24-34.24-13.25,0-24.19,9.93-25.47,23.09-.48,4.9-4.94,8.4-9.79,8.05-4.92-.48-8.53-4.87-8.05-9.79,2.17-22.39,20.79-39.28,43.31-39.28,31.2,0,52.16,20.96,52.16,52.15,0,58.23-39.04,79.36-65.29,79.36Zm13.12-116.73c18.07,0,37.37,9.82,37.37,37.37,0,47.38-30.2,64.58-50.5,64.58-3.21,0-5.83,2.62-5.83,5.83s2.62,5.83,5.83,5.83c24.98,0,62.15-20.3,62.15-76.23,0-29.32-19.7-49.02-49.03-49.02-20.9,0-38.17,15.67-40.19,36.45-.31,3.19,2.04,6.05,5.24,6.36,3.25.33,6.05-2.05,6.37-5.24,1.43-14.77,13.72-25.91,28.58-25.91Z"/></svg>