<?xml version="1.0" encoding="UTF-8"?><svg id="Layer_1" xmlns="http://www.w3.org/2000/svg" viewBox="0 0 600 600"><defs><style>.cls-1{fill:#de7f43;}</style></defs><path class="cls-1" d="m260.1,46.56c-25.1-6.15-50.56,9.28-56.71,34.39l-90.31,368.62c-2.98,12.17-1.05,24.77,5.45,35.48,6.5,10.72,16.78,18.26,28.94,21.23l192.44,47.14c3.73.91,7.5,1.37,11.25,1.37,8.47,0,16.81-2.31,24.24-6.82,10.71-6.5,18.25-16.77,21.23-28.95l90.31-368.62c2.98-12.16,1.04-24.77-5.45-35.48-6.49-10.71-16.78-18.25-28.94-21.23l-192.43-47.14Zm206.74,98.94l-90.31,368.62c-1.67,6.8-5.88,12.55-11.87,16.18-5.99,3.63-13.04,4.71-19.84,3.05l-192.44-47.14c-6.81-1.66-12.55-5.88-16.18-11.87-3.63-5.99-4.71-13.03-3.05-19.84L223.47,85.87c3.44-14.04,17.66-22.67,31.71-19.23l192.44,47.14c6.8,1.66,12.55,5.88,16.18,11.87,3.63,5.99,4.71,13.03,3.05,19.84Z"/><path class="cls-1" d="m280.61,166.03c2.41.59,4.85.88,7.26.88,5.47,0,10.86-1.49,15.65-4.4,6.92-4.2,11.79-10.84,13.72-18.7,3.97-16.22-5.99-32.66-22.22-36.63-7.86-1.93-16-.68-22.92,3.52-6.92,4.2-11.79,10.84-13.72,18.7-3.98,16.22,5.99,32.66,22.22,36.64Zm-2.07-44.73c2.83-1.72,6.01-2.6,9.25-2.6,1.42,0,2.87.17,4.29.52,9.58,2.35,15.47,12.06,13.12,21.64-1.13,4.64-4.01,8.56-8.1,11.04-4.09,2.48-8.9,3.22-13.53,2.08-9.58-2.35-15.47-12.05-13.12-21.63,1.13-4.64,4.01-8.56,8.1-11.04Z"/><path class="cls-1" d="m299.31,217.02c1.93-7.86.68-16-3.52-22.92-4.2-6.92-10.84-11.79-18.7-13.72-7.86-1.92-16-.67-22.92,3.53-6.92,4.19-11.79,10.83-13.72,18.69-1.92,7.86-.67,16,3.52,22.92,4.2,6.92,10.84,11.79,18.7,13.72,2.41.59,4.85.88,7.26.88,5.47,0,10.86-1.49,15.66-4.41,6.92-4.19,11.79-10.83,13.71-18.69Zm-20.15,8.09c-4.09,2.48-8.89,3.21-13.53,2.08-4.65-1.14-8.56-4.01-11.04-8.1-2.47-4.09-3.22-8.89-2.08-13.53,1.14-4.64,4.02-8.57,8.1-11.04,2.83-1.72,6.01-2.6,9.25-2.6,1.43,0,2.87.17,4.29.52,4.64,1.14,8.57,4.01,11.05,8.1,2.48,4.09,3.21,8.89,2.08,13.53-1.14,4.65-4.01,8.57-8.1,11.05Z"/><path class="cls-1" d="m258.56,256.03c-16.22-3.96-32.66,5.99-36.64,22.22-1.92,7.86-.67,16,3.52,22.92,4.2,6.92,10.84,11.79,18.7,13.72,2.41.59,4.85.88,7.26.88,5.47,0,10.86-1.49,15.66-4.4,6.92-4.2,11.79-10.84,13.71-18.7,1.93-7.86.68-16-3.52-22.92-4.2-6.92-10.84-11.79-18.7-13.71Zm2.07,44.72c-4.09,2.48-8.9,3.22-13.53,2.08-9.58-2.35-15.47-12.06-13.12-21.63,2-8.16,9.33-13.63,17.38-13.63,1.4,0,2.83.17,4.26.52,4.64,1.14,8.56,4.01,11.04,8.1,2.48,4.08,3.22,8.89,2.08,13.53-1.14,4.64-4.02,8.56-8.1,11.04Z"/><path class="cls-1" d="m240.62,329.24c-16.23-3.97-32.67,5.99-36.64,22.22-1.92,7.86-.67,16,3.53,22.92,4.2,6.92,10.84,11.8,18.69,13.72,2.41.59,4.83.87,7.21.87,13.63,0,26.04-9.28,29.43-23.09,1.92-7.86.67-16-3.52-22.92-4.2-6.92-10.84-11.8-18.69-13.72Zm-11.47,46.8c-4.64-1.14-8.56-4.01-11.04-8.1-2.48-4.09-3.22-8.89-2.08-13.53,2-8.16,9.33-13.64,17.38-13.64,1.41,0,2.84.17,4.26.52,4.64,1.14,8.56,4.01,11.04,8.1,2.47,4.08,3.22,8.89,2.07,13.53-2.35,9.57-12.06,15.47-21.63,13.12Z"/><path class="cls-1" d="m221.6,406.9c-7.86-1.92-16-.68-22.92,3.52-6.92,4.2-11.79,10.84-13.72,18.7-3.98,16.23,5.99,32.66,22.22,36.64,2.41.59,4.83.87,7.21.87,13.63,0,26.04-9.28,29.43-23.09,1.92-7.87.68-16-3.52-22.92-4.2-6.92-10.84-11.79-18.7-13.71Zm-11.46,46.8c-9.58-2.35-15.47-12.05-13.12-21.63,1.14-4.64,4.01-8.56,8.1-11.04,2.83-1.72,6.01-2.6,9.24-2.6,1.43,0,2.87.17,4.29.52,9.58,2.35,15.47,12.05,13.12,21.63-2.35,9.58-12.06,15.46-21.63,13.12Z"/><path class="cls-1" d="m396.72,132.08c-16.25-3.98-32.66,5.99-36.64,22.22-1.93,7.86-.68,16,3.52,22.92,4.2,6.92,10.84,11.79,18.7,13.72,2.41.59,4.84.88,7.26.88,5.47,0,10.86-1.49,15.65-4.41,6.92-4.2,11.79-10.84,13.72-18.7,3.97-16.23-5.99-32.66-22.22-36.64Zm2.07,44.73c-4.09,2.48-8.9,3.22-13.53,2.08-4.65-1.14-8.57-4.01-11.05-8.1-2.47-4.09-3.22-8.89-2.07-13.53,1.99-8.16,9.33-13.64,17.37-13.64,1.41,0,2.84.17,4.26.52,9.58,2.35,15.47,12.05,13.12,21.63-1.13,4.64-4.01,8.57-8.1,11.04Z"/><path class="cls-1" d="m378.78,205.29c-16.23-3.97-32.66,5.99-36.64,22.22-1.92,7.86-.67,16,3.53,22.92,4.19,6.92,10.84,11.79,18.7,13.72,2.41.59,4.84.88,7.26.88,5.47,0,10.86-1.49,15.65-4.41,6.92-4.2,11.79-10.84,13.71-18.7,3.98-16.23-5.99-32.66-22.21-36.64Zm2.07,44.73c-4.08,2.48-8.9,3.22-13.53,2.08-9.58-2.35-15.47-12.05-13.12-21.63,2-8.16,9.32-13.63,17.38-13.63,1.41,0,2.84.17,4.26.52,9.58,2.35,15.47,12.05,13.12,21.63-1.14,4.64-4.01,8.56-8.1,11.04Z"/><path class="cls-1" d="m360.25,280.95c-16.23-3.98-32.66,5.99-36.63,22.22-3.98,16.22,5.99,32.66,22.22,36.64,2.41.59,4.83.87,7.21.87,13.63,0,26.04-9.28,29.43-23.09,3.97-16.22-5.99-32.66-22.22-36.63Zm-11.47,46.8c-9.58-2.34-15.47-12.05-13.12-21.63,2-8.15,9.33-13.64,17.38-13.64,1.4,0,2.83.17,4.25.52,9.58,2.34,15.47,12.05,13.12,21.63-2.35,9.58-12.07,15.46-21.63,13.12Z"/><path class="cls-1" d="m342.31,354.16c-16.23-3.98-32.66,5.98-36.64,22.21-3.97,16.23,6,32.66,22.22,36.64,2.42.59,4.83.87,7.21.87,13.63,0,26.04-9.28,29.43-23.09,3.97-16.23-6-32.66-22.22-36.63Zm-11.46,46.8c-9.58-2.35-15.47-12.06-13.12-21.63,2-8.16,9.33-13.64,17.38-13.64,1.4,0,2.83.17,4.26.52,9.58,2.35,15.47,12.05,13.12,21.63-2.35,9.58-12.06,15.47-21.63,13.12Z"/><path class="cls-1" d="m323.29,431.81c-7.86-1.93-16-.68-22.92,3.52-6.92,4.2-11.79,10.84-13.71,18.7-1.93,7.86-.68,16,3.52,22.92,4.2,6.92,10.84,11.79,18.7,13.71,2.41.59,4.84.89,7.26.89,5.47,0,10.86-1.49,15.65-4.41,6.92-4.19,11.79-10.84,13.72-18.7,3.97-16.22-6-32.66-22.22-36.63Zm2.07,44.72c-4.09,2.48-8.9,3.22-13.53,2.08-4.64-1.14-8.57-4.01-11.05-8.1-2.48-4.08-3.21-8.89-2.08-13.53,1.14-4.64,4.02-8.56,8.1-11.04,2.83-1.72,6.01-2.6,9.25-2.6,1.42,0,2.86.17,4.29.53,9.58,2.34,15.46,12.05,13.12,21.63-1.14,4.65-4.01,8.57-8.1,11.04Z"/></svg>