<?xml version="1.0" encoding="UTF-8"?><svg id="Layer_1" xmlns="http://www.w3.org/2000/svg" viewBox="0 0 600 600"><defs><style>.cls-1{fill:#df7f44;}.cls-2{fill:#de7f43;stroke:#de7f43;stroke-miterlimit:10;stroke-width:5px;}</style></defs><path class="cls-1" d="m445.92,221.42c-1.34,0-2.7-.35-3.93-1.09l-17.46-10.5c-3.62-2.18-4.79-6.87-2.61-10.48,2.18-3.62,6.88-4.78,10.48-2.61l17.46,10.5c3.62,2.18,4.79,6.87,2.61,10.48-1.44,2.39-3.96,3.71-6.55,3.71Z"/><path class="cls-1" d="m421.13,261.2c-1.34,0-2.7-.35-3.93-1.09l-16.6-9.99c-3.62-2.18-4.79-6.87-2.61-10.48,2.18-3.63,6.88-4.78,10.48-2.61l16.6,9.99c3.62,2.18,4.79,6.87,2.61,10.48-1.44,2.39-3.96,3.71-6.55,3.71Z"/><path class="cls-1" d="m263.07,296.84c-3.63,0-7.31-.67-10.84-2.05-15.32-5.95-22.94-23.26-16.98-38.58.07-.19.15-.38.22-.57-4.63-7.8-5.49-17.34-2.12-25.99,2.94-7.57,8.7-13.46,15.97-16.57.26-4.36,1.21-8.64,2.82-12.79,8.46-21.77,33.05-32.61,54.83-24.12.22.09.44.17.66.26,8.36-3.56,17.94-3.68,26.83-.21,8.61,3.35,15.58,9.83,19.4,17.8.72.19,1.41.42,2.11.69,6.97,2.71,11.75,8.92,12.85,15.99,14.16,6.57,20.97,23.13,15.24,37.85-2.88,7.42-8.48,13.27-15.77,16.48-7.28,3.21-15.39,3.38-22.81.49-3.72-1.45-7.11-3.63-9.97-6.4-3.43,3.31-8,6.31-13.53,8.79-9.15,4.09-20.25,6.4-29.71,4.85-1.22,6.18-4.42,11.93-9.33,16.38-5.58,5.06-12.66,7.71-19.89,7.71Zm28.59-108.28c-10.85,0-21.11,6.56-25.27,17.26h0c-1.52,3.92-2.11,8.02-1.75,12.18.34,3.91-2.33,7.45-6.19,8.18-4.97.95-9.02,4.31-10.85,9.01-1.97,5.04-.98,10.71,2.57,14.79,2.22,2.56,2.49,6.27.67,9.12-.54.85-1,1.74-1.35,2.64-1.41,3.61-1.32,7.56.25,11.11,1.56,3.55,4.41,6.28,8.02,7.69,5.21,2.02,10.8,1,14.94-2.75,4.2-3.8,5.82-9.28,4.32-14.66-.92-3.31.48-6.82,3.43-8.59,2.94-1.77,6.71-1.36,9.2,1.01,3.98,3.77,15.68,3.08,26.1-1.6,8.26-3.71,11.75-8.1,11.71-9.52-.12-3.83,2.61-7.16,6.39-7.78,3.7-.63,7.44,1.64,8.55,5.31.55,1.81,1.48,3.54,2.68,5.01,1.57,1.91,3.63,3.4,5.95,4.3,3.62,1.41,7.57,1.32,11.11-.24,3.55-1.56,6.28-4.42,7.69-8.03,1.41-3.62,1.32-7.56-.24-11.11-1.56-3.55-4.41-6.28-8.03-7.69-.67-.26-1.37-.47-2.07-.63-3.97-.92-6.52-4.81-5.79-8.82.45-2.46-.91-4.89-3.25-5.8-.63-.24-1.03-.42-1.97-.35h-.09c-3.37,0-6.34-2.21-7.32-5.44-1.7-5.65-6.24-10.4-12.15-12.7-5.81-2.25-12.3-1.87-17.34,1.05-2.26,1.31-5.02,1.38-7.35.17-.9-.47-1.83-.9-2.8-1.28-3.21-1.24-6.52-1.83-9.78-1.83Zm-32.39,14.5h.06-.06Z"/><path class="cls-1" d="m474.59,348.68H125.41c-13.52,0-24.52-11-24.52-24.52s11-24.52,24.52-24.52h349.18c13.52,0,24.52,11,24.52,24.52s-11,24.52-24.52,24.52Zm-349.18-33.76c-5.09,0-9.23,4.14-9.23,9.23s4.14,9.23,9.23,9.23h349.18c5.09,0,9.23-4.14,9.23-9.23s-4.14-9.23-9.23-9.23H125.41Z"/><path class="cls-1" d="m169.29,493.21c-18.27-1.01-24.74-6.56-29.16-34.53l-18.3-115.76c-.35-2.21.28-4.45,1.73-6.15,1.45-1.69,3.56-2.68,5.8-2.69l340.69-.92c2.17.02,4.35.97,5.81,2.66,1.46,1.69,2.1,3.93,1.76,6.14l-17.67,115.86c-2.12,13.88-5.31,34.87-38.12,34.96l-240.61.65c-4.46,0-8.41-.02-11.93-.21Zm-30.97-143.87l16.9,106.95q3.46,21.9,25.94,21.85l240.63-.65c18.87-.05,20.8-7.17,23.05-21.98l16.33-107.04-322.85.87Z"/><path class="cls-1" d="m312.25,314.93c-3.29,0-6.33-2.14-7.32-5.45-.62-2.07-1.22-4.16-1.82-6.25-4.47-15.65-8.33-29.17-20.2-33.9-3.92-1.56-5.83-6.01-4.27-9.93,1.56-3.92,6.03-5.84,9.93-4.27,18.84,7.51,24.36,26.83,29.23,43.89.58,2.03,1.16,4.06,1.76,6.07,1.21,4.04-1.09,8.3-5.13,9.51-.73.22-1.47.32-2.19.32Z"/><path class="cls-1" d="m339.95,314.93c-3.36,0-6.45-2.25-7.37-5.65-4.11-15.19-10.16-48.4-3.68-65.32,1.51-3.95,5.93-5.93,9.86-4.4,3.94,1.5,5.91,5.93,4.4,9.86-3.96,10.34-.92,37.05,4.17,55.86,1.1,4.07-1.31,8.27-5.38,9.37-.67.18-1.34.27-2,.27Z"/><path class="cls-1" d="m427.51,314.93c-1.72,0-3.46-.58-4.89-1.77-3.24-2.71-3.68-7.52-.98-10.76,5.8-6.95,11.39-14.35,16.63-22.01,17.8-26.01,30.45-53.13,35.62-76.36,4.51-20.29,2.57-35.58-5.2-40.9-12.41-8.5-57,16.98-93.76,61.37-2.68,3.25-7.49,3.71-10.76,1.01-3.25-2.69-3.7-7.51-1.01-10.76,31.24-37.74,87.32-82.61,114.15-64.23,13.5,9.24,17.58,29.42,11.49,56.83-5.57,25.09-19.04,54.09-37.92,81.68-5.51,8.05-11.39,15.84-17.5,23.17-1.51,1.81-3.69,2.75-5.88,2.75Z"/><path class="cls-1" d="m393.14,294.83c-1.34,0-2.7-.35-3.94-1.09l-16.59-9.99c-3.61-2.18-4.78-6.87-2.61-10.49,2.18-3.61,6.87-4.77,10.49-2.61l16.59,9.99c3.61,2.18,4.78,6.87,2.61,10.49-1.44,2.38-3.96,3.7-6.55,3.7Z"/><path class="cls-1" d="m228.35,447.43c-4.22,0-7.64-3.42-7.64-7.64v-59.61c0-4.22,3.42-7.64,7.64-7.64s7.64,3.42,7.64,7.64v59.61c0,4.22-3.42,7.64-7.64,7.64Z"/><path class="cls-1" d="m261.17,314.93c-4.22,0-7.64-3.42-7.64-7.64v-18.14c0-4.22,3.42-7.64,7.64-7.64s7.64,3.42,7.64,7.64v18.14c0,4.22-3.42,7.64-7.64,7.64Z"/><path class="cls-1" d="m319.03,447.43c-4.22,0-7.64-3.42-7.64-7.64v-59.61c0-4.22,3.42-7.64,7.64-7.64s7.64,3.42,7.64,7.64v59.61c0,4.22-3.42,7.64-7.64,7.64Z"/><path class="cls-1" d="m366.31,447.43c-4.22,0-7.64-3.42-7.64-7.64v-59.61c0-4.22,3.42-7.64,7.64-7.64s7.64,3.42,7.64,7.64v59.61c0,4.22-3.42,7.64-7.64,7.64Z"/><path class="cls-1" d="m278.11,447.93c-4.22,0-7.64-3.42-7.64-7.64v-59.61c0-4.22,3.42-7.64,7.64-7.64s7.64,3.42,7.64,7.64v59.61c0,4.22-3.42,7.64-7.64,7.64Z"/><path class="cls-2" d="m292.95,174l-25.58-39.64c-.04-.06-.09-.12-.13-.18v-17c0-5.85-4.76-10.6-10.6-10.6h-96.44c-5.85,0-10.6,4.76-10.6,10.6v19.5l-21.85,36.8c-.65.71-1.05,1.65-1.05,2.68v132.24c1,.09,2,.19,3,.27,6.29.54,12.59.69,18.9.7,12.24.02,24.46-.02,36.7.35,19.64.59,39.44,1.44,59.05-.19v-132.28l13.86-23.23,5.96-9.98,2.28,3.53,19.2,29.74v5.72c2.65-.18,5.3-.36,7.95-.6v-6.29c0-.76-.22-1.51-.64-2.16Zm-56.56,133.52h-101.74v-65.87h101.74v65.87Zm0-73.82h-101.74v-53.55h101.74v53.55Zm16.39-87.48l-2.36,3.98-2.36,3.98-10.69,18.01h-99.6l13.56-22.83,2.46-4.15,2.79-4.7h99.6l-3.4,5.72Zm6.51-13.67h-101.74v-15.37c0-1.44,1.21-2.65,2.65-2.65h96.44c1.44,0,2.65,1.21,2.65,2.65v15.37Z"/></svg>