<?xml version="1.0" encoding="UTF-8"?><svg id="Layer_1" xmlns="http://www.w3.org/2000/svg" viewBox="0 0 600 600"><defs><style></style></defs><g id="_517_Curriculum_Cv_Job_Portfolio"><path class="cls-1" d="m434.61,530.66H170.69c-20.67,0-37.36-16.5-37.36-36.93V114.95c0-20.43,16.7-36.93,37.36-36.93h221.79c2.39,0,4.77.78,7.16,3.14l69.16,68.37c1.59,1.57,3.18,4.72,3.18,7.08v337.12c0,19.65-17.49,36.93-37.36,36.93ZM170.69,98.45c-9.54,0-17.49,7.86-17.49,17.29v377.99c0,9.43,7.95,17.29,17.49,17.29h263.13c9.54,0,17.49-7.86,17.49-17.29V160.53l-63.6-62.87h-217.02v.78Z"/><path class="cls-1" d="m461.64,177.03h-42.14c-10.33,0-19.08-3.93-26.23-11-7.16-7.07-11.13-16.5-11.13-26.72v-51.08c0-5.5,4.77-9.43,9.54-9.43h0c5.56,0,9.54,4.72,9.54,10.22v51.08c0,4.72,1.59,8.65,4.77,12.57,3.18,3.14,7.95,4.71,12.72,4.71h42.93c5.56,0,10.33,4.72,10.33,10.22s-4.77,9.43-10.33,9.43Z"/><path class="cls-1" d="m223.15,186.46c-19.08,0-34.98-15.72-34.98-34.58s15.9-34.58,34.98-34.58,34.98,15.72,34.98,34.58-15.9,34.58-34.98,34.58Zm0-48.72c-7.95,0-15.1,6.29-15.1,14.93s6.36,14.93,15.1,14.93,15.11-6.29,15.11-14.93-7.16-14.93-15.11-14.93Z"/><path class="cls-1" d="m262.9,235.97c-5.56,0-10.33-4.71-10.33-10.21v-18.86c0-8.65-7.16-14.93-15.11-14.93h-29.41c-8.74,0-15.1,7.07-15.1,14.93v18.86c0,5.5-4.77,10.21-10.33,10.21s-10.34-4.71-10.34-10.21v-18.86c0-18.86,15.9-34.58,34.98-34.58h29.41c19.08,0,34.98,15.72,34.98,34.58v18.86c1.59,5.5-3.18,10.21-8.74,10.21Z"/><path class="cls-1" d="m352.73,196.68h-50.08c-5.56,0-10.34-4.71-10.34-10.21s4.77-10.21,10.34-10.21h50.08c5.56,0,10.33,4.71,10.33,10.21-.79,5.5-5.56,10.21-10.33,10.21Z"/><path class="cls-1" d="m372.61,225.75h-69.95c-5.56,0-10.34-4.72-10.34-10.21s4.77-10.22,10.34-10.22h69.95c5.56,0,10.33,4.72,10.33,10.22-.79,5.5-5.56,10.21-10.33,10.21Z"/><path class="cls-1" d="m302.65,530.66c-5.56,0-10.34-4.71-10.34-10.21v-235.75c0-5.5,4.77-10.21,10.34-10.21s10.33,4.71,10.33,10.21v235.75c0,5.5-4.77,10.21-10.33,10.21Z"/><path class="cls-1" d="m421.89,314.55h-39.75c-5.56,0-10.33-4.71-10.33-10.21s4.77-10.21,10.33-10.21h39.75c5.56,0,10.33,4.71,10.33,10.21s-4.77,10.21-10.33,10.21Z"/><path class="cls-1" d="m421.89,353.85h-79.5c-5.56,0-10.33-4.71-10.33-10.21s4.77-10.21,10.33-10.21h79.5c5.56,0,10.33,4.71,10.33,10.21s-4.77,10.21-10.33,10.21Z"/><path class="cls-1" d="m421.89,393.14h-79.5c-5.56,0-10.33-4.71-10.33-10.21s4.77-10.21,10.33-10.21h79.5c5.56,0,10.33,4.71,10.33,10.21s-4.77,10.21-10.33,10.21Z"/><path class="cls-1" d="m382.14,432.43h-39.75c-5.56,0-10.33-4.71-10.33-10.21s4.77-10.21,10.33-10.21h39.75c5.56,0,10.33,4.71,10.33,10.21s-4.77,10.21-10.33,10.21Z"/><path class="cls-1" d="m421.89,471.72h-79.5c-5.56,0-10.33-4.71-10.33-10.21s4.77-10.21,10.33-10.21h79.5c5.56,0,10.33,4.71,10.33,10.21s-4.77,10.21-10.33,10.21Z"/><path class="cls-1" d="m262.9,382.92h-79.49c-5.57,0-10.33-4.72-10.33-10.21v-39.29c0-5.5,4.77-10.22,10.33-10.22h79.49c5.56,0,10.33,4.72,10.33,10.22v39.29c0,5.5-4.77,10.21-10.33,10.21Zm-69.16-19.65h59.62v-19.65h-59.62v19.65Z"/><path class="cls-1" d="m262.9,461.51h-79.49c-5.57,0-10.33-4.72-10.33-10.21v-39.29c0-5.5,4.77-10.22,10.33-10.22h79.49c5.56,0,10.33,4.72,10.33,10.22v39.29c0,5.5-4.77,10.21-10.33,10.21Zm-69.16-19.65h59.62v-19.65h-59.62v19.65Z"/><path class="cls-1" d="m412.35,225.75h-10.34c-5.56,0-10.33-4.72-10.33-10.21s4.77-10.22,10.33-10.22h10.34c5.56,0,10.33,4.72,10.33,10.22-.79,5.5-5.56,10.21-10.33,10.21Z"/></g></svg>