<?xml version="1.0" encoding="UTF-8"?><svg id="Layer_1" xmlns="http://www.w3.org/2000/svg" viewBox="0 0 600 600"><defs><style>.cls-1{fill:#de7f43;}</style></defs><path class="cls-1" d="m225.64,236.23c-6.88,0-13.33-2.66-18.17-7.51h0c-10.02-10.02-10.02-26.32,0-36.34l82.8-82.8c10.02-10.02,26.32-10.02,36.34,0,10.02,10.02,10.02,26.32,0,36.34l-82.8,82.8c-4.84,4.84-11.29,7.51-18.17,7.51Zm82.8-121.81c-3.41,0-6.83,1.3-9.43,3.9l-82.8,82.8c-5.2,5.2-5.2,13.66,0,18.86h0c5.01,5.01,13.85,5.01,18.86,0l82.8-82.8c2.5-2.5,3.88-5.85,3.88-9.43s-1.38-6.93-3.88-9.43c-2.6-2.6-6.02-3.9-9.43-3.9Z"/><path class="cls-1" d="m225.64,237.23c-7.15,0-13.85-2.77-18.88-7.8-5.04-5.04-7.81-11.74-7.81-18.88s2.77-13.84,7.81-18.88l82.8-82.8c10.41-10.41,27.34-10.41,37.75,0s10.41,27.35,0,37.76l-82.8,82.8c-5.03,5.03-11.73,7.8-18.88,7.8Zm82.8-134.16c-6.32,0-12.65,2.41-17.46,7.22l-82.8,82.8c-4.66,4.66-7.22,10.86-7.22,17.46s2.57,12.81,7.22,17.46c4.65,4.65,10.85,7.21,17.46,7.21s12.82-2.56,17.47-7.21l82.8-82.8c4.66-4.66,7.22-10.86,7.22-17.46s-2.57-12.81-7.22-17.46-11.14-7.22-17.46-7.22Zm-82.81,121.67c-3.72,0-7.44-1.35-10.13-4.05-5.59-5.59-5.59-14.68,0-20.27l82.8-82.8c2.7-2.7,6.3-4.19,10.14-4.19s7.43,1.49,10.14,4.19,4.18,6.29,4.18,10.14-1.48,7.44-4.18,10.14l-82.8,82.8c-2.71,2.7-6.43,4.05-10.14,4.05Zm82.81-109.32c-3.3,0-6.4,1.28-8.72,3.61l-82.8,82.8c-4.81,4.81-4.81,12.64,0,17.44,4.64,4.65,12.79,4.65,17.45,0l82.8-82.8c2.32-2.32,3.59-5.41,3.59-8.72s-1.28-6.41-3.59-8.73c-2.33-2.33-5.42-3.61-8.72-3.61Z"/><path class="cls-1" d="m207.24,202.6c-4.62,0-9.25-1.76-12.77-5.28l-1.6-1.6c-3.4-3.4-5.28-7.94-5.28-12.77s1.88-9.37,5.28-12.77l75.2-75.2c7.04-7.04,18.5-7.04,25.54,0l1.6,1.6c7.05,7.05,7.05,18.5,0,25.54l-75.21,75.21c-3.52,3.52-8.15,5.28-12.77,5.28Zm73.6-100.55c-1.46,0-2.92.56-4.03,1.67l-75.2,75.21c-1.07,1.07-1.65,2.5-1.65,4.03s.59,2.96,1.65,4.03l1.6,1.6c2.22,2.22,5.84,2.22,8.06,0l75.21-75.21c2.22-2.22,2.22-5.84,0-8.06l-1.6-1.6c-1.11-1.11-2.58-1.67-4.03-1.67Z"/><path class="cls-1" d="m207.24,203.6c-5.1,0-9.88-1.98-13.48-5.57l-1.6-1.6c-3.59-3.59-5.57-8.38-5.57-13.48s1.98-9.89,5.57-13.48l75.2-75.2c3.59-3.6,8.38-5.58,13.48-5.58s9.88,1.98,13.48,5.58l1.6,1.6c3.6,3.6,5.58,8.38,5.58,13.48,0,5.1-1.98,9.88-5.57,13.48l-75.21,75.21c-3.59,3.59-8.38,5.57-13.48,5.57Zm73.6-112.91c-4.56,0-8.84,1.77-12.06,4.99l-75.2,75.2c-3.21,3.21-4.98,7.5-4.98,12.07s1.77,8.85,4.98,12.06l1.6,1.6c3.22,3.22,7.5,4.99,12.06,4.99s8.85-1.77,12.06-4.99l75.21-75.21c3.22-3.22,4.99-7.5,4.99-12.06,0-4.56-1.77-8.85-4.99-12.07l-1.6-1.6c-3.22-3.22-7.5-4.99-12.06-4.99Zm-73.6,100.55c-1.72,0-3.43-.65-4.74-1.96l-1.6-1.6c-1.26-1.25-1.95-2.94-1.95-4.74s.69-3.48,1.95-4.74l75.2-75.21c1.26-1.26,2.95-1.96,4.74-1.96s3.47.7,4.74,1.96l1.6,1.6c2.61,2.61,2.61,6.86,0,9.47l-75.21,75.21c-1.31,1.31-3.02,1.96-4.74,1.96Zm73.6-88.2c-1.26,0-2.44.49-3.32,1.37l-75.2,75.21c-.88.88-1.36,2.06-1.36,3.32s.48,2.44,1.36,3.32l1.6,1.6c1.83,1.83,4.81,1.83,6.64,0l75.21-75.21c1.83-1.83,1.83-4.81,0-6.64l-1.6-1.6c-.89-.89-2.07-1.38-3.33-1.38Z"/><path class="cls-1" d="m354.45,365.04c-6.58,0-13.16-2.5-18.17-7.51h0c-4.84-4.84-7.51-11.29-7.51-18.17s2.66-13.33,7.51-18.17l82.8-82.8c10.02-10.02,26.32-10.02,36.34,0,10.02,10.02,10.02,26.32,0,36.34l-82.8,82.8c-5.01,5.01-11.59,7.51-18.17,7.51Zm82.8-121.8c-3.58,0-6.93,1.38-9.43,3.88l-82.8,82.8c-2.5,2.51-3.88,5.86-3.88,9.43s1.38,6.93,3.88,9.43h0c5.2,5.2,13.66,5.2,18.86,0l82.8-82.8c5.2-5.2,5.2-13.66,0-18.86-2.5-2.5-5.85-3.88-9.43-3.88Z"/><path class="cls-1" d="m354.45,366.04c-7.14,0-13.84-2.77-18.88-7.81-5.03-5.02-7.8-11.73-7.8-18.88s2.77-13.85,7.8-18.88l82.8-82.8c5.03-5.04,11.74-7.81,18.88-7.81h0c7.14,0,13.84,2.77,18.88,7.81,5.04,5.04,7.81,11.74,7.81,18.88s-2.77,13.84-7.81,18.88l-82.8,82.8c-5.03,5.03-11.74,7.81-18.88,7.81Zm82.8-134.17c-6.6,0-12.81,2.57-17.46,7.22l-82.8,82.8c-4.65,4.65-7.21,10.85-7.21,17.47s2.56,12.82,7.21,17.46c4.66,4.66,10.86,7.22,17.46,7.22s12.81-2.56,17.46-7.22l82.8-82.8c9.63-9.63,9.63-25.3,0-34.92-4.66-4.66-10.86-7.22-17.46-7.22h0Zm-82.8,121.82c-3.83,0-7.43-1.49-10.14-4.19-2.69-2.69-4.18-6.29-4.18-10.14s1.48-7.44,4.17-10.14l82.8-82.8c2.69-2.69,6.29-4.18,10.14-4.18s7.45,1.48,10.14,4.18c5.59,5.59,5.59,14.68,0,20.27l-82.8,82.8c-2.7,2.7-6.3,4.19-10.14,4.19Zm82.8-109.44c-3.31,0-6.41,1.28-8.72,3.59l-82.8,82.8c-2.31,2.32-3.59,5.42-3.59,8.73s1.27,6.41,3.59,8.72c4.81,4.81,12.63,4.81,17.44,0l82.8-82.8c4.81-4.81,4.81-12.64,0-17.44-2.32-2.31-5.41-3.59-8.73-3.59Z"/><path class="cls-1" d="m382.05,377.41c-4.62,0-9.25-1.76-12.77-5.28l-1.61-1.61c-7.04-7.04-7.03-18.5,0-25.53l75.21-75.21c7.04-7.04,18.5-7.04,25.54,0l1.61,1.61c3.4,3.39,5.27,7.93,5.27,12.77s-1.88,9.37-5.28,12.77l-75.21,75.21c-3.52,3.52-8.15,5.28-12.77,5.28Zm73.61-100.56c-1.46,0-2.92.56-4.03,1.67l-75.21,75.21c-2.22,2.22-2.22,5.84,0,8.06,0,0,0,0,0,0l1.6,1.61c2.22,2.21,5.83,2.22,8.05,0l75.21-75.21c1.07-1.07,1.65-2.5,1.65-4.03s-.59-2.96-1.65-4.02l-1.61-1.61c-1.11-1.11-2.56-1.66-4.02-1.66Z"/><path class="cls-1" d="m382.05,378.41c-5.09,0-9.88-1.98-13.48-5.57l-1.61-1.62c-7.42-7.43-7.42-19.52,0-26.95l75.21-75.21c3.59-3.6,8.38-5.58,13.48-5.58s9.88,1.98,13.48,5.58l1.61,1.61c3.59,3.58,5.56,8.37,5.56,13.47s-1.98,9.88-5.57,13.48l-75.21,75.21c-3.59,3.59-8.38,5.57-13.48,5.57Zm73.6-112.91c-4.56,0-8.84,1.77-12.06,4.99l-75.21,75.21c-6.65,6.65-6.65,17.47,0,24.12l1.61,1.62c3.21,3.21,7.5,4.98,12.06,4.98s8.85-1.77,12.06-4.99l75.21-75.21c3.21-3.21,4.98-7.5,4.98-12.06s-1.77-8.85-4.98-12.06l-1.61-1.61c-3.22-3.22-7.5-4.99-12.06-4.99Zm-73.6,100.55c-1.71,0-3.43-.65-4.73-1.95l-1.61-1.61h-.01s-.27-.31-.27-.31c-2.32-2.63-2.22-6.65.29-9.16l75.21-75.21c1.26-1.26,2.95-1.96,4.74-1.96s3.46.69,4.73,1.95l1.61,1.62c1.25,1.25,1.94,2.93,1.94,4.73s-.69,3.48-1.95,4.74l-75.21,75.21c-1.3,1.3-3.02,1.96-4.73,1.96Zm-4.63-4.68l1.31,1.31c1.83,1.82,4.81,1.82,6.64,0l75.21-75.21c.88-.88,1.36-2.06,1.36-3.32s-.48-2.44-1.36-3.32l-1.61-1.62c-.88-.88-2.06-1.37-3.31-1.37s-2.44.49-3.33,1.37l-75.21,75.21c-1.74,1.74-1.83,4.51-.27,6.35h.56v.59Z"/><path class="cls-1" d="m345.25,327.14c-1.58,0-3.16-.6-4.37-1.81l-101.2-101.2c-2.41-2.41-2.41-6.33,0-8.74l73.6-73.6c2.41-2.41,6.33-2.41,8.74,0l101.2,101.2c2.41,2.41,2.41,6.33,0,8.74l-73.6,73.6c-1.21,1.21-2.79,1.81-4.37,1.81Zm-92.46-107.38l92.46,92.46,64.86-64.86-92.46-92.46-64.86,64.86Z"/><path class="cls-1" d="m345.25,328.14c-1.92,0-3.72-.75-5.08-2.1l-101.2-101.2c-1.36-1.36-2.1-3.16-2.1-5.08s.75-3.72,2.1-5.08l73.6-73.6c1.36-1.36,3.16-2.1,5.08-2.1s3.72.75,5.08,2.1l101.2,101.2c1.36,1.36,2.1,3.16,2.1,5.08s-.75,3.72-2.1,5.08l-73.6,73.6c-1.36,1.36-3.16,2.1-5.08,2.1Zm-27.6-187.17c-1.38,0-2.68.54-3.66,1.52l-73.6,73.6c-.98.98-1.52,2.28-1.52,3.66s.54,2.68,1.52,3.66l101.2,101.2c.98.98,2.28,1.52,3.66,1.52s2.68-.54,3.66-1.52l73.6-73.6c.98-.98,1.52-2.28,1.52-3.66s-.54-2.68-1.52-3.66l-101.2-101.2c-.98-.98-2.28-1.52-3.66-1.52Zm27.6,172.66l-93.88-93.88,66.27-66.27,93.88,93.88-66.27,66.27Zm-91.05-93.88l91.05,91.05,63.45-63.45-91.05-91.05-63.45,63.45Z"/><path class="cls-1" d="m255.54,329.44c-1.58,0-3.16-.6-4.37-1.81l-13.8-13.8c-2.41-2.41-2.41-6.33,0-8.74l46-46c2.41-2.41,6.33-2.41,8.74,0l13.8,13.8c2.41,2.41,2.41,6.33,0,8.74l-46,46c-1.21,1.21-2.79,1.81-4.37,1.81Zm-5.06-19.98l5.06,5.06,37.26-37.26-5.06-5.06-37.26,37.26Z"/><path class="cls-1" d="m255.54,330.44c-1.92,0-3.72-.75-5.08-2.1l-13.8-13.8c-2.8-2.8-2.8-7.36,0-10.16l46-46c2.8-2.8,7.36-2.8,10.15,0l13.8,13.8c2.8,2.8,2.8,7.36,0,10.16l-46,46c-1.36,1.36-3.16,2.1-5.08,2.1Zm32.2-72.16c-1.38,0-2.68.54-3.66,1.52l-46,46c-2.02,2.02-2.02,5.31,0,7.33l13.8,13.8c.98.98,2.28,1.52,3.66,1.52s2.68-.54,3.66-1.52l46-46c2.02-2.02,2.02-5.31,0-7.33l-13.8-13.8c-.98-.98-2.28-1.52-3.66-1.52Zm-32.2,57.66l-6.47-6.47,38.67-38.68,6.47,6.47-38.67,38.68Zm-3.64-6.47l3.64,3.64,35.85-35.85-3.64-3.64-35.85,35.85Z"/><path class="cls-1" d="m123.29,473.19h0c-1.64,0-3.21-.65-4.37-1.81l-25.3-25.3c-2.41-2.41-2.41-6.33,0-8.74l128.81-128.8c2.41-2.41,6.33-2.41,8.74,0l25.3,25.3c2.41,2.41,2.41,6.33,0,8.74l-128.81,128.81c-1.16,1.16-2.73,1.81-4.37,1.81Zm-16.56-31.49l16.56,16.56,120.07-120.07-16.56-16.56-120.07,120.06Z"/><path class="cls-1" d="m123.29,474.19c-1.89,0-3.74-.77-5.08-2.1l-25.3-25.3c-2.8-2.8-2.8-7.36,0-10.16l128.81-128.8c1.36-1.36,3.16-2.1,5.08-2.1s3.72.75,5.08,2.1l25.3,25.3c1.36,1.36,2.1,3.16,2.1,5.08s-.75,3.72-2.1,5.08l-128.81,128.81c-1.34,1.34-3.19,2.1-5.08,2.1Zm103.5-166.47c-1.38,0-2.68.54-3.66,1.52l-128.81,128.8c-2.02,2.02-2.02,5.31,0,7.33l25.3,25.3c.96.96,2.3,1.52,3.66,1.52s2.7-.55,3.66-1.52l128.81-128.81c.98-.98,1.52-2.28,1.52-3.66s-.54-2.68-1.52-3.66l-25.3-25.3c-.98-.98-2.28-1.52-3.66-1.52Zm-103.5,151.96l-17.97-17.98,121.48-121.47,17.97,17.97-121.48,121.48Zm-15.15-17.98l15.15,15.15,118.65-118.65-15.15-15.15-118.65,118.65Z"/><path class="cls-1" d="m262.44,352.04c-3.25,0-6.5-1.24-8.97-3.71l-36.8-36.8c-4.95-4.95-4.95-12.99,0-17.94,4.78-4.78,13.17-4.78,17.94,0l36.8,36.8c2.39,2.39,3.71,5.57,3.71,8.97s-1.32,6.58-3.71,8.97c-2.47,2.47-5.72,3.71-8.97,3.71Zm-36.8-49.79c-.09,0-.18.03-.23.08-.12.12-.12.34,0,.46l36.8,36.8c.12.12.34.12.46,0,.1-.11.11-.35,0-.45l-36.81-36.81s0,0,0,0c-.05-.05-.14-.08-.22-.08Z"/><path class="cls-1" d="m262.44,353.04c-3.66,0-7.1-1.42-9.68-4l-36.8-36.8c-2.58-2.58-4-6.02-4-9.68s1.42-7.1,4-9.68c2.47-2.46,6-3.88,9.68-3.88h0c3.69,0,7.21,1.42,9.68,3.88l36.8,36.8c2.58,2.58,4,6.01,4,9.68s-1.42,7.09-4,9.68c-2.58,2.58-6.01,4-9.68,4Zm-36.8-62.04c-3.16,0-6.17,1.2-8.27,3.29-2.2,2.2-3.42,5.14-3.42,8.26s1.21,6.06,3.42,8.26l36.8,36.8c2.2,2.2,5.14,3.42,8.26,3.42s6.06-1.21,8.26-3.42c2.21-2.21,3.42-5.14,3.42-8.26s-1.21-6.06-3.42-8.26l-36.8-36.8c-2.09-2.09-5.1-3.3-8.26-3.3h0Zm36.79,49.68c-.34,0-.67-.13-.93-.38l-36.81-36.81c-.51-.51-.51-1.36,0-1.87.41-.37.97-.46,1.41-.3h.17l37.1,37.1c.49.51.49,1.35.01,1.85-.27.27-.62.4-.96.4Z"/><path class="cls-1" d="m483.63,510.3h-110.29c-13.54,0-24.56-11.02-24.56-24.56s11.02-24.56,24.56-24.56h110.29c13.54,0,24.56,11.02,24.56,24.56s-11.02,24.56-24.56,24.56Zm-110.29-36.76c-6.72,0-12.2,5.47-12.2,12.2s5.47,12.2,12.2,12.2h110.29c6.72,0,12.2-5.47,12.2-12.2s-5.47-12.2-12.2-12.2h-110.29Z"/><path class="cls-1" d="m483.63,511.3h-110.29c-14.09,0-25.56-11.47-25.56-25.56s11.47-25.56,25.56-25.56h110.29c14.09,0,25.56,11.47,25.56,25.56s-11.47,25.56-25.56,25.56Zm-110.29-49.12c-12.99,0-23.56,10.57-23.56,23.56s10.57,23.56,23.56,23.56h110.29c12.99,0,23.56-10.57,23.56-23.56s-10.57-23.56-23.56-23.56h-110.29Zm110.29,36.76h-110.29c-7.28,0-13.2-5.92-13.2-13.2s5.92-13.2,13.2-13.2h110.29c7.28,0,13.2,5.92,13.2,13.2s-5.92,13.2-13.2,13.2Zm-110.29-24.4c-6.17,0-11.2,5.03-11.2,11.2s5.02,11.2,11.2,11.2h110.29c6.17,0,11.2-5.02,11.2-11.2s-5.02-11.2-11.2-11.2h-110.29Z"/><path class="cls-1" d="m478.58,473.54h-100.17c-9.57,0-17.36-7.79-17.36-17.36v-2.14c0-9.58,7.79-17.37,17.36-17.37h100.17c9.57,0,17.36,7.79,17.36,17.37v2.14c0,9.57-7.79,17.36-17.36,17.36Zm-100.17-24.51c-2.76,0-5,2.25-5,5.01v2.14c0,2.76,2.25,5,5,5h100.17c2.76,0,5-2.25,5-5v-2.14c0-2.76-2.25-5.01-5-5.01h-100.17Z"/><path class="cls-1" d="m478.58,474.54h-100.17c-10.13,0-18.36-8.24-18.36-18.36v-2.14c0-10.13,8.24-18.37,18.36-18.37h100.17c10.13,0,18.37,8.24,18.37,18.37v2.14c0,10.13-8.24,18.36-18.37,18.36Zm-100.17-36.87c-9.02,0-16.36,7.34-16.36,16.37v2.14c0,9.02,7.34,16.36,16.36,16.36h100.17c9.02,0,16.37-7.34,16.37-16.36v-2.14c0-9.03-7.34-16.37-16.37-16.37h-100.17Zm100.17,24.51h-100.17c-3.31,0-6-2.69-6-6v-2.14c0-3.31,2.69-6.01,6-6.01h100.17c3.31,0,6,2.69,6,6.01v2.14c0,3.31-2.69,6-6,6Zm-100.17-12.15c-2.21,0-4,1.8-4,4.01v2.14c0,2.21,1.79,4,4,4h100.17c2.21,0,4-1.79,4-4v-2.14c0-2.21-1.79-4.01-4-4.01h-100.17Z"/></svg>