<?xml version="1.0" encoding="UTF-8"?><svg id="Layer_1" xmlns="http://www.w3.org/2000/svg" viewBox="0 0 600 600"><defs><style>.cls-1{fill:#de7f43;}</style></defs><path class="cls-1" d="m164.02,410.09c-1.13,0-2.27-.25-3.33-.76-2.66-1.28-4.35-3.97-4.35-6.92v-48.23h-25.49c-33.34,0-60.47-27.57-60.47-61.45v-124.59c0-33.89,27.13-61.45,60.47-61.45h206.52c33.34,0,60.47,27.57,60.47,61.45v124.59c0,33.89-27.13,61.45-60.47,61.45h-100.57l-67.99,54.24c-1.39,1.11-3.08,1.68-4.79,1.68Zm-33.17-288.04c-24.87,0-45.11,20.68-45.11,46.09v124.59c0,25.41,20.24,46.09,45.11,46.09h33.17c4.24,0,7.68,3.44,7.68,7.68v39.96l57.62-45.96c1.36-1.08,3.05-1.68,4.79-1.68h103.26c24.87,0,45.11-20.68,45.11-46.09v-124.59c0-25.41-20.23-46.09-45.11-46.09h-206.52Z"/><path class="cls-1" d="m164.02,412.59c-1.52,0-3.04-.35-4.41-1.01-3.5-1.68-5.76-5.29-5.76-9.17v-45.73h-22.99c-34.72,0-62.97-28.69-62.97-63.95v-124.59c0-35.26,28.25-63.95,62.97-63.95h206.52c34.72,0,62.97,28.69,62.97,63.95v124.59c0,35.26-28.25,63.95-62.97,63.95h-99.69l-67.31,53.69c-1.79,1.43-4.05,2.22-6.35,2.22Zm-33.17-303.41c-31.97,0-57.97,26.45-57.97,58.95v124.59c0,32.51,26.01,58.95,57.97,58.95h27.99v50.73c0,1.98,1.15,3.81,2.93,4.67,1.77.85,3.96.6,5.48-.62l68.67-54.78h101.44c31.96,0,57.97-26.45,57.97-58.95v-124.59c0-32.51-26.01-58.95-57.97-58.95h-206.52Zm38.35,282.46v-45.15c0-2.86-2.32-5.18-5.18-5.18h-33.17c-26.25,0-47.61-21.8-47.61-48.59v-124.59c0-26.79,21.36-48.59,47.61-48.59h206.52c26.25,0,47.61,21.8,47.61,48.59v124.59c0,26.79-21.36,48.59-47.61,48.59h-103.26c-1.17,0-2.32.4-3.23,1.13l-61.68,49.2Zm-38.35-267.1c-23.49,0-42.61,19.56-42.61,43.59v124.59c0,24.04,19.11,43.59,42.61,43.59h33.17c5.61,0,10.18,4.57,10.18,10.18v34.77l53.56-42.72c1.8-1.43,4.05-2.22,6.35-2.22h103.26c23.49,0,42.61-19.55,42.61-43.59v-124.59c0-24.04-19.11-43.59-42.61-43.59h-206.52Z"/><path class="cls-1" d="m449.35,493.31c-1.71,0-3.4-.57-4.79-1.68l-57.09-45.54h-84.51c-28.82,0-52.26-23.82-52.26-53.09v-17.3h15.36v17.3c0,20.8,16.55,37.73,36.9,37.73h87.2c1.74,0,3.43.59,4.79,1.68l46.72,37.27v-31.26c0-4.24,3.44-7.68,7.68-7.68h28.01c20.35,0,36.9-16.93,36.9-37.73v-105.21c0-20.8-16.55-37.73-36.9-37.73h-61.65v-15.36h61.65c28.82,0,52.26,23.82,52.26,53.09v105.21c0,29.28-23.44,53.09-52.26,53.09h-20.33v39.54c0,2.95-1.69,5.64-4.35,6.92-1.06.51-2.2.76-3.33.76Z"/><path class="cls-1" d="m449.35,495.81c-2.3,0-4.55-.79-6.35-2.22l-56.41-45h-83.64c-30.19,0-54.76-24.94-54.76-55.59v-19.8h20.36v19.8c0,19.43,15.43,35.23,34.4,35.23h87.2c2.29,0,4.55.79,6.35,2.22l42.66,34.03v-26.07c0-5.61,4.57-10.18,10.18-10.18h28.01c18.97,0,34.4-15.8,34.4-35.23v-105.21c0-19.43-15.43-35.23-34.4-35.23h-64.15v-20.36h64.15c30.2,0,54.76,24.94,54.76,55.59v105.21c0,30.65-24.57,55.59-54.76,55.59h-17.83v37.04c0,3.89-2.26,7.49-5.77,9.17-1.37.66-2.9,1.01-4.41,1.01Zm-196.16-117.62v14.8c0,27.9,22.32,50.59,49.76,50.59h85.39l57.77,46.09c1.52,1.21,3.72,1.46,5.48.62,1.79-.86,2.94-2.69,2.94-4.67v-42.04h22.83c27.44,0,49.76-22.7,49.76-50.59v-105.21c0-27.9-22.32-50.59-49.76-50.59h-59.15v10.36h59.15c21.72,0,39.4,18.05,39.4,40.23v105.21c0,22.18-17.67,40.23-39.4,40.23h-28.01c-2.86,0-5.18,2.32-5.18,5.18v36.46l-50.78-40.51c-.92-.73-2.06-1.13-3.23-1.13h-87.2c-21.72,0-39.4-18.05-39.4-40.23v-14.8h-10.36Z"/><path class="cls-1" d="m170.07,238.86c-2.04,0-3.96-.81-5.42-2.23-1.46-1.46-2.27-3.38-2.27-5.45,0-.5.08-1,.15-1.5.11-.5.23-.96.42-1.42.19-.46.46-.92.73-1.34.27-.42.61-.81.96-1.16,2.84-2.88,7.99-2.88,10.83,0,1.46,1.42,2.27,3.42,2.27,5.42s-.81,3.99-2.27,5.45c-.69.69-1.54,1.27-2.46,1.65-.96.38-1.92.57-2.96.57Z"/><path class="cls-1" d="m170.07,241.36c-2.67,0-5.22-1.04-7.16-2.94-1.96-1.96-3.02-4.52-3.02-7.24,0-.69.1-1.32.18-1.88l.03-.18c.12-.54.28-1.17.55-1.82.22-.53.51-1.08.93-1.73.41-.65.9-1.18,1.29-1.57,1.82-1.84,4.44-2.9,7.19-2.9h0c2.75,0,5.37,1.06,7.19,2.9,1.89,1.83,2.99,4.46,2.99,7.17s-1.07,5.29-3,7.22c-.92.92-2.05,1.68-3.26,2.19-1.31.52-2.58.77-3.92.77Zm-5.07-11.21c-.06.38-.11.74-.11,1.02,0,1.41.53,2.68,1.53,3.69.98.96,2.29,1.5,3.65,1.5.71,0,1.35-.13,2.03-.4.57-.24,1.14-.62,1.61-1.09,1.01-1.01,1.54-2.28,1.54-3.69s-.56-2.7-1.51-3.62c-.92-.94-2.25-1.45-3.67-1.45h0c-1.42,0-2.75.52-3.64,1.42-.19.2-.47.48-.63.74-.26.4-.43.71-.53.96-.11.25-.18.54-.28.94Z"/><path class="cls-1" d="m234.09,238.86c-2.03,0-3.95-.81-5.42-2.23-1.46-1.46-2.27-3.38-2.27-5.45s.85-3.99,2.27-5.42c.35-.34.73-.69,1.15-.96.42-.27.88-.5,1.34-.69.46-.19.96-.34,1.42-.46,2.5-.5,5.15.31,6.95,2.11,1.42,1.42,2.23,3.42,2.23,5.42s-.77,3.99-2.23,5.45c-1.46,1.42-3.38,2.23-5.45,2.23Z"/><path class="cls-1" d="m234.09,241.36c-2.67,0-5.21-1.04-7.16-2.94-1.96-1.96-3.02-4.52-3.02-7.25s1.09-5.28,3-7.18c.36-.36.91-.88,1.58-1.3.52-.33,1.1-.63,1.72-.89.53-.22,1.12-.41,1.77-.58l.13-.03c3.3-.66,6.83.41,9.21,2.8,1.88,1.88,2.96,4.5,2.96,7.18s-1.05,5.31-2.96,7.22c-1.97,1.92-4.52,2.96-7.22,2.96Zm-.95-15.27c-.38.1-.73.21-1.01.33-.35.15-.68.32-.96.49-.26.16-.54.43-.73.62-.95.95-1.53,2.32-1.53,3.64,0,1.41.53,2.68,1.53,3.69.98.96,2.29,1.5,3.65,1.5s2.7-.54,3.71-1.52c.95-.96,1.47-2.23,1.47-3.66,0-1.35-.56-2.71-1.5-3.65-1.2-1.2-2.97-1.75-4.63-1.44Z"/><path class="cls-1" d="m298.16,238.86c-1.04,0-2.04-.19-2.96-.57-.92-.39-1.77-.96-2.5-1.65-1.46-1.46-2.27-3.38-2.27-5.45s.85-3.99,2.27-5.42c.35-.34.77-.69,1.15-.96.42-.27.88-.5,1.34-.69.46-.19.96-.34,1.42-.46,1-.19,2.04-.19,3.03,0,.46.12.96.27,1.42.46.46.19.92.42,1.34.69.42.27.81.62,1.15.96,1.42,1.42,2.23,3.42,2.23,5.42s-.77,3.99-2.23,5.45c-1.46,1.42-3.38,2.23-5.41,2.23Z"/><path class="cls-1" d="m298.16,241.36c-1.38,0-2.69-.26-3.92-.76-1.18-.5-2.28-1.22-3.26-2.15-1.98-1.98-3.05-4.54-3.05-7.27s1.09-5.28,3-7.18c.44-.44.96-.87,1.49-1.24l.1-.07c.53-.33,1.1-.63,1.72-.89.52-.21,1.11-.41,1.76-.57l.15-.03c1.32-.25,2.65-.25,3.97,0l.15.03c.64.16,1.24.36,1.76.58.62.25,1.2.55,1.72.89.53.34,1.03.75,1.58,1.31,1.88,1.88,2.96,4.5,2.96,7.18s-1.05,5.31-2.96,7.22c-1.97,1.92-4.51,2.96-7.18,2.96Zm-2.92-14.47c-.27.2-.56.44-.78.65-.95.95-1.53,2.32-1.53,3.64,0,1.41.53,2.68,1.53,3.69.49.47,1.08.86,1.7,1.12.6.25,1.28.38,1.99.38,1.36,0,2.66-.54,3.67-1.52.96-.96,1.47-2.23,1.47-3.66,0-1.35-.56-2.71-1.5-3.65-.29-.29-.53-.49-.73-.62-.27-.17-.61-.34-.96-.49-.28-.12-.63-.23-1-.33-.64-.11-1.31-.11-1.95,0-.38.1-.72.21-1,.33-.33.14-.65.3-.92.46Z"/><path class="cls-1" d="m444.02,362.1c-2.04,0-3.99-.81-5.42-2.27-.38-.35-.69-.73-1-1.15-.27-.42-.5-.88-.69-1.31-.19-.46-.34-.96-.42-1.46-.12-.5-.15-1-.15-1.5s.04-1,.15-1.5c.08-.5.23-.96.42-1.42.2-.5.46-.92.73-1.34.27-.42.58-.81.96-1.15,2.84-2.88,7.99-2.88,10.83,0,.38.34.69.73.96,1.15.27.42.54.84.73,1.34.19.46.31.92.42,1.42.12.5.15,1,.15,1.5s-.04,1-.15,1.5c-.08.5-.23,1-.42,1.46-.19.42-.42.88-.73,1.31-.27.42-.58.81-.96,1.15-1.42,1.46-3.38,2.27-5.42,2.27Z"/><path class="cls-1" d="m444.02,364.6c-2.68,0-5.29-1.08-7.15-2.96-.55-.51-.96-1.03-1.28-1.48l-.09-.13c-.29-.46-.56-.97-.86-1.6-.31-.74-.5-1.4-.61-2.03-.13-.61-.2-1.25-.2-1.97s.06-1.36.2-1.97c.1-.61.28-1.22.57-1.91.26-.65.6-1.22.94-1.74.39-.62.83-1.14,1.33-1.61,1.82-1.81,4.42-2.85,7.14-2.85s5.33,1.04,7.14,2.85c.5.46.94.99,1.34,1.61.3.48.67,1.06.95,1.79.24.58.39,1.18.52,1.75.15.64.22,1.31.22,2.07s-.07,1.37-.2,1.98c-.11.63-.3,1.28-.57,1.94-.24.53-.54,1.14-.97,1.75-.39.59-.81,1.1-1.29,1.54-1.87,1.89-4.47,2.96-7.15,2.96Zm-4.34-7.32c.24.33.42.54.6.7l.11.11c.94.96,2.26,1.51,3.63,1.51s2.69-.55,3.63-1.51l.11-.11c.19-.17.36-.38.53-.64l.08-.12c.19-.27.35-.6.47-.87.1-.24.19-.55.23-.82l.04-.18c.06-.26.09-.56.09-.93s-.03-.67-.09-.93c-.11-.46-.19-.76-.3-1.03-.13-.33-.31-.62-.53-.96-.17-.26-.34-.47-.53-.64l-.11-.1c-.89-.9-2.21-1.42-3.64-1.42s-2.75.52-3.64,1.42l-.11.1c-.19.17-.36.37-.53.64-.23.35-.4.64-.51.91-.16.39-.24.65-.28.88l-.04.19c-.06.26-.09.56-.09.93s.03.67.09.93l.04.2c.04.26.13.56.26.87.15.31.3.61.46.86Z"/><path class="cls-1" d="m386.41,362.1c-2.07,0-3.99-.81-5.45-2.27-.35-.35-.69-.73-.96-1.15-.27-.42-.5-.88-.69-1.31-.19-.46-.34-.96-.42-1.46-.12-.5-.15-1-.15-1.5s.04-1,.15-1.5c.08-.5.23-.96.42-1.42.2-.5.42-.92.69-1.34.31-.42.61-.81.96-1.15.38-.39.77-.69,1.19-.96.42-.27.84-.54,1.31-.73.46-.19.96-.34,1.46-.42,2.46-.5,5.15.31,6.92,2.12,1.42,1.42,2.27,3.38,2.27,5.41,0,.5-.08,1-.15,1.5-.12.5-.23,1-.42,1.46-.19.42-.46.88-.73,1.31-.27.42-.62.81-.96,1.15-.35.39-.73.69-1.16.96-.42.31-.88.54-1.34.73-.46.19-.92.35-1.42.42-.5.11-1,.15-1.5.15Z"/><path class="cls-1" d="m386.41,364.6c-2.72,0-5.29-1.06-7.22-3-.39-.39-.89-.92-1.31-1.59-.29-.45-.56-.96-.85-1.59l-.04-.09c-.27-.66-.46-1.31-.57-1.94-.13-.6-.2-1.25-.2-1.97s.06-1.36.2-1.97c.1-.61.28-1.21.57-1.9.22-.57.51-1.14.9-1.74l.08-.12c.42-.58.81-1.05,1.22-1.45.49-.5,1.03-.93,1.62-1.3.5-.32,1.04-.66,1.69-.93.66-.28,1.33-.47,1.97-.57,3.3-.65,6.8.43,9.15,2.83,1.88,1.88,2.98,4.5,2.98,7.16,0,.66-.09,1.26-.17,1.78l-.05.29c-.13.57-.28,1.2-.55,1.84-.29.66-.64,1.24-.92,1.67-.34.52-.74,1.01-1.27,1.55-.46.49-.97.92-1.56,1.3-.51.37-1.1.69-1.79.97-.69.29-1.3.47-1.91.57-.61.13-1.25.19-1.97.19Zm-4.81-8.22c.18.39.35.71.51.96.16.26.43.54.62.73,1,1,2.27,1.53,3.68,1.53.38,0,.68-.03.95-.09l.16-.03c.24-.04.51-.12.86-.27.34-.14.61-.29.82-.44l.15-.1c.26-.16.46-.33.63-.52l.09-.09c.29-.29.49-.53.62-.73.16-.26.41-.67.55-.98.08-.19.16-.53.25-.91.06-.43.11-.76.11-1.03,0-1.34-.56-2.67-1.53-3.64-1.19-1.21-3.01-1.77-4.65-1.43l-.11.02c-.27.04-.57.13-.89.26-.25.1-.56.3-.88.51-.31.2-.55.39-.79.63-.21.21-.42.46-.67.8-.19.3-.32.56-.43.84-.16.39-.24.65-.28.88l-.04.19c-.06.26-.09.55-.09.93s.03.67.09.93l.04.2c.04.25.12.53.24.83Z"/></svg>