<?xml version="1.0" encoding="UTF-8"?><svg id="Layer_1" xmlns="http://www.w3.org/2000/svg" viewBox="0 0 600 600"><defs><style>.cls-1{fill:#de7f43;fill-rule:evenodd;}</style></defs><path class="cls-1" d="m438.36,100.98h-77.2v-5.21c0-5.21-5.2-9.54-11.3-9.54h-99.73c-6.03,0-11.23,4.33-11.23,9.54v5.21h-76.37c-13.86,0-24.26,10.4-24.26,22.53v367.73c0,12.13,10.4,22.54,24.26,22.54h275.83c12.97,0,23.36-10.41,23.36-22.54V123.51c0-12.13-10.39-22.53-23.36-22.53Zm-3.46,387.64H165.17V126.13h73.73v2.6c0,6.08,5.2,10.41,11.23,10.41h99.73c6.1,0,11.3-4.33,11.3-10.41v-2.6h73.73v362.49Z"/><path class="cls-1" d="m259.69,279.62c0-13-10.4-23.4-23.42-23.4s-23.44,10.41-23.44,23.4,10.4,23.42,23.44,23.42,23.42-10.41,23.42-23.42h0Z"/><path class="cls-1" d="m369.82,266.62h-79.76c-7.83,0-13.03,6.07-13.03,13,0,7.81,5.2,13.88,13.03,13.88h79.76c7.82,0,13.86-6.06,13.86-13.88,0-6.93-6.03-13-13.86-13h0Z"/><path class="cls-1" d="m259.69,350.73c0-12.99-10.4-23.39-23.42-23.39s-23.44,10.4-23.44,23.39,10.4,23.43,23.44,23.43,23.42-10.4,23.42-23.43h0Z"/><path class="cls-1" d="m369.82,337.73h-79.76c-7.83,0-13.03,6.06-13.03,12.99,0,7.81,5.2,13.89,13.03,13.89h79.76c7.82,0,13.86-6.08,13.86-13.89,0-6.93-6.03-12.99-13.86-12.99h0Z"/><path class="cls-1" d="m259.69,213.71c0-13-10.4-23.41-23.42-23.41s-23.44,10.41-23.44,23.41,10.4,23.42,23.44,23.42,23.42-10.41,23.42-23.42h0Z"/><path class="cls-1" d="m259.69,420.12c0-13.02-10.4-23.41-23.42-23.41s-23.44,10.4-23.44,23.41,10.4,23.4,23.44,23.4,23.42-10.4,23.42-23.4h0Z"/><path class="cls-1" d="m369.82,406.23h-79.76c-7.83,0-13.03,6.07-13.03,13.88,0,6.94,5.2,13.01,13.03,13.01h79.76c7.82,0,13.86-6.06,13.86-13.01,0-7.82-6.03-13.88-13.86-13.88h0Z"/><path class="cls-1" d="m369.82,199.85h-79.76c-7.83,0-13.03,6.07-13.03,13.86,0,6.93,5.2,13.01,13.03,13.01h79.76c7.82,0,13.86-6.08,13.86-13.01,0-7.8-6.03-13.86-13.86-13.86h0Z"/></svg>