<svg width="48" height="48" viewBox="0 0 48 48" fill="none" xmlns="http://www.w3.org/2000/svg">
<g filter="url(#filter0_d_1642_2331)">
<rect x="5.25" y="1.25" width="37.5" height="37.5" rx="18.75" fill="white" stroke="#D77440" stroke-width="2.5"/>
<path d="M24.7803 21.3515H23.1136V20.375V18.2917V15.1667H24.7803V18.2917V20.375V21.3515ZM33.75 31.8333V13.0833C33.75 12.5104 33.5542 12.02 33.1625 11.612C32.7708 11.204 32.3 11 31.75 11H15.75C15.2 11 14.7292 11.204 14.3375 11.612C13.9458 12.02 13.75 12.5104 13.75 13.0833V25.5833C13.75 26.1563 13.9458 26.6467 14.3375 27.0547C14.7292 27.4627 15.2 27.6667 15.75 27.6667H29.75L33.75 31.8333ZM30.6 25.5833H15.75V13.0833H31.75V26.7552L30.6 25.5833Z" fill="#D77440"/>
<circle cx="23.9469" cy="23.4998" r="0.833333" fill="#D77440"/>
</g>
<defs>
<filter id="filter0_d_1642_2331" x="0" y="0" width="48" height="48" filterUnits="userSpaceOnUse" color-interpolation-filters="sRGB">
<feFlood flood-opacity="0" result="BackgroundImageFix"/>
<feColorMatrix in="SourceAlpha" type="matrix" values="0 0 0 0 0 0 0 0 0 0 0 0 0 0 0 0 0 0 127 0" result="hardAlpha"/>
<feOffset dy="4"/>
<feGaussianBlur stdDeviation="2"/>
<feComposite in2="hardAlpha" operator="out"/>
<feColorMatrix type="matrix" values="0 0 0 0 0 0 0 0 0 0 0 0 0 0 0 0 0 0 0.25 0"/>
<feBlend mode="normal" in2="BackgroundImageFix" result="effect1_dropShadow_1642_2331"/>
<feBlend mode="normal" in="SourceGraphic" in2="effect1_dropShadow_1642_2331" result="shape"/>
</filter>
</defs>
</svg>
