<?xml version="1.0" encoding="UTF-8"?><svg id="Layer_1" xmlns="http://www.w3.org/2000/svg" viewBox="0 0 600 600"><defs><style>.question-mark-icon{fill:#fff;}.cls-2{fill:#d6743f;}</style></defs><circle class="cls-2" cx="300" cy="300" r="251.06"/><path class="question-mark-icon" d="m256.09,345.96v-18.55c0-14.1,2.88-26,8.63-35.71,5.75-9.71,15.97-19.17,30.64-28.37,11.65-7.34,20.03-13.95,25.14-19.85,5.11-5.9,7.66-12.66,7.66-20.28,0-6.04-2.73-10.82-8.2-14.35-5.47-3.52-12.59-5.29-21.36-5.29-21.72,0-47.11,7.7-76.16,23.09l-29.99-58.68c35.81-20.42,73.21-30.64,112.19-30.64,32.08,0,57.25,7.05,75.51,21.14,18.27,14.1,27.4,33.3,27.4,57.61,0,17.4-4.06,32.47-12.19,45.2-8.13,12.73-21.11,24.78-38.94,36.14-15.1,9.78-24.56,16.94-28.37,21.47-3.81,4.53-5.72,9.89-5.72,16.07v11h-66.24Zm-9.28,75.51c0-13.23,3.85-23.45,11.54-30.64,7.7-7.19,19.02-10.79,33.98-10.79s25.42,3.63,33.12,10.9c7.7,7.26,11.54,17.44,11.54,30.53s-3.99,23.23-11.97,30.42c-7.98,7.19-18.88,10.79-32.69,10.79s-25.39-3.56-33.44-10.68c-8.05-7.12-12.08-17.3-12.08-30.53Z"/></svg>
