<?xml version="1.0" encoding="UTF-8"?><svg id="Layer_1" xmlns="http://www.w3.org/2000/svg" viewBox="0 0 600 600"><defs><style>.cls-1,.cls-2{fill:#de7f43;}.cls-2{stroke:#de7f43;stroke-miterlimit:10;}</style></defs><path class="cls-1" d="m401.76,505.1h-49.93c-8.54,0-15.94-5.78-18.01-14.06l-4.17-16.67c-11.04,1.35-22.14,2.04-33.12,2.04s-22.06-.56-33.21-1.67l-4.08,16.31c-2.07,8.28-9.48,14.06-18.01,14.06h-49.93c-10.24,0-18.57-8.33-18.57-18.57v-34.75c-13.54-6.06-25.48-13.02-35.68-20.82l-.14.41-6.53-5.84c-.92-.8-1.82-1.61-2.71-2.42l-.98-.88-21.15-18.97c-5.94-5.33-9.34-12.96-9.34-20.94v-32.65c0-13.81,9.89-25.48,23.5-27.75l6.98-1.16c3.55-21.74,12.45-40.96,26.52-57.3l-11.33-20.62c-2.69-4.89-3.04-10.68-.96-15.89,2.08-5.21,6.34-9.17,11.68-10.86,23.9-7.58,49.65-6.38,72.92,3.31,21.78-6.46,45.64-9.73,71-9.73,40.79,0,77.5,8.33,106.17,24.1,26.99,14.85,46.37,36.1,56.67,61.97.06-.11.12-.23.18-.35,2.61-5.22,3.03-11.14,1.19-16.66-1.84-5.54-5.73-10.02-10.94-12.62-10.34-5.17-14.54-17.78-9.38-28.11,2.5-5.02,6.81-8.76,12.13-10.53,5.31-1.77,10.99-1.36,16,1.15,15.22,7.61,26.57,20.7,31.95,36.85,5.39,16.16,4.16,33.44-3.45,48.66-6.11,12.23-16.31,21.58-28.92,26.58.03.75.04,1.52.04,2.31,0,40.58-16.52,74.36-47.83,97.98v45.52c0,10.24-8.33,18.57-18.57,18.57Zm-58.59-50.89l8.11,32.46c.06.25.29.43.55.43h49.93c.31,0,.57-.25.57-.57v-54.78l3.83-2.69c29.2-20.48,44-49.43,44-86.03,0-1.91-.15-3.84-.3-5.88-.06-.8-.12-1.6-.17-2.4l-.5-7.52,7.31-1.81c.48-.12.97-.23,1.46-.33.58-.13,1.14-.25,1.47-.36,9.43-3.14,17.07-9.76,21.5-18.65,5.47-10.92,6.34-23.32,2.48-34.92h0c-3.86-11.59-12.01-20.98-22.93-26.45-.91-.46-1.73-.34-2.25-.17-.43.14-1.23.53-1.71,1.49-.73,1.46-.14,3.24,1.32,3.97,9.52,4.76,16.61,12.94,19.97,23.03,3.36,10.08,2.59,20.87-2.16,30.39-3.71,7.41-10.07,12.96-17.93,15.62l-9.06,3.07-2.51-9.22c-14.55-53.37-70.48-85.23-149.61-85.23-24.79,0-47.96,3.33-68.85,9.9l-3.29,1.03-3.14-1.43c-20.02-9.11-42.47-10.5-63.21-3.92-.07.02-.29.09-.41.39-.11.28-.02.46.02.53l17.62,32.06-4.59,4.77c-15.43,16.05-24.53,35.74-27.03,58.53l-.74,6.78-20.24,3.37c-4.9.82-8.46,5.02-8.46,9.99v32.65c0,2.87,1.23,5.62,3.37,7.54l10.94,9.81.12-.36,10.26,9.64c11.77,11.09,27.34,20.71,46.3,28.59l5.54,2.31v46.67c0,.31.25.57.57.57h49.93c.26,0,.48-.18.55-.43l7.92-31.66,7.9.97c13.05,1.61,26.15,2.42,38.93,2.42s25.74-.99,38.53-2.95l8.1-1.24Z"/><circle class="cls-2" cx="176.52" cy="319.13" r="14.35"/><path class="cls-2" d="m350.77,268.68c-1.64,5.05-6.33,8.26-11.36,8.26-1.23,0-2.48-.19-3.7-.59-17.57-5.72-38.46-7.85-60.41-6.22-10.11.77-19.91,2.28-29.11,4.5-6.42,1.59-12.88-2.39-14.43-8.81-1.55-6.43,2.4-12.88,8.81-14.43,10.45-2.53,21.53-4.24,32.93-5.1,25.39-1.92,48.8.55,69.61,7.32,6.28,2.04,9.72,8.79,7.67,15.07Z"/><path class="cls-2" d="m301.32,103.9c-23.77,0-43.05,19.27-43.05,43.05s19.27,43.05,43.05,43.05,43.05-19.27,43.05-43.05-19.27-43.05-43.05-43.05Zm14.52,60.18c-2.42,2.22-5.61,3.61-9.57,4.17v8.88h-7.98v-8.94c-2.84-.44-5.57-1.22-8.19-2.34-2.62-1.12-4.93-2.52-6.93-4.2l4.26-8.58c2.12,1.88,4.63,3.42,7.53,4.62,2.9,1.2,5.47,1.8,7.71,1.8,1.64,0,2.93-.3,3.87-.9.94-.6,1.41-1.48,1.41-2.64,0-.96-.35-1.76-1.05-2.4-.7-.64-1.58-1.15-2.64-1.53-1.06-.38-2.55-.83-4.47-1.35-2.88-.8-5.26-1.61-7.14-2.43-1.88-.82-3.49-2.06-4.83-3.72-1.34-1.66-2.01-3.87-2.01-6.63,0-3.36,1.11-6.15,3.33-8.37s5.27-3.63,9.15-4.23v-8.52h7.98v8.4c2.4.28,4.74.81,7.02,1.59,2.28.78,4.32,1.75,6.12,2.91l-4.14,8.76c-2.24-1.32-4.63-2.4-7.17-3.24-2.54-.84-4.67-1.26-6.39-1.26-1.36,0-2.43.25-3.21.75-.78.5-1.17,1.23-1.17,2.19s.34,1.69,1.02,2.31c.68.62,1.52,1.12,2.52,1.5,1,.38,2.48.87,4.44,1.47,2.92.84,5.33,1.68,7.23,2.52,1.9.84,3.53,2.13,4.89,3.87,1.36,1.74,2.04,4.01,2.04,6.81,0,3.6-1.21,6.51-3.63,8.73Z"/></svg>