<?xml version="1.0" encoding="UTF-8"?><svg id="Layer_1" xmlns="http://www.w3.org/2000/svg" viewBox="0 0 600 600"><defs><style>.cls-1{fill:#de7f43;}</style></defs><path class="cls-1" d="m488.68,494.82H111.32c-11.36,0-21.53-5.87-27.21-15.71-5.68-9.84-5.68-21.58,0-31.42L272.79,120.89c5.68-9.84,15.85-15.71,27.21-15.71,11.36,0,21.53,5.87,27.21,15.71l188.68,326.8c5.68,9.84,5.68,21.58,0,31.42-5.68,9.84-15.85,15.71-27.21,15.71Zm-196.36-362.65L103.64,458.96c-2.31,4-.77,7.54,0,8.87.77,1.33,3.06,4.44,7.68,4.44h377.35c4.62,0,6.91-3.1,7.68-4.44.77-1.33,2.31-4.87,0-8.87l-188.68-326.8c-2.31-4-6.14-4.44-7.68-4.44-1.54,0-5.37.43-7.68,4.44h0Z"/><path class="cls-1" d="m300,233.63h0c16.53,0,29.35,14.44,27.38,30.85l-12.12,101.32c-.93,7.77-7.52,13.62-15.35,13.62h0c-7.84,0-14.43-5.86-15.35-13.65l-11.96-101.34c-1.93-16.4,10.88-30.81,27.39-30.81Z"/><path class="cls-1" d="m284.37,428.66c-4.25-4.25-6.38-9.46-6.38-15.63s2.13-11.38,6.38-15.63c4.25-4.25,9.46-6.37,15.63-6.37s11.38,2.13,15.63,6.37c4.25,4.25,6.37,9.46,6.37,15.63s-2.12,11.38-6.37,15.63c-4.25,4.25-9.46,6.38-15.63,6.38s-11.38-2.13-15.63-6.38Z"/></svg>