<?xml version="1.0" encoding="UTF-8"?><svg id="Layer_1" xmlns="http://www.w3.org/2000/svg" viewBox="0 0 600 600"><defs><style>.cls-1{fill:#de7f43;fill-rule:evenodd;}</style></defs><path class="cls-1" d="m240.05,170.17c22.46,0,40.79-18.32,40.79-40.79s-18.32-40.79-40.79-40.79-40.79,18.32-40.79,40.79,18.32,40.79,40.79,40.79Z"/><path class="cls-1" d="m494.04,431.37c-4.66-8.51-15.33-11.63-23.84-6.97l-18,9.86-47-85.78c-2.74-6.13-8.88-10.41-16.03-10.41h-131.55v-53.19h110.93c9.7,0,17.56-7.87,17.56-17.57s-7.86-17.56-17.56-17.56h-110.93v-43.24c0-9.7-7.86-17.56-17.57-17.56s-17.56,7.86-17.56,17.56v149.12c0,1.82.28,3.57.79,5.22,2.22,7.15,8.89,12.34,16.77,12.34,0,0,0,0,0,0,0,0,0,0,0,0h138.64l51.14,93.36c4.66,8.51,15.33,11.62,23.84,6.96l33.41-18.3c8.5-4.66,11.62-15.34,6.96-23.84Z"/><path class="cls-1" d="m235.46,479.55c-55.13,0-99.82-44.69-99.82-99.82,0-44.77,29.47-82.65,70.08-95.31v-32.98c-58.39,13.48-101.92,65.8-101.92,128.29,0,72.72,58.95,131.66,131.66,131.66s126.05-53.5,131.27-121.44h-31.97c-5.12,50.33-47.62,89.59-99.3,89.59Z"/></svg>