<?xml version="1.0" encoding="UTF-8"?><svg id="Layer_1" xmlns="http://www.w3.org/2000/svg" viewBox="0 0 600 600"><defs><style>.cls-1{fill:#de7f43;}</style></defs><path class="cls-1" d="m422.3,415.01c-4.01-7.66-8.46-13.23-12.76-18.61-5.76-7.2-11.72-14.64-17.92-28.64-2.12-4.77-3.98-9.71-5.6-14.74,2.78-3.29,5.28-6.85,7.45-10.7.01-.02.02-.04.03-.07.07-.13.13-.27.2-.4.08-.15.16-.31.22-.46.01-.03.03-.07.04-.11.85-2.05.94-4.26.36-6.28,0,0,0,0,0,0-.09-.3-.19-.6-.31-.9,0,0,0-.01,0-.02l-23.72-59.13c-3.9-11.14-8.94-20.15-15.9-28.33-11.82-13.92-23.1-20.82-30.56-24.8-4.63-2.47-10.42-.72-12.9,3.93-2.49,4.65-.73,10.42,3.92,12.91,1.57.84,3.28,1.8,5.08,2.91l9.87,49.67h-50.34l-44.16-53.65c3.07-2.55,4.33-6.86,2.81-10.78-1.9-4.92-7.44-7.35-12.33-5.45-15.74,6.09-29.44,18.21-38.57,33.05l8.6-128.32c0-.13,0-.26,0-.39,0-.08.01-.16.01-.25,0-30.97,25.2-56.18,56.18-56.18s56.17,25.2,56.17,56.18v54.51c0,18.32-14.91,33.22-33.22,33.22s-33.23-14.91-33.23-33.22v-32.75c8.02-.44,17.64-2.25,27.63-7.03,9.34-4.48,17.5-10.81,24.25-18.81,3.39-4.02,2.89-10.05-1.15-13.44-4.04-3.41-10.04-2.88-13.44,1.14-4.99,5.92-11.03,10.61-17.91,13.91-10.94,5.24-21.32,5.65-28.11,5.07-.27-.02-.53-.03-.79-.03,0,0-.01,0-.02,0,0,0,0,0,0,0-4.57-.04-8.31,3.07-9.28,7.36-.03.11-.05.21-.08.32-.02.12-.04.25-.06.37-.03.21-.06.41-.08.62,0,.01,0,.03,0,.04,0,.08,0,.15,0,.23-.01.19-.03.38-.03.58v42.4c0,28.84,23.47,52.3,52.31,52.3s52.3-23.46,52.3-52.3v-54.51c0-41.5-33.76-75.26-75.25-75.26s-75.01,33.51-75.26,74.8l-9.94,148.21c-.35,5.26,3.62,9.8,8.88,10.15.19.02.37.02.55.02-.16,1.02-.31,2.04-.43,3.06-2.54,21.86,5.94,79.78,16.43,147.6,1.07,6.89,3.01,13.43,5.7,19.53,3.56,10.58,4.67,21.97,3.2,32.99-1.43,10.64-5.27,21.03-11.13,30.05-2.87,4.42-1.61,10.33,2.8,13.2,1.6,1.04,3.41,1.54,5.19,1.54,3.12,0,6.18-1.53,8.01-4.34,7.39-11.38,12.25-24.49,14.04-37.92.27-1.99.46-3.99.59-6,13.61,10.92,30.8,17.32,49.02,17.32,3.89,0,7.82-.29,11.77-.89l66.47-10.06c5.11-.12,29.11-1.3,45.3-13.38,9.46-7.05,17.42-17.24,20.08-27.36,2.29,15.31.62,32.45-7.78,47.44-13.14,23.49-37.82,32.21-47.82,34.88-5.1,1.36-8.12,6.58-6.77,11.67,1.14,4.27,5,7.08,9.21,7.08.82,0,1.64-.1,2.46-.32,12.35-3.28,42.88-14.15,59.57-44,16.94-30.29,12.27-67.27.12-90.47Zm-40.5,45.77c-7.27,5.43-18.29,8.01-26.71,9.04l-3.95-23.46c9.5-3.33,19.33-5.21,29.3-5.6,5.27-.2,13.2-.5,14.52-.07,1.11,1.73-1.78,11.61-13.15,20.09Zm-2.11-39.08c-14.1.54-27.94,3.59-41.18,9.06h-69.53l-17.92-125.48c-.75-5.21-5.59-8.85-10.8-8.09-5.22.75-8.84,5.58-8.1,10.79l19.1,133.67c.67,4.7,4.69,8.19,9.45,8.19h71.66l3.73,22.11-57.51,8.71c-27.05,4.09-52.53-10.77-63.09-34.55-.01-.03-.03-.06-.04-.09-2.06-4.65-3.55-9.64-4.37-14.9-7.93-51.24-18.79-121.41-16.34-142.49,1.82-15.73,11.13-31.29,23.81-41.32l49.02,59.54c1.82,2.2,4.52,3.48,7.37,3.48h66.47c2.86,0,5.56-1.28,7.38-3.49,1.81-2.21,2.53-5.11,1.97-7.91l-6.9-34.68c3.43,5,6.12,10.48,8.43,17.12.03.07.06.14.08.21.03.07.05.14.07.21l22.03,54.9c-2.91,4.25-6.39,7.95-10.42,11.02-6.11,4.68-14.85,5.73-26.48,3.16,2.09-2.68,3.99-5.54,5.69-8.57,2.58-4.59.95-10.41-3.64-12.99-4.6-2.59-10.41-.95-13,3.64-3.28,5.84-7.57,10.81-12.75,14.76-11.81,9.03-24.9,10.17-31.72,9.98-5.3.18-9.63,4.08-9.74,9.33-.11,5.27,4.06,9.63,9.33,9.74.47,0,.96.01,1.47.01,8.72,0,23.51-1.64,37.82-10.81,6.68,2.36,16.86,5.35,27.68,5.35,7.22,0,14.72-1.34,21.67-5.07,1.17,3.13,2.42,6.21,3.76,9.24,7.21,16.24,14.25,25.05,20.47,32.82,4.08,5.1,7.6,9.51,10.76,15.53.27.52.54,1.06.8,1.59-6.68-4.5-16.34-4.14-26.51-3.75Z"/></svg>