<?xml version="1.0" encoding="UTF-8"?><svg id="Layer_1" xmlns="http://www.w3.org/2000/svg" viewBox="0 0 600 600"><defs><style></style></defs><path class="cls-1" d="m538.83,367.28h-9.96v-113.54l20.57-5.87c3.99-1.14,6.73-4.78,6.73-8.92s-2.74-7.78-6.73-8.92l-246.89-70.5c-1.66-.48-3.43-.48-5.09,0L50.57,230.03c-3.99,1.14-6.73,4.77-6.73,8.92s2.74,7.78,6.73,8.92l93.85,26.8v95.59c0,3.49,1.96,6.68,5.06,8.27,94.26,48.02,206.79,48.02,301.04,0,3.11-1.59,5.06-4.78,5.06-8.27v-95.59l54.73-15.63v108.24h-9.97c-4.66,0-8.59,3.45-9.2,8.07l-7.22,54.99c-.34,2.65.47,5.32,2.22,7.33,1.76,2.01,4.3,3.16,6.98,3.16h52.93c2.67,0,5.21-1.15,6.98-3.16,1.76-2.01,2.57-4.68,2.22-7.33l-7.22-54.99c-.61-4.62-4.54-8.07-9.2-8.07Zm-238.83-189.18l213.1,60.85-213.1,60.85-213.11-60.85,213.11-60.85Zm137.03,186.42c-86.23,41.96-187.84,41.97-274.07,0v-84.55l134.49,38.4c.83.24,1.69.36,2.55.36s1.72-.12,2.55-.36l134.49-38.4v84.55Zm66.66,57.75l4.79-36.43h22.21l4.79,36.43h-31.78Z"/></svg>