<?xml version="1.0" encoding="UTF-8"?><svg id="Layer_1" xmlns="http://www.w3.org/2000/svg" viewBox="0 0 600 600"><defs><style>.cls-1{fill:#de7f43;}</style></defs><path class="cls-1" d="m305.7,94.03c7.69-2.45,13.13-9.82,13.13-17.85,0-5.35-1.76-9.59-5.55-13.38-4.63-4.62-11.63-6.57-17.72-4.93-5.01,1.34-9.76,4.97-12.02,9.17-5.55,10.32-.27,23.47,10.91,26.98,3.21,1.03,8.04,1.03,11.25,0h0Zm-20.58,60.13l2.1-1.07-.11-5.74c-.23-13.82-.57-23.58-.84-23.73-.15-.12-1.64.15-3.29.57-9.29,2.37-17.13.77-22.06-4.59-2.49-2.68-3.98-5.63-4.4-8.69-.5-3.79-.19-4.48,4.09-8.61,6.81-6.58,9.18-10.8,9.52-16.77.11-2.3-.04-4.02-.46-5.74-1.26-4.9-4.74-11.06-8.1-14.28-5.93-5.7-17.82-8.23-31.12-6.58-7.57.92-13,2.56-18.62,5.55-8.64,4.63-16.97,10.14-37.96,25.23-27.83,19.94-41.29,28.14-60.02,36.52-8.26,3.67-9.94,4.59-9.94,5.36,0,1.22,1.84,3.18,4.05,4.33,3.44,1.76,7.76,2.3,13.92,1.72,8.07-.8,11.7-1.84,19.92-5.7,11.51-5.4,31.85-17.84,44.31-27.06,4.7-3.48,12.2-10.87,14.45-14.2,1.95-2.95,2.64-3.64,3.29-3.37.42.15.54,1.3.54,5.05.04,7.5,1.57,13.4,4.97,18.99,2.03,3.37,7.34,8.57,10.55,10.37,5.62,3.14,9.75,4.1,17.36,4.06h.71c4.21,0,4.33.04,4.33.83v.05c0,.46-.5,1.34-1.15,1.95-2.22,2.14-2.45,5.4-.61,9.53,4.21,9.53,15.75,17.72,26.72,19.03,5.58.65,13.11-.61,17.85-2.99h0Zm47.63,2.99c10.97-1.3,22.52-9.49,26.72-19.03,1.83-4.13,1.61-7.39-.61-9.53-.65-.61-1.15-1.49-1.15-1.95v-.05c0-.79.13-.83,4.5-.83h.58c7.57.04,11.7-.92,17.32-4.06,3.21-1.8,8.53-7.01,10.55-10.37,3.4-5.59,4.93-11.48,4.97-18.99,0-6.51.46-6.7,3.82-1.68,2.26,3.33,9.75,10.72,14.45,14.2,12.46,9.23,32.8,21.67,44.31,27.06,8.22,3.87,11.85,4.9,19.92,5.7,6.16.57,10.48.04,13.92-1.72,2.22-1.15,4.05-3.1,4.05-4.33,0-.77-1.68-1.68-9.94-5.36-18.73-8.38-32.19-16.58-60.02-36.52-16.82-12.1-21.64-15.39-28.75-19.79-6.92-4.33-12.08-7.08-15.06-8.12-7.99-2.79-19.31-4.02-27.49-3.02-3.9.5-9.18,2.11-12.12,3.67-4.4,2.37-7.68,6.2-10.48,12.1-1.91,4.1-2.56,7.12-2.37,10.99.34,5.97,2.71,10.18,9.52,16.77,4.28,4.13,4.59,4.82,4.09,8.61-.42,3.06-1.91,6.01-4.4,8.69-4.93,5.36-12.77,6.97-22.06,4.59-1.64-.42-3.14-.69-3.29-.57-.27.15-.61,9.91-.84,23.73l-.11,5.74,2.1,1.07c4.74,2.37,12.27,3.64,17.85,2.99h0Zm-31.26,389.57l.27-4.59c.11-2.4.39-12.22.65-22.32l.02-.64c0-.32.02-.64.02-.96.73-32.1,1.11-45.99,1.3-46.18.46-.46,5.21,3.21,8.96,6.89,2.14,2.1,3.18,3.52,4.4,5.97l1.61,3.21v4.63c0,3.25-.27,6.04-.92,9.34-.5,2.56-.77,4.94-.65,5.32.23.54.42.46,1.38-.46,1.65-1.61,4.86-6.31,5.97-8.84,1.95-4.44,2.56-7.58,2.37-12.4-.34-8.03-3.25-13.58-10.6-20.24-.89-.79-1.68-1.54-2.25-2.1l-.07-.07c-.49-.49-.79-.83-.79-.9,0-.19,1.49-1.45,3.37-2.83,12.94-9.76,18.06-18.13,18.1-29.73,0-8.65-3.25-16.37-9.87-23.38l-2.03-2.14,3.79-3.29c10.07-8.8,16.53-19.55,19.44-32.44,1-4.28.88-12.63-.23-16.6-2.49-9.26-8.42-16.72-19.4-24.49l-3.6-2.56,3.29-2.26c6.35-4.36,12.86-9.91,16.07-13.73,4.63-5.55,8.5-13.35,9.99-20.28.99-4.71.92-13.62-.19-17.68-2.64-9.76-9.22-18.82-18.56-25.52l-3.37-2.45,4.17-2.33c20.36-11.55,30.39-24.41,30.35-38.83-.04-12.89-9.87-24.56-23.04-27.43-4.1-.88-13.17-.88-16.42-.04-3.48.92-6.24,2.37-7.65,3.98-1.03,1.19-1.19,1.61-1.03,2.83.5,3.67,6.16,8.61,12.63,11.02,3.02,1.11,8.15,1.11,11.41.04,2.91-.99,3.87-1.61,6.16-3.75.96-.92,1.95-1.57,2.18-1.45.77.5.54,8.88-.34,12.32-2.07,8.23-7.65,14.61-17.22,19.78-4.94,2.64-14.47,6.27-21.01,7.96-.33.1-.46-.44-.47-2.59v-.15c0-.28,0-.59,0-.93.01-.85.09-4.06.2-8.94l.04-1.69c.54-23.26,1.87-77.73,2.48-101.05.19-7.38.27-13.54.15-13.7-.11-.19-6.01-.29-12.01-.31h-.74c-6.01,0-11.9.08-12.01.27-.12.19-.04,6.24.15,13.51.09,4.07.23,10.04.38,16.09l.02.65c0,.11,0,.22,0,.32l.02.65c.11,4.22.21,8.4.3,11.94.23,9.03.57,23.07.77,31.18.11,4.62.27,11.38.43,18.18l.02.72c.11,4.89.23,9.75.32,13.82.23,9.87.42,18.9.5,20.01.04,1.26-.08,1.99-.34,1.99-.92,0-9.68-2.87-13.7-4.48-10.41-4.17-17.11-9.03-21.32-15.38-2.83-4.28-3.87-7.84-4.1-14.31-.19-6.5-.04-6.85,2.53-4.44.16.15.33.31.5.47l.11.1c.85.78,1.75,1.52,2.18,1.8,3.83,2.33,10.64,2.91,14.96,1.26,6.54-2.49,11.94-7.19,12.44-10.87.15-1.26.04-1.68-1.03-2.87-2.68-3.06-7.85-4.63-15.31-4.63-10.45,0-16.95,2.41-23.27,8.65-5.66,5.59-8.53,12.24-8.53,19.82.04,8.72,3.9,16.91,11.64,24.68,5.47,5.47,10.91,9.41,19.71,14.35l3.18,1.8-3.37,2.45c-4.1,2.98-9.64,8.42-12.09,11.94-8.5,11.97-9.8,25.71-3.87,39.79,3.98,9.41,10.95,17.06,23.27,25.48l3.33,2.26-3.06,2.14c-11.6,8.11-17.84,16.07-20.21,25.75-.88,3.71-.88,11.21.04,15.61,2.64,12.7,9.45,24.03,19.75,32.9l3.44,2.98-2.03,2.14c-6.62,7-9.84,14.61-9.84,23.38,0,12.24,4.82,19.7,20.51,31.64l1.11.84-3.14,2.91c-7.62,7.04-10.83,13.43-10.83,21.46,0,5.85,1.72,11.13,5.32,16.34,2.49,3.6,4.13,5.2,4.44,4.4.15-.34-.19-3.21-.73-6.43-1.15-6.66-1.22-9.64-.42-12.74.88-3.44,2.3-5.82,5.36-9.03,2.72-2.83,8.8-7.61,9.22-7.19.19.19.57,12.74,1.3,45.6.01.53.03,1.05.04,1.58l.02.63c.25,9.79.53,19.33.63,21.89l.27,4.97h2.68Zm154.74-399.87c4.51-.46,6.5-1.22,7.34-2.79,1.03-1.8.15-2.64-4.97-4.93-15.28-6.73-30.23-17.06-51.7-35.68-4.47-3.9-6.38-4.63-7.11-2.68-.23.54-.38,1.19-.38,1.45,0,.8-1.38,4.59-2.87,7.88-1.38,3.02-1.38,3.06-.73,4.4,1.49,3.17,18.15,15.76,30.72,23.25,13.49,7.99,20.14,10.06,29.69,9.1h0Zm-282.88-9.1c12.57-7.49,29.24-20.07,30.73-23.24.65-1.34.65-1.38-.84-4.7-1.34-2.91-1.99-4.82-3.13-8.87-.31-1.22-1.68-1.41-3.32-.5-.6.35-2.97,2.26-5.46,4.4l-.16.14c-.16.14-.33.28-.49.42-19.11,16.67-34.51,27.18-49.38,33.72-5.12,2.29-6,3.13-4.97,4.93.84,1.57,2.83,2.33,7.34,2.79,9.55.96,16.2-1.11,29.69-9.1h0Zm4.67,15.86c5.86-1.26,12.37-4.63,19.99-10.25,5.74-4.25,18.11-14.61,18.72-15.68.73-1.38-.04-2.45-2.87-4.13-1.42-.8-3.48-2.49-4.63-3.71-2.03-2.18-2.45-2.37-3.64-1.95-.31.15-3.14,2.72-6.32,5.78-11.03,10.67-18.76,16.49-31.71,23.95l-4.52,2.64.12,1.34c.11,1.26.27,1.42,1.84,1.91,2.37.73,9.92.8,13.02.11h0Zm257.14.17c1.57-.5,1.72-.65,1.84-1.91l.11-1.34-4.52-2.64c-13.06-7.54-20.72-13.32-31.74-24.01-3.18-3.1-6.2-5.7-6.78-5.82-.84-.23-1.26.04-3.1,1.99-1.19,1.26-3.25,2.95-4.67,3.75-2.83,1.68-3.6,2.76-2.87,4.14.61,1.07,12.98,11.45,18.72,15.7,7.62,5.63,14.13,9,19.99,10.26,3.1.69,10.64.61,13.02-.11h0Zm-232.64,4.54c11.01-1.91,31.47-19.3,31.47-26.81,0-.61-.11-1.19-.27-1.26-.19-.11-2.03-.38-4.13-.65-2.06-.23-4.82-.77-6.12-1.19-1.26-.38-2.29-.73-2.29-.73,0,.04-.42.27-.92.54-.5.27-1.41,1.19-2.03,1.99-3.79,5.06-11.17,12.48-20.3,20.41-4.55,3.94-5.09,4.63-4.47,5.78.96,1.84,4.89,2.64,9.06,1.91h0Zm204.33-1.92c.61-1.15.08-1.84-4.47-5.79-9.21-7.97-16.71-15.56-20.38-20.5-.88-1.23-2.75-2.64-3.17-2.41-.04.04-1.03.34-2.22.73-1.19.38-3.86.92-5.93,1.15-2.06.27-3.9.54-4.05.65-.19.08-.31.65-.31,1.26,0,7.51,20.46,24.9,31.47,26.82,4.17.73,8.11-.08,9.06-1.92h0Zm-99.12,151.01c-.19,0-.23-.65-.11-1.45.08-.77.38-11.44.61-23.72.27-12.24.54-22.27.65-22.27s1.57.92,3.29,2.07c5.4,3.6,9.95,8.84,11.75,13.51,1.15,3.06,1.42,8.95.57,12.32-1.3,5.13-4.52,10.02-9.38,14.31-2.45,2.18-6.77,5.24-7.39,5.24h0Zm-15.46-.15c-1.84-.69-5.4-3.48-8.76-6.89-5.82-5.85-8.23-11.06-8.23-17.64,0-5.89,1.95-10.44,6.66-15.38,2.41-2.56,8.46-7.27,9.45-7.35.11-.04.42,9.72.69,21.65.23,11.97.54,22.65.61,23.8.19,1.76.12,1.99-.42,1.8h0Zm13.51,77.4c-.08-.08.12-8,.34-17.56.27-9.56.5-18.67.5-20.2l.04-2.83,2.03,1.65c.65.56,1.68,1.49,2.71,2.47l.17.16c.61.58,1.21,1.17,1.72,1.7,1.84,1.87,3.06,3.63,4.17,5.85,1.42,2.83,1.61,3.6,1.76,6.5.34,6.39-2.11,12.51-6.85,17.29-1.65,1.64-6.43,5.24-6.58,4.97h0Zm-17.84-4.97c-4.32-4.36-6.93-10.25-6.93-15.84,0-6.39,2.56-11.06,9.26-16.91l3.18-2.75.27,6.77c.11,2.6.27,7.82.42,13.25v.47c.07,2.18.13,4.38.19,6.44.16,6.02.24,11.22.24,12.94v.17c0,.27,0,.41,0,.43-.19.27-4.94-3.33-6.62-4.97h0Zm8,65.46c-.54-.04-4.44-5.51-5.47-7.65-.96-2.07-1.19-2.98-1.19-5.36-.04-3.6.99-5.82,3.98-8.8l2.11-2.1.11,1.91c.04,1,.22,6.11.37,11.48v.33c.01.06.01.11.01.17.15,5.51.19,10.02.08,10.02h0Zm8.42,0c-.11,0-.08-3.56.04-7.92.02-.66.05-1.34.07-2.03v-.28s.01-.09.01-.14v-.41s.02-.28.02-.28v-.28s.02-.28.02-.28c.09-3.36.16-6.62.19-8.21.04-3.75.08-3.9.77-3.56.38.23,1.42,1.19,2.3,2.18,2.49,2.83,3.29,4.86,3.29,8.19,0,3.86-1.15,6.35-5.36,11.59-.61.77-1.22,1.42-1.34,1.42h0Z"/></svg>