<?xml version="1.0" encoding="UTF-8"?><svg id="Layer_1" xmlns="http://www.w3.org/2000/svg" viewBox="0 0 600 600"><defs><style>.cls-1{fill:#de7f43;}</style></defs><path class="cls-1" d="m82.49,320.56h49.57v166.43c0,5.1,4.14,9.24,9.24,9.24h332.25c5.11,0,9.24-4.14,9.24-9.24v-160.26l34.7.02h0c3.43,0,6.57-1.9,8.17-4.92,1.61-3.02,1.4-6.69-.52-9.52l-105.49-154.94c-1.72-2.52-4.58-4.03-7.63-4.03h-20.57v-40.3c0-5.1-4.14-9.24-9.24-9.24h-41.11c-5.11,0-9.24,4.14-9.24,9.24v40.3h-148.11c-.68,0-1.37.1-2.04.25-.21.05-.4.12-.61.18-.45.13-.88.3-1.32.5-.23.11-.45.24-.68.37-.18.1-.36.17-.53.29-.21.14-.37.32-.56.47-.19.16-.39.31-.57.48-.4.38-.75.79-1.07,1.22-.07.1-.16.17-.24.27l-101.27,148.75c-1.93,2.83-2.13,6.49-.53,9.52,1.6,3.03,4.75,4.92,8.17,4.92Zm161.83,157.19h-31.76v-102.87c9.09-6.91,22.67-6.92,31.76,0v102.87Zm87.55,0h-69.06v-107.04c0-2.45-.97-4.8-2.71-6.54-8.45-8.45-19.69-13.11-31.65-13.11s-23.2,4.66-31.66,13.11c-1.73,1.74-2.71,4.09-2.71,6.54v107.04h-43.53v-163.58l62.63-91.99,68.4,100.46c1.72,2.53,4.59,4.04,7.64,4.04h42.65v151.08Zm132.45,0h-113.97v-151.06l113.97.03v151.02Zm-132.45-305.94v49.7c0,5.1,4.13,9.24,9.24,9.24s9.24-4.14,9.24-9.24v-99.24h22.62v99.24c0,5.1,4.13,9.24,9.24,9.24s9.24-4.14,9.24-9.24v-49.7h15.67l92.9,136.44-158.79-.05s-.09-.01-.13-.01-.09.01-.13.01h-46.87s-73.14-107.44-73.14-107.44c0-.02-.03-.05-.04-.06l-19.67-28.89h130.62Zm-148.09,7.18l18.22,26.77-65.58,96.33h-36.45l83.81-123.1Z"/><path class="cls-1" d="m306.26,291.15l150.55.06h0c5.11,0,9.24-4.13,9.24-9.23,0-5.11-4.13-9.25-9.23-9.25l-150.55-.06h0c-5.1,0-9.24,4.13-9.24,9.24,0,5.1,4.13,9.24,9.23,9.24Z"/></svg>