<?xml version="1.0" encoding="UTF-8"?><svg id="Layer_1" xmlns="http://www.w3.org/2000/svg" viewBox="0 0 600 600"><defs><style>.cls-1{fill:#de7f43;}</style></defs><path class="cls-1" d="m179.78,499.71c-2.65,5.29-9.14,7.54-14.44,4.89-5.37-2.65-7.54-9.14-4.89-14.52l25.02-50.45h-27.19c-8.9,0-17-3.69-22.94-9.54h0c-5.86-5.85-9.54-13.96-9.54-22.94v-118.38c0-.64.08-1.28.16-1.84l8.26-73.87h-18.29v43.23c0,6.02-4.81,10.83-10.83,10.83s-10.83-4.81-10.83-10.83v-54.06c0-6.02,4.89-10.83,10.83-10.83h31.52l.08-.88c3.05-26.87,14.36-51.41,31.92-68.97,16.84-16.84,39.3-27.27,65.45-27.27h131.85c26.23,0,48.6,10.42,65.44,27.27,17.56,17.56,28.95,42.11,31.92,68.97l.16.88h31.44c6.02,0,10.83,4.81,10.83,10.83v54.06c0,6.02-4.81,10.83-10.83,10.83s-10.83-4.81-10.83-10.83v-43.23h-18.21l8.26,74.51c.08.4.08.8.08,1.2h0v118.38c0,8.9-3.61,17.08-9.46,22.94-5.93,5.86-14.04,9.54-23.02,9.54h-27.19l25.1,50.45c2.65,5.37.48,11.87-4.89,14.52-5.37,2.65-11.87.4-14.44-4.89l-8.02-16.2h-224.48l-8.02,16.2Zm65.77-362.51h108.99c17.48,0,32.32,6.98,43.47,18.13,11.63,11.63,19.17,27.83,21.41,45.55l10.83,86.62c0,.32.08.72.08,1.04.08.56.08.96.08,1.28,0,5.53-2.41,10.51-6.18,14.2-3.37,3.37-8.02,5.61-12.91,6.26-.88.08-1.76.16-2.65.16h-217.27c-.88,0-1.76-.08-2.73-.16-4.89-.64-9.46-2.89-12.91-6.26-3.69-3.69-6.1-8.66-6.1-14.2,0-.56.08-1.28.16-2.33h0l10.83-86.62c2.17-17.72,9.71-33.92,21.33-45.55,11.23-11.15,26.07-18.13,43.55-18.13h0Zm108.99,21.65h-108.99c-11.31,0-20.93,4.49-28.23,11.79-8.18,8.26-13.55,19.89-15.16,32.8l-10.67,85.33h217.11l-10.67-85.33c-1.6-12.83-6.98-24.54-15.16-32.8-7.3-7.3-16.92-11.79-28.23-11.79h0Zm-163.29,131.21q0,.16,0,0h0Zm18.37,149.58l-11.07,22.22h202.91l-10.99-22.22h-25.5c-5.05,0-9.3-3.45-10.51-8.1l-4.73-13.55h-97.2l-7.86,15.64c-1.92,3.77-5.69,5.94-9.62,5.94v.08h-25.42ZM365.93,115.94h-131.85c-19.97,0-37.21,8.02-50.13,20.93-14.12,14.12-23.26,34.09-25.74,56.06l-10.75,96.24v117.98c0,2.97,1.2,5.69,3.21,7.62v.08h0c1.93,1.92,4.65,3.13,7.62,3.13h70.1l7.46-14.76c1.52-4.01,5.45-6.9,10.03-6.9h111.56c4.49,0,8.66,2.81,10.19,7.3l4.97,14.36h69.13c2.97,0,5.69-1.2,7.7-3.21,1.92-1.93,3.13-4.65,3.13-7.62v-117.98l-10.75-96.24c-2.41-21.97-11.55-41.95-25.74-56.06-12.91-12.91-30.08-20.93-50.13-20.93h0Zm31.76,225.85c5.93,0,11.39,2.41,15.32,6.34.24.24.48.56.72.88,3.45,3.85,5.61,8.9,5.61,14.44,0,5.94-2.49,11.39-6.34,15.32-3.93,3.85-9.38,6.34-15.32,6.34s-11.39-2.49-15.32-6.42v.08c-3.93-3.93-6.34-9.38-6.34-15.32s2.41-11.39,6.34-15.32l.08-.08c3.93-3.85,9.3-6.26,15.24-6.26h0Zm-65.12,0c6.02,0,11.39,2.41,15.32,6.34.24.24.56.56.8.88,3.45,3.85,5.53,8.9,5.53,14.44,0,5.94-2.41,11.39-6.34,15.32-3.93,3.85-9.3,6.34-15.32,6.34s-11.31-2.49-15.32-6.42v.08c-3.93-3.93-6.34-9.38-6.34-15.32s2.41-11.39,6.34-15.32l.08-.08c3.93-3.85,9.3-6.26,15.24-6.26h0Zm-65.04,0c5.94,0,11.39,2.41,15.24,6.34.32.24.56.56.8.88,3.45,3.85,5.61,8.9,5.61,14.44,0,5.94-2.49,11.39-6.42,15.32-3.85,3.85-9.3,6.34-15.24,6.34s-11.39-2.49-15.32-6.42v.08c-3.93-3.93-6.34-9.38-6.34-15.32s2.41-11.39,6.34-15.32v-.08c4.01-3.85,9.38-6.26,15.32-6.26h0Zm-65.12,0c6.02,0,11.39,2.41,15.32,6.34.24.24.56.56.8.88,3.45,3.85,5.53,8.9,5.53,14.44,0,5.94-2.41,11.39-6.34,15.32-3.93,3.85-9.3,6.34-15.32,6.34s-11.31-2.49-15.32-6.42v.08c-3.93-3.93-6.34-9.38-6.34-15.32s2.41-11.39,6.34-15.32l.08-.08c3.93-3.85,9.3-6.26,15.24-6.26h0Z"/></svg>