<?xml version="1.0" standalone="no"?>
<svg version="1.0" xmlns="http://www.w3.org/2000/svg"
 width="512.000000pt" height="512.000000pt" viewBox="0 0 512.000000 512.000000"
 preserveAspectRatio="xMidYMid meet">
<g transform="translate(0.000000,512.000000) scale(0.100000,-0.100000)"
 stroke="none">
<path d="M412 5100 c-99 -26 -174 -71 -252 -149 -77 -79 -114 -142 -140 -247
-20 -76 -20 -118 -20 -2144 0 -2029 0 -2068 20 -2144 25 -101 69 -176 144
-252 76 -75 151 -119 252 -144 76 -20 115 -20 2144 -20 2026 0 2068 0 2144 20
105 26 168 63 247 140 80 79 123 153 149 256 20 76 20 114 20 1846 0 1494 -2
1774 -14 1801 -18 41 -1012 1033 -1049 1047 -19 7 -590 10 -1800 9 -1715 0
-1774 -1 -1845 -19z m551 -932 c3 -568 5 -660 20 -707 55 -183 196 -329 372
-384 l70 -22 975 0 975 0 73 24 c177 58 312 198 366 380 14 48 16 136 16 708
l0 653 57 0 58 0 437 -437 438 -438 0 -1716 c0 -1927 6 -1771 -76 -1853 -69
-69 -101 -76 -360 -76 l-223 0 -3 818 -3 817 -27 74 c-70 192 -217 323 -410
366 -65 14 -195 15 -1193 13 l-1120 -3 -66 -26 c-37 -14 -86 -37 -110 -51
-101 -60 -201 -186 -241 -307 -22 -66 -23 -70 -26 -883 l-3 -818 -223 0 c-259
0 -291 7 -360 76 -83 82 -76 -113 -76 2184 0 2298 -7 2104 75 2185 67 67 96
73 357 74 l227 1 4 -652z m2567 14 l0 -638 -26 -52 c-32 -64 -83 -108 -148
-127 -74 -22 -1838 -22 -1912 0 -63 19 -126 72 -156 133 l-23 47 -3 638 -3
637 1136 0 1135 0 0 -638z m186 -2119 c22 -12 56 -39 74 -59 69 -79 65 -25 68
-906 l3 -798 -1301 0 -1300 0 0 770 c0 518 4 786 11 820 11 53 55 119 100 152
65 49 30 47 1204 45 l1100 -2 41 -22z"/>
<path d="M2994 4469 c-40 -12 -91 -69 -99 -111 -4 -18 -5 -152 -3 -298 3 -259
4 -266 26 -298 34 -47 75 -65 139 -60 41 4 60 11 82 33 50 47 52 60 49 366 -3
321 -3 319 -84 359 -44 22 -62 23 -110 9z"/>
</g>
</svg>
