<?xml version="1.0" encoding="UTF-8"?><svg id="Layer_1" xmlns="http://www.w3.org/2000/svg" viewBox="0 0 600 600"><defs><style></style></defs><path class="cls-1" d="m455.48,201.15c-3.02.61-4.98,3.56-4.37,6.6,9.79,48.28-24.14,101.45-34.77,116.59-2.52,3.61-4.15,7.84-4.69,12.26-9.91,80.56-27.54,136.82-42.86,136.82-14.39,0-46.61-24.41-48.65-96.91-.06-17.68-12.2-26.55-19.45-30.28-5.36-2.76-11.77-2.76-17.14,0-7.25,3.73-19.39,12.61-19.45,30.28-2.03,72.52-34.26,96.92-48.65,96.92-15.32,0-32.95-56.27-42.86-136.83-.54-4.42-2.17-8.65-4.69-12.25-10.8-15.39-62.48-94.9-19.57-149.44,40.45-51.41,77.95-34.42,121.35-14.75,2.49,1.13,5.03,2.27,7.57,3.4-11.72,4.05-23.55,6.83-35.42,6.83-3.09,0-5.59,2.51-5.59,5.6s2.5,5.59,5.59,5.59c18.04,0,35.37-5.51,52.22-12.45.13-.05.25-.1.38-.16,6.78-2.8,13.49-5.81,20.12-8.81,27.65-12.53,53.78-24.36,79.44-16.94,2.97.85,6.07-.84,6.93-3.82.86-2.97-.85-6.08-3.82-6.93-29.66-8.58-58.9,4.68-87.17,17.5-5.89,2.67-11.83,5.35-17.82,7.86-5.97-2.51-11.99-5.21-17.82-7.85-43.7-19.8-88.89-40.29-134.77,18.01-46.61,59.24,2.93,139.57,19.21,162.78,1.5,2.12,2.42,4.55,2.74,7.18,6.75,54.77,22.72,146.66,53.97,146.66,18.53,0,57.52-26.33,59.83-107.71,0-.09,0-.18,0-.27,0-11.22,7.27-17.32,13.37-20.45,2.17-1.11,4.75-1.11,6.91,0,6.1,3.13,13.38,9.23,13.38,20.43h0v.02c0,.09,0,.18,0,.27,2.31,81.37,41.3,107.7,59.83,107.7,31.25,0,47.23-91.88,53.97-146.65.33-2.64,1.24-5.06,2.74-7.19,11.28-16.07,47.25-72.6,36.57-125.25-.62-3.03-3.58-5-6.6-4.37Z"/><path class="cls-1" d="m215.46,487.12c-31.51,0-48.09-80.95-56.45-148.85-.27-2.24-1.05-4.27-2.3-6.04-16.54-23.58-66.8-105.19-19.13-165.77,21.07-26.77,44.07-39.63,70.2-39.25,23.02.31,45.66,10.58,67.56,20.5,5.4,2.44,11.14,5.02,16.8,7.42,5.45-2.3,10.84-4.73,16.78-7.42,28.71-13.01,58.36-26.45,88.9-17.62,2.08.6,3.8,1.97,4.84,3.87,1.04,1.9,1.29,4.09.68,6.16-1.23,4.27-5.73,6.75-10.02,5.52-24.8-7.17-50.51,4.48-77.72,16.81-6.03,2.73-13.05,5.89-20.15,8.82-.13.06-.25.11-.37.16-14.33,5.91-33.28,12.66-53.23,12.66-4.46,0-8.09-3.63-8.09-8.09s3.63-8.1,8.09-8.1c8.75,0,17.92-1.5,28.48-4.7-.56-.25-1.11-.5-1.66-.75-21.32-9.66-41.45-18.79-60.79-19.06-21.31-.28-39.58,10.21-57.57,33.08-41.81,53.14,9.04,131.32,19.66,146.45,2.76,3.92,4.53,8.55,5.13,13.38,10.76,87.45,28.83,134.64,40.38,134.64,6.69,0,17.6-6.23,26.88-20.15,8.18-12.28,18.17-35.14,19.27-74.34.06-18.93,13.06-28.45,20.81-32.43,6.09-3.12,13.35-3.12,19.43,0,7.74,3.98,20.75,13.5,20.81,32.49,1.1,39.13,11.09,61.99,19.27,74.26,9.28,13.92,20.19,20.15,26.88,20.15,11.54,0,29.62-47.18,40.38-134.63.59-4.82,2.37-9.45,5.13-13.39,10.49-14.94,43.95-67.36,34.36-114.66-.43-2.12,0-4.29,1.19-6.09,1.2-1.8,3.02-3.03,5.14-3.45,2.1-.44,4.24-.02,6.04,1.16,1.82,1.2,3.06,3.03,3.5,5.16,10.87,53.63-25.55,110.91-36.97,127.19-1.26,1.78-2.03,3.82-2.31,6.06-8.36,67.9-24.94,148.84-56.45,148.84-9.7,0-24.77-6.4-38.01-24.36-10.38-14.08-23.03-40.4-24.32-85.78,0-.09,0-.22,0-.34,0-9.97-6.54-15.41-12.02-18.22-1.45-.75-3.18-.75-4.63,0-5.48,2.81-12.01,8.26-12.01,18.22,0,.12,0,.25,0,.38-1.29,45.35-13.94,71.67-24.32,85.75-13.24,17.96-28.32,24.35-38.01,24.35Zm-8.74-354.93c-24.11,0-45.45,12.23-65.22,37.35-45.53,57.87,3.26,136.95,19.29,159.8,1.73,2.45,2.8,5.25,3.17,8.31,11.31,91.81,30.08,144.46,51.49,144.46,8.09,0,21.84-5.85,33.99-22.32,9.96-13.51,22.1-38.87,23.35-82.96v-.2c0-12.49,8.01-19.22,14.73-22.67,2.88-1.48,6.32-1.48,9.2,0,6.72,3.45,14.73,10.18,14.73,22.66v.18c1.26,44.12,13.39,69.48,23.35,82.99,12.15,16.48,25.9,22.32,33.99,22.32,21.42,0,40.19-52.65,51.49-144.45.38-3.07,1.45-5.87,3.18-8.32,11.13-15.86,46.64-71.64,36.16-123.32-.17-.82-.64-1.52-1.34-1.98-.69-.45-1.5-.61-2.29-.44h-.02c-.81.17-1.5.63-1.96,1.32-.46.69-.62,1.52-.45,2.33,9.98,49.26-24.4,103.17-35.17,118.52-2.29,3.27-3.76,7.12-4.26,11.13-7.89,64.13-24.5,139.02-45.34,139.02-7.44,0-20.03-5.86-31.04-22.38-8.55-12.82-18.98-36.58-20.11-76.96-.06-16.41-11.36-24.66-18.1-28.12-4.65-2.39-10.2-2.39-14.85,0-6.73,3.46-18.04,11.71-18.09,28.06-1.13,40.44-11.56,64.21-20.11,77.03-11.01,16.52-23.6,22.38-31.04,22.38-20.84,0-37.45-74.89-45.34-139.02-.5-4.01-1.97-7.86-4.25-11.11-10.98-15.64-63.49-96.5-19.49-152.42,19.04-24.19,38.62-35.3,61.57-34.98,20.38.29,40.98,9.62,62.78,19.5,2.48,1.12,5.03,2.27,7.56,3.4l5.77,2.58-5.98,2.07c-13.75,4.75-25.27,6.96-36.23,6.96-1.71,0-3.09,1.39-3.09,3.1s1.39,3.09,3.09,3.09c19.07,0,37.41-6.55,51.27-12.26l.12-.05s.1-.04.15-.06l.11-.05c7.04-2.91,14.04-6.06,20.05-8.78,28.08-12.72,54.61-24.75,81.17-17.06,1.64.47,3.36-.48,3.83-2.11.23-.8.14-1.63-.26-2.36s-1.06-1.25-1.85-1.48c-28.76-8.32-57.56,4.73-85.42,17.36-6.36,2.88-12.07,5.45-17.91,7.9l-.97.41-.97-.41c-6.04-2.54-12.16-5.29-17.88-7.88-21.45-9.72-43.61-19.76-65.58-20.06-.33,0-.65,0-.98,0Z"/><path class="cls-1" d="m474.36,156.75c-19.73,0-35.77-16.05-35.77-35.78,0-3.09-2.51-5.59-5.6-5.59s-5.59,2.5-5.59,5.59c0,19.73-16.05,35.78-35.78,35.78-3.09,0-5.6,2.5-5.6,5.59s2.51,5.6,5.6,5.6c19.73,0,35.78,16.05,35.78,35.77,0,3.09,2.51,5.6,5.59,5.6s5.6-2.51,5.6-5.6c0-19.73,16.05-35.77,35.77-35.77,3.09,0,5.6-2.51,5.6-5.6s-2.51-5.59-5.6-5.59Zm-41.37,24.75c-4.37-8.11-11.05-14.78-19.16-19.16,8.11-4.36,14.78-11.05,19.16-19.16,4.37,8.11,11.05,14.79,19.15,19.16-8.1,4.37-14.78,11.05-19.15,19.16Z"/><path class="cls-1" d="m432.99,211.8c-4.46,0-8.09-3.63-8.09-8.1,0-18.35-14.93-33.27-33.28-33.27-4.46,0-8.1-3.63-8.1-8.1s3.63-8.09,8.1-8.09c18.35,0,33.28-14.93,33.28-33.28,0-4.46,3.63-8.09,8.09-8.09s8.1,3.63,8.1,8.09c0,18.35,14.93,33.28,33.27,33.28,4.46,0,8.1,3.63,8.1,8.09s-3.63,8.1-8.1,8.1c-18.35,0-33.27,14.93-33.27,33.27,0,4.46-3.63,8.1-8.1,8.1Zm0-93.93c-1.71,0-3.09,1.39-3.09,3.09,0,21.11-17.17,38.28-38.28,38.28-1.71,0-3.1,1.39-3.1,3.09s1.39,3.1,3.1,3.1c21.11,0,38.28,17.17,38.28,38.27,0,1.71,1.39,3.1,3.09,3.1s3.1-1.39,3.1-3.1c0-21.1,17.17-38.27,38.27-38.27,1.71,0,3.1-1.39,3.1-3.1s-1.39-3.09-3.1-3.09c-21.1,0-38.27-17.17-38.27-38.28,0-1.7-1.39-3.09-3.1-3.09Zm0,68.88l-2.2-4.08c-4.16-7.71-10.43-13.98-18.14-18.14l-4.08-2.2,4.08-2.2c7.71-4.15,13.98-10.42,18.14-18.14l2.2-4.08,2.2,4.08c4.16,7.72,10.43,13.99,18.14,18.14l4.08,2.2-4.08,2.2c-7.71,4.16-13.99,10.43-18.14,18.14l-2.2,4.08Zm-14.28-24.42c5.69,3.73,10.54,8.58,14.28,14.28,3.73-5.69,8.58-10.54,14.27-14.28-5.69-3.73-10.54-8.58-14.27-14.28-3.74,5.7-8.58,10.55-14.28,14.28Z"/><path class="cls-1" d="m356.61,248.24c-3.09,0-5.59,2.51-5.59,5.6,0,19.73-16.05,35.77-35.78,35.77-3.09,0-5.6,2.5-5.6,5.59s2.5,5.6,5.6,5.6c19.73,0,35.78,16.05,35.78,35.77,0,3.09,2.51,5.59,5.59,5.59s5.6-2.5,5.6-5.59c0-19.73,16.05-35.77,35.77-35.77,3.09,0,5.6-2.52,5.6-5.6s-2.51-5.59-5.6-5.59c-19.73,0-35.77-16.05-35.77-35.77,0-3.09-2.51-5.6-5.6-5.6Zm19.16,46.96c-8.11,4.37-14.78,11.06-19.16,19.16-4.37-8.1-11.05-14.78-19.16-19.16,8.11-4.36,14.78-11.04,19.16-19.16,4.37,8.11,11.05,14.79,19.16,19.16Z"/><path class="cls-1" d="m356.61,344.67c-4.46,0-8.09-3.63-8.09-8.09,0-18.35-14.93-33.27-33.28-33.27-4.46,0-8.1-3.64-8.1-8.1s3.63-8.09,8.1-8.09c18.35,0,33.28-14.93,33.28-33.27,0-4.46,3.63-8.1,8.09-8.1s8.1,3.63,8.1,8.1c0,18.35,14.93,33.27,33.27,33.27,4.46,0,8.1,3.63,8.1,8.09s-3.63,8.1-8.1,8.1c-18.35,0-33.27,14.93-33.27,33.27,0,4.46-3.63,8.09-8.1,8.09Zm0-93.93c-1.71,0-3.09,1.39-3.09,3.1,0,21.1-17.17,38.27-38.28,38.27-1.71,0-3.1,1.39-3.1,3.09s1.39,3.1,3.1,3.1c21.11,0,38.28,17.17,38.28,38.27,0,1.7,1.39,3.09,3.09,3.09s3.1-1.39,3.1-3.09c0-21.1,17.17-38.27,38.27-38.27,1.71,0,3.1-1.39,3.1-3.1s-1.39-3.09-3.1-3.09c-21.1,0-38.27-17.17-38.27-38.27,0-1.71-1.39-3.1-3.1-3.1Zm0,68.88l-2.2-4.07c-4.17-7.72-10.44-13.99-18.14-18.14l-4.08-2.2,4.09-2.2c7.71-4.15,13.98-10.42,18.14-18.14l2.2-4.08,2.2,4.08c4.16,7.72,10.43,13.99,18.14,18.14l4.08,2.2-4.08,2.2c-7.7,4.16-13.98,10.43-18.14,18.14l-2.2,4.07Zm-14.27-24.42c5.69,3.73,10.54,8.58,14.27,14.28,3.74-5.7,8.58-10.54,14.28-14.28-5.7-3.73-10.54-8.58-14.28-14.28-3.73,5.7-8.58,10.55-14.27,14.28Z"/><path class="cls-1" d="m227.48,205.03c0-3.09-2.51-5.59-5.59-5.59s-5.6,2.5-5.6,5.59c0,19.73-16.05,35.78-35.78,35.78-3.09,0-5.59,2.51-5.59,5.6s2.5,5.59,5.59,5.59c19.73,0,35.78,16.05,35.78,35.78,0,3.09,2.51,5.6,5.6,5.6s5.59-2.51,5.59-5.6c0-19.73,16.05-35.78,35.78-35.78,3.09,0,5.6-2.5,5.6-5.59s-2.51-5.6-5.6-5.6c-19.73,0-35.78-16.05-35.78-35.78Zm-5.59,60.53c-4.37-8.11-11.05-14.78-19.16-19.16,8.11-4.37,14.78-11.05,19.16-19.16,4.37,8.11,11.05,14.78,19.16,19.16-8.11,4.37-14.79,11.05-19.16,19.16Z"/><path class="cls-1" d="m221.89,295.87c-4.46,0-8.1-3.63-8.1-8.1,0-18.35-14.93-33.28-33.28-33.28-4.46,0-8.09-3.63-8.09-8.09s3.63-8.1,8.09-8.1c18.35,0,33.28-14.93,33.28-33.28,0-4.46,3.63-8.09,8.1-8.09s8.09,3.63,8.09,8.09c0,18.35,14.93,33.28,33.28,33.28,4.46,0,8.1,3.63,8.1,8.1s-3.63,8.09-8.1,8.09c-18.35,0-33.28,14.93-33.28,33.28,0,4.46-3.63,8.1-8.09,8.1Zm0-93.94c-1.71,0-3.1,1.39-3.1,3.09,0,21.11-17.17,38.28-38.28,38.28-1.71,0-3.09,1.39-3.09,3.1s1.39,3.09,3.09,3.09c21.11,0,38.28,17.17,38.28,38.28,0,1.71,1.39,3.1,3.1,3.1s3.09-1.39,3.09-3.1c0-21.11,17.17-38.28,38.28-38.28,1.71,0,3.1-1.39,3.1-3.09s-1.39-3.1-3.1-3.1c-21.11,0-38.28-17.17-38.28-38.28,0-1.7-1.39-3.09-3.09-3.09Zm0,68.89l-2.2-4.08c-4.16-7.71-10.43-13.98-18.14-18.14l-4.08-2.2,4.08-2.2c7.71-4.16,13.98-10.43,18.14-18.14l2.2-4.08,2.2,4.08c4.15,7.71,10.43,13.98,18.14,18.14l4.08,2.2-4.08,2.2c-7.72,4.16-13.99,10.43-18.14,18.14l-2.2,4.08Zm-14.28-24.42c5.7,3.74,10.54,8.58,14.28,14.28,3.73-5.69,8.58-10.54,14.28-14.28-5.7-3.74-10.55-8.58-14.28-14.28-3.74,5.7-8.58,10.54-14.28,14.28Z"/></svg>