<?xml version="1.0" encoding="UTF-8"?><svg id="Layer_1" xmlns="http://www.w3.org/2000/svg" viewBox="0 0 600 600"><defs><style></style></defs><path class="cls-1" d="m300,91.15c-2.73,0-4.95-2.22-4.95-4.95v-24.44c0-2.73,2.22-4.95,4.95-4.95s4.95,2.22,4.95,4.95v24.44c0,2.73-2.22,4.95-4.95,4.95Z"/><path class="cls-1" d="m300,92.65c-3.56,0-6.45-2.89-6.45-6.45v-24.44c0-3.56,2.89-6.45,6.45-6.45s6.45,2.89,6.45,6.45v24.44c0,3.56-2.89,6.45-6.45,6.45Zm0-34.34c-1.9,0-3.45,1.55-3.45,3.45v24.44c0,1.9,1.55,3.45,3.45,3.45s3.45-1.55,3.45-3.45v-24.44c0-1.9-1.55-3.45-3.45-3.45Z"/><path class="cls-1" d="m414.06,138.4c-1.27,0-2.53-.48-3.5-1.45-1.93-1.93-1.93-5.07,0-7l17.28-17.28c1.93-1.93,5.07-1.93,7,0,1.93,1.93,1.93,5.07,0,7l-17.28,17.28c-.97.97-2.23,1.45-3.5,1.45Z"/><path class="cls-1" d="m414.06,139.9c-1.72,0-3.34-.67-4.56-1.89s-1.89-2.84-1.89-4.56.67-3.34,1.89-4.56l17.28-17.28c1.22-1.22,2.84-1.89,4.56-1.89s3.34.67,4.56,1.89c1.22,1.22,1.89,2.84,1.89,4.56s-.67,3.34-1.89,4.56l-17.28,17.28c-1.22,1.22-2.84,1.89-4.56,1.89Zm17.28-27.18c-.92,0-1.79.36-2.44,1.01l-17.28,17.28c-.65.65-1.01,1.52-1.01,2.44s.36,1.79,1.01,2.44c1.3,1.3,3.58,1.3,4.88,0l17.29-17.28c.65-.65,1.01-1.52,1.01-2.44s-.36-1.79-1.01-2.44c-.65-.65-1.52-1.01-2.44-1.01Z"/><path class="cls-1" d="m168.65,383.81c-1.27,0-2.53-.48-3.5-1.45-1.93-1.93-1.93-5.07,0-7l17.28-17.28c1.93-1.93,5.07-1.93,7,0,1.93,1.93,1.93,5.07,0,7l-17.28,17.28c-.97.97-2.23,1.45-3.5,1.45Z"/><path class="cls-1" d="m168.65,385.31c-1.72,0-3.34-.67-4.56-1.89-1.22-1.22-1.89-2.84-1.89-4.56s.67-3.34,1.89-4.56l17.28-17.28c1.22-1.22,2.84-1.89,4.56-1.89s3.34.67,4.56,1.89c1.22,1.22,1.89,2.84,1.89,4.56s-.67,3.34-1.89,4.56l-17.28,17.28c-1.22,1.22-2.84,1.89-4.56,1.89Zm17.28-27.18c-.92,0-1.79.36-2.44,1.01l-17.28,17.28c-.65.65-1.01,1.52-1.01,2.44s.36,1.79,1.01,2.44c1.3,1.3,3.57,1.3,4.88,0l17.28-17.28c.65-.65,1.01-1.52,1.01-2.44s-.36-1.79-1.01-2.44c-.65-.65-1.52-1.01-2.44-1.01Z"/><path class="cls-1" d="m485.75,252.46h-24.44c-2.73,0-4.95-2.22-4.95-4.95s2.22-4.95,4.95-4.95h24.44c2.73,0,4.95,2.22,4.95,4.95s-2.22,4.95-4.95,4.95Z"/><path class="cls-1" d="m485.75,253.97h-24.44c-3.56,0-6.45-2.89-6.45-6.45s2.89-6.45,6.45-6.45h24.44c3.56,0,6.45,2.89,6.45,6.45s-2.89,6.45-6.45,6.45Zm-24.44-9.9c-1.9,0-3.45,1.55-3.45,3.45s1.55,3.45,3.45,3.45h24.44c1.9,0,3.45-1.55,3.45-3.45s-1.55-3.45-3.45-3.45h-24.44Z"/><path class="cls-1" d="m138.69,252.46h-24.44c-2.73,0-4.95-2.22-4.95-4.95s2.22-4.95,4.95-4.95h24.44c2.73,0,4.95,2.22,4.95,4.95s-2.22,4.95-4.95,4.95Z"/><path class="cls-1" d="m138.69,253.97h-24.44c-3.56,0-6.45-2.89-6.45-6.45s2.89-6.45,6.45-6.45h24.44c3.56,0,6.45,2.89,6.45,6.45s-2.89,6.45-6.45,6.45Zm-24.44-9.9c-1.9,0-3.45,1.55-3.45,3.45s1.55,3.45,3.45,3.45h24.44c1.9,0,3.45-1.55,3.45-3.45s-1.55-3.45-3.45-3.45h-24.44Z"/><path class="cls-1" d="m431.35,383.81c-1.27,0-2.53-.48-3.5-1.45l-17.28-17.28c-1.93-1.93-1.93-5.07,0-7,1.93-1.93,5.07-1.93,7,0l17.28,17.28c1.93,1.93,1.93,5.07,0,7-.96.97-2.23,1.45-3.5,1.45Z"/><path class="cls-1" d="m431.35,385.31c-1.72,0-3.34-.67-4.56-1.89l-17.28-17.28c-1.22-1.22-1.89-2.84-1.89-4.56s.67-3.34,1.89-4.56c1.21-1.22,2.83-1.89,4.56-1.89h0c1.72,0,3.34.67,4.56,1.89l17.28,17.28c1.22,1.22,1.89,2.84,1.89,4.56s-.67,3.34-1.89,4.56c-1.22,1.22-2.83,1.89-4.56,1.89Zm-17.29-27.18h0c-.92,0-1.79.36-2.44,1.01-.65.65-1.01,1.52-1.01,2.44s.36,1.79,1.01,2.44l17.28,17.28c1.31,1.3,3.58,1.3,4.88,0,.65-.65,1.01-1.52,1.01-2.44s-.36-1.79-1.01-2.44l-17.28-17.28c-.65-.65-1.52-1.01-2.44-1.01Z"/><path class="cls-1" d="m185.94,138.4c-1.27,0-2.53-.48-3.5-1.45l-17.28-17.28c-1.93-1.93-1.93-5.07,0-7,1.93-1.93,5.07-1.93,7,0l17.28,17.28c1.93,1.93,1.93,5.07,0,7-.97.97-2.23,1.45-3.5,1.45Z"/><path class="cls-1" d="m185.94,139.9c-1.72,0-3.34-.67-4.56-1.89l-17.28-17.28c-1.22-1.22-1.89-2.84-1.89-4.56s.67-3.34,1.89-4.56,2.84-1.89,4.56-1.89,3.34.67,4.56,1.89l17.28,17.28c1.22,1.22,1.89,2.84,1.89,4.56s-.67,3.34-1.89,4.56c-1.22,1.22-2.84,1.89-4.56,1.89Zm-17.28-27.18c-.92,0-1.79.36-2.44,1.01s-1.01,1.52-1.01,2.44.36,1.79,1.01,2.44l17.28,17.28c1.3,1.3,3.58,1.3,4.88,0,.65-.65,1.01-1.52,1.01-2.44s-.36-1.79-1.01-2.44l-17.28-17.28c-.65-.65-1.52-1.01-2.44-1.01Z"/><path class="cls-1" d="m362.3,103.67c-.64,0-1.29-.12-1.91-.38-2.52-1.06-3.71-3.96-2.66-6.48l9.44-22.54c1.06-2.52,3.96-3.71,6.48-2.66,2.52,1.06,3.71,3.96,2.66,6.48l-9.44,22.54c-.79,1.9-2.63,3.04-4.57,3.04Z"/><path class="cls-1" d="m362.3,105.17c-.86,0-1.69-.17-2.49-.5-3.28-1.37-4.83-5.16-3.46-8.44l9.44-22.54c1.38-3.28,5.16-4.83,8.44-3.46,3.28,1.37,4.83,5.16,3.46,8.44l-9.44,22.54c-1.01,2.41-3.34,3.96-5.95,3.96Zm9.44-32.44c-1.35,0-2.63.8-3.19,2.12l-9.44,22.54c-.73,1.75.1,3.78,1.85,4.51.43.18.87.27,1.33.27,1.4,0,2.65-.83,3.18-2.12l9.44-22.54c.36-.85.36-1.79,0-2.64s-1.01-1.52-1.86-1.87c-.43-.18-.88-.27-1.33-.27Z"/><path class="cls-1" d="m449.27,191.3c-1.95,0-3.8-1.16-4.58-3.07-1.04-2.53.17-5.42,2.7-6.46l22.61-9.27c2.53-1.03,5.42.17,6.46,2.7,1.04,2.53-.17,5.42-2.7,6.46l-22.61,9.27c-.61.25-1.25.37-1.88.37Z"/><path class="cls-1" d="m449.27,192.8c-2.63,0-4.97-1.57-5.97-4-1.35-3.29.23-7.06,3.52-8.41l22.62-9.27c3.29-1.35,7.06.23,8.41,3.52,1.35,3.29-.23,7.07-3.52,8.41l-22.62,9.27c-.78.32-1.6.48-2.44.48Zm22.61-19.17c-.44,0-.88.08-1.3.26l-22.62,9.27c-1.76.72-2.6,2.74-1.88,4.5.53,1.3,1.79,2.14,3.19,2.14.45,0,.89-.09,1.3-.26l22.62-9.27c1.76-.72,2.6-2.74,1.88-4.5-.55-1.33-1.84-2.14-3.2-2.14Z"/><path class="cls-1" d="m128.12,322.9c-1.95,0-3.8-1.16-4.58-3.07-1.04-2.53.17-5.42,2.7-6.46l22.62-9.27c2.53-1.03,5.42.18,6.46,2.7,1.04,2.53-.17,5.42-2.7,6.46l-22.62,9.27c-.61.25-1.25.37-1.88.37Z"/><path class="cls-1" d="m128.12,324.4c-2.63,0-4.97-1.57-5.97-4.01-1.35-3.29.23-7.06,3.52-8.41l22.62-9.27c3.29-1.35,7.06.23,8.41,3.52,1.35,3.29-.23,7.07-3.52,8.41l-22.62,9.27c-.78.32-1.6.48-2.44.48Zm22.61-19.17c-.43,0-.88.08-1.3.26l-22.62,9.27c-1.76.72-2.61,2.74-1.88,4.5.53,1.3,1.79,2.14,3.19,2.14.45,0,.89-.09,1.31-.26l22.62-9.27c1.76-.72,2.6-2.74,1.88-4.5-.55-1.33-1.84-2.14-3.2-2.14Z"/><path class="cls-1" d="m471.34,324.2c-.64,0-1.29-.12-1.91-.38l-22.55-9.44c-2.52-1.06-3.71-3.96-2.66-6.48,1.06-2.52,3.96-3.71,6.48-2.66l22.55,9.44c2.52,1.06,3.71,3.96,2.66,6.48-.79,1.9-2.63,3.04-4.57,3.04Z"/><path class="cls-1" d="m471.34,325.7c-.86,0-1.69-.17-2.49-.5l-22.55-9.44c-1.59-.67-2.82-1.91-3.48-3.5-.65-1.59-.65-3.35.02-4.94.67-1.59,1.91-2.83,3.51-3.48,1.59-.65,3.35-.64,4.93.02l22.54,9.44c3.28,1.37,4.83,5.16,3.46,8.44-1.01,2.41-3.34,3.96-5.95,3.96Zm-22.54-19.34c-.44,0-.89.09-1.31.26-.85.35-1.52,1.01-1.88,1.86s-.36,1.79,0,2.64c.35.85,1.01,1.52,1.86,1.87l22.54,9.44c.43.18.87.27,1.33.27,1.4,0,2.64-.83,3.18-2.12.73-1.75-.1-3.78-1.85-4.51l-22.55-9.44c-.43-.18-.88-.27-1.33-.27Z"/><path class="cls-1" d="m151.2,190.17c-.64,0-1.29-.12-1.91-.39l-22.54-9.44c-2.52-1.06-3.71-3.96-2.66-6.48,1.06-2.52,3.96-3.71,6.48-2.66l22.54,9.44c2.52,1.06,3.71,3.96,2.66,6.48-.79,1.9-2.63,3.04-4.57,3.04Z"/><path class="cls-1" d="m151.2,191.67c-.86,0-1.69-.17-2.49-.5l-22.54-9.44c-3.28-1.38-4.83-5.16-3.46-8.44s5.16-4.83,8.44-3.46l22.54,9.44c3.28,1.38,4.83,5.16,3.46,8.44-1.01,2.41-3.34,3.96-5.95,3.96Zm-22.54-19.34c-1.35,0-2.63.8-3.19,2.12-.73,1.75.1,3.78,1.85,4.51l22.54,9.44c.43.18.87.27,1.33.27,1.4,0,2.64-.83,3.18-2.12.73-1.75-.1-3.78-1.85-4.51l-22.54-9.44c-.43-.18-.88-.27-1.33-.27Z"/><path class="cls-1" d="m238.84,103.2c-1.95,0-3.8-1.16-4.58-3.07l-9.27-22.62c-1.04-2.53.17-5.42,2.7-6.46,2.53-1.03,5.42.17,6.46,2.7l9.27,22.62c1.04,2.53-.17,5.42-2.7,6.46-.61.25-1.25.37-1.88.37Z"/><path class="cls-1" d="m238.84,104.7c-2.63,0-4.97-1.57-5.97-4.01l-9.27-22.62c-1.35-3.29.23-7.06,3.52-8.41,3.29-1.34,7.07.24,8.42,3.52l9.27,22.62c1.35,3.29-.23,7.06-3.52,8.41-.78.32-1.61.48-2.45.48Zm-9.28-32.52c-.43,0-.88.08-1.3.26-1.76.72-2.6,2.74-1.88,4.5l9.27,22.62c.53,1.3,1.79,2.14,3.19,2.14.45,0,.89-.09,1.31-.26,1.76-.72,2.6-2.74,1.88-4.5l-9.27-22.62c-.55-1.33-1.84-2.14-3.2-2.14Z"/><path class="cls-1" d="m343.36,483h-83.6c-4.72,0-8.54-3.82-8.54-8.54h0c0-4.72,3.82-8.54,8.54-8.54h83.6c4.72,0,8.54,3.82,8.54,8.54h0c0,4.72-3.82,8.54-8.54,8.54Z"/><path class="cls-1" d="m343.36,484.5h-83.6c-5.54,0-10.04-4.5-10.04-10.04s4.5-10.04,10.04-10.04h83.6c5.54,0,10.04,4.5,10.04,10.04s-4.5,10.04-10.04,10.04Zm-83.6-17.08c-3.88,0-7.04,3.16-7.04,7.04s3.16,7.04,7.04,7.04h83.6c3.88,0,7.04-3.16,7.04-7.04s-3.16-7.04-7.04-7.04h-83.6Z"/><path class="cls-1" d="m343.36,509.83h-83.6c-4.72,0-8.54-3.82-8.54-8.54h0c0-4.72,3.82-8.54,8.54-8.54h83.6c4.72,0,8.54,3.82,8.54,8.54h0c0,4.72-3.82,8.54-8.54,8.54Z"/><path class="cls-1" d="m343.36,511.33h-83.6c-5.54,0-10.04-4.5-10.04-10.04s4.5-10.04,10.04-10.04h83.6c5.54,0,10.04,4.5,10.04,10.04s-4.5,10.04-10.04,10.04Zm-83.6-17.08c-3.88,0-7.04,3.16-7.04,7.04s3.16,7.04,7.04,7.04h83.6c3.88,0,7.04-3.16,7.04-7.04s-3.16-7.04-7.04-7.04h-83.6Z"/><path class="cls-1" d="m281.27,519.93c-2.07,0-3.64,1.88-3.26,3.92,2.06,11,11.7,19.34,23.3,19.34s21.24-8.33,23.3-19.34c.38-2.03-1.19-3.92-3.26-3.92h-40.09Z"/><path class="cls-1" d="m301.31,544.68c-12.13,0-22.55-8.65-24.78-20.56-.26-1.41.11-2.85,1.03-3.95.92-1.11,2.27-1.74,3.7-1.74h40.09c1.44,0,2.79.63,3.7,1.74.92,1.1,1.29,2.54,1.03,3.95-2.23,11.91-12.65,20.56-24.78,20.56Zm-20.04-23.25c-.54,0-1.05.24-1.4.66-.34.42-.49.96-.39,1.48,1.96,10.5,11.14,18.11,21.83,18.11s19.87-7.62,21.83-18.11c.1-.53-.04-1.07-.39-1.48-.35-.42-.86-.66-1.4-.66h-40.09Z"/><path class="cls-1" d="m334.51,455.15h-67.13c-11.63,0-21.42-9.09-22.29-20.69-2.84-37.85-18.29-61.83-34.64-87.21-17.83-27.69-36.27-56.32-36.27-102.61,0-62.51,44.72-115.12,106.33-125.09,14.4-2.33,29.58-2.15,43.9.53,59.86,11.19,103.3,63.58,103.3,124.56,0,46.29-18.44,74.92-36.27,102.61-16.35,25.39-31.8,49.37-34.64,87.21-.87,11.6-10.67,20.69-22.29,20.69Zm-33.58-320.73c-5.98,0-11.95.47-17.78,1.41-53.58,8.67-92.46,54.43-92.46,108.8,0,41.44,16.34,66.81,33.64,93.68,16.75,26,34.06,52.89,37.22,94.91.23,3.05,2.79,5.43,5.84,5.43h67.13c3.1,0,5.61-2.34,5.84-5.43,3.16-42.02,20.48-68.91,37.22-94.91,17.3-26.86,33.64-52.23,33.64-93.68,0-53.05-37.78-98.61-89.83-108.34-6.68-1.25-13.57-1.87-20.46-1.87Z"/><path class="cls-1" d="m334.51,456.65h-67.13c-12.41,0-22.86-9.7-23.79-22.08-2.82-37.47-18.16-61.29-34.4-86.51-17.95-27.87-36.51-56.68-36.51-103.42,0-63.25,45.25-116.48,107.59-126.57,14.57-2.36,29.93-2.17,44.42.53,60.57,11.33,104.52,64.33,104.52,126.04,0,46.74-18.56,75.55-36.51,103.42-16.25,25.22-31.59,49.04-34.4,86.51-.93,12.38-11.38,22.08-23.79,22.08Zm-33.59-337.23c-6.78,0-13.56.53-20.17,1.6-60.88,9.85-105.06,61.83-105.06,123.61,0,45.86,18.32,74.29,36.03,101.8,16.46,25.55,32,49.69,34.87,87.91.81,10.83,9.95,19.31,20.8,19.31h67.13c10.85,0,19.98-8.48,20.8-19.3,2.87-38.23,18.42-62.36,34.88-87.92,17.71-27.5,36.03-55.94,36.03-101.8,0-60.26-42.93-112.03-102.08-123.09-7.58-1.42-15.4-2.12-23.22-2.12Zm33.59,320.73h-67.13c-3.83,0-7.05-3-7.34-6.82-3.13-41.64-20.34-68.37-36.98-94.21-17.42-27.06-33.88-52.61-33.88-94.49,0-55.11,39.42-101.5,93.72-110.28,12.66-2.05,26.17-1.88,38.75.46,52.76,9.87,91.06,56.05,91.06,109.82,0,41.88-16.46,67.44-33.88,94.49-16.65,25.85-33.86,52.57-36.99,94.21-.29,3.89-3.44,6.82-7.34,6.82Zm-33.58-304.24c-5.92,0-11.82.47-17.54,1.39-52.85,8.55-91.2,53.69-91.2,107.32,0,41,16.22,66.19,33.4,92.86,16.85,26.16,34.27,53.21,37.46,95.62.17,2.27,2.08,4.04,4.34,4.04h67.13c2.3,0,4.17-1.74,4.34-4.04,3.19-42.4,20.61-69.45,37.46-95.61,17.18-26.67,33.41-51.86,33.41-92.87,0-52.32-37.26-97.27-88.61-106.87-6.56-1.23-13.35-1.85-20.18-1.85Z"/><path class="cls-1" d="m239.53,324.05c-2.55,0-5.06-1.18-6.67-3.39-45.8-62.91-12.04-121.94-10.58-124.43,2.31-3.93,7.36-5.24,11.29-2.93,3.92,2.31,5.23,7.35,2.94,11.28-1.26,2.18-29.57,52.45,9.68,106.37,2.68,3.68,1.87,8.84-1.81,11.52-1.47,1.07-3.17,1.58-4.85,1.58Z"/><path class="cls-1" d="m239.52,325.55c-3.11,0-6.05-1.5-7.88-4.01-46.36-63.68-12.14-123.55-10.66-126.07,2.72-4.63,8.71-6.19,13.35-3.46,4.62,2.72,6.18,8.7,3.47,13.33-1.2,2.08-29.1,51.57,9.6,104.73,1.53,2.1,2.15,4.68,1.75,7.25s-1.79,4.83-3.89,6.37c-1.68,1.22-3.66,1.87-5.73,1.87h0Zm-10.12-131.88c-2.32,0-4.58,1.19-5.83,3.33-1.44,2.45-34.72,60.67,10.5,122.78,1.27,1.74,3.3,2.78,5.46,2.78h0c1.43,0,2.8-.45,3.97-1.29,1.46-1.06,2.41-2.63,2.69-4.41.28-1.78-.15-3.56-1.21-5.02-39.84-54.72-11.01-105.85-9.77-108,1.88-3.21.8-7.35-2.4-9.23-1.07-.63-2.25-.93-3.41-.93Z"/></svg>