<?xml version="1.0" encoding="UTF-8"?><svg id="Layer_1" xmlns="http://www.w3.org/2000/svg" viewBox="0 0 600 600"><defs><style></style></defs><path class="cls-1" d="m379.52,290.99h-37.06v-36.99c0-5.9-4.81-10.7-10.72-10.7h-63.47c-5.91,0-10.72,4.8-10.72,10.7v36.99h-37.06c-5.91,0-10.72,4.8-10.72,10.7v63.35c0,5.9,4.81,10.7,10.72,10.7h37.06v36.99c0,5.9,4.8,10.7,10.72,10.7h63.47c5.91,0,10.72-4.8,10.72-10.7v-36.99h37.06c5.91,0,10.72-4.8,10.72-10.7v-63.35c0-5.91-4.81-10.7-10.72-10.7Zm-56.36,76.19v36.99h-46.3v-36.99c0-5.9-4.81-10.7-10.72-10.7h-37.06v-46.22h37.06c5.91,0,10.72-4.8,10.72-10.7v-36.99h46.3v36.99c0,5.9,4.8,10.7,10.72,10.7h37.06v46.22h-37.06c-5.91,0-10.72,4.8-10.72,10.7Z"/><path class="cls-1" d="m331.74,425.44h-63.47c-7.01,0-12.72-5.7-12.72-12.7v-34.99h-35.06c-7.01,0-12.72-5.7-12.72-12.71v-63.35c0-7.01,5.71-12.71,12.72-12.71h35.06v-34.99c0-7,5.7-12.7,12.72-12.7h63.47c7.01,0,12.72,5.7,12.72,12.7v34.99h35.06c7.01,0,12.72,5.7,12.72,12.71v63.35c0,7.01-5.71,12.71-12.72,12.71h-35.06v34.99c0,7-5.71,12.7-12.72,12.7Zm-111.25-132.45c-4.81,0-8.72,3.91-8.72,8.71v63.35c0,4.8,3.91,8.71,8.72,8.71h39.06v38.99c0,4.8,3.91,8.7,8.72,8.7h63.47c4.81,0,8.72-3.9,8.72-8.7v-38.99h39.06c4.81,0,8.72-3.91,8.72-8.71v-63.35c0-4.8-3.91-8.71-8.72-8.71h-39.06v-38.99c0-4.8-3.91-8.7-8.72-8.7h-63.47c-4.81,0-8.72,3.9-8.72,8.7v38.99h-39.06Zm104.67,113.18h-50.3v-38.99c0-4.8-3.91-8.71-8.72-8.71h-39.06v-50.21h39.06c4.81,0,8.72-3.91,8.72-8.71v-38.99h50.3v38.99c0,4.8,3.91,8.71,8.72,8.71h39.06v50.21h-39.06c-4.81,0-8.72,3.91-8.72,8.71v38.99Zm-46.3-4h42.3v-34.99c0-7.01,5.71-12.71,12.72-12.71h35.06v-42.21h-35.06c-7.01,0-12.72-5.7-12.72-12.71v-34.99h-42.3v34.99c0,7.01-5.71,12.71-12.72,12.71h-35.06v42.21h35.06c7.01,0,12.72,5.7,12.72,12.71v34.99Z"/><path class="cls-1" d="m459.28,159.34h-51.1c-2.87-14.95-11.13-26.84-24.59-35.53v-4.04c0-7.05-4.68-13.45-11.38-15.58-48.86-15.45-97.51-15.45-144.62,0-6.68,2.19-11.17,8.42-11.17,15.5v4.01c-12.74,8.05-20.92,19.98-24.32,35.65h-51.37c-28.11,0-50.98,22.82-50.98,50.88v246.31c0,28.05,22.87,50.88,50.98,50.88h318.55c28.11,0,50.98-22.82,50.98-50.88v-246.31c0-28.05-22.87-50.88-50.98-50.88Zm-236.44-11.34c2.49,1.69,5.4,2.57,8.41,2.57,1.92,0,3.81-.36,5.61-1.07,41.89-16.56,84.37-16.56,126.28,0,1.82.72,3.72,1.07,5.61,1.07,2.96,0,5.9-.87,8.41-2.57,3.55-2.4,5.74-6.25,6.22-10.47,6.82,5.9,11.18,13.15,13.27,21.81h-192.77c2.36-8.93,6.45-16.3,12.73-21.89.47,4.25,2.65,8.13,6.23,10.55Zm146-28.24l-.12,16.09s-.09-.02-.15-.04l-.07-.02c-22.68-8.96-45.85-13.5-68.87-13.5s-45.67,4.4-68.47,13.06v-15.67c0-.66.45-1.32,1.03-1.51,44.11-14.45,89.72-14.44,135.56.06.61.19,1.09.86,1.09,1.53Zm119.65,185.4v151.36c0,16.07-13.11,29.15-29.21,29.15H140.72c-16.1,0-29.21-13.08-29.21-29.15v-246.31c0-16.07,13.1-29.15,29.21-29.15h318.55c16.1,0,29.21,13.08,29.21,29.15v94.94Z"/><path class="cls-1" d="m459.28,509.4H140.72c-29.21,0-52.98-23.72-52.98-52.88v-246.3c0-29.16,23.77-52.88,52.98-52.88h49.78c3.61-15,11.65-26.67,23.91-34.74v-2.92c0-7.94,5.04-14.93,12.55-17.4,47.51-15.58,96.58-15.58,145.85,0,7.52,2.39,12.77,9.58,12.77,17.48v2.96c12.91,8.62,21.05,20.26,24.22,34.61h49.47c29.21,0,52.98,23.72,52.98,52.88v246.3c0,29.16-23.77,52.88-52.98,52.88ZM140.72,161.34c-27.01,0-48.98,21.93-48.98,48.88v246.3c0,26.95,21.97,48.88,48.98,48.88h318.55c27.01,0,48.98-21.93,48.98-48.88v-246.3c0-26.95-21.97-48.88-48.98-48.88h-52.75l-.31-1.62c-2.75-14.33-10.73-25.85-23.71-34.23l-.92-.59v-5.12c0-6.18-4.1-11.8-9.98-13.67-48.45-15.32-96.7-15.32-143.4-.01-5.86,1.92-9.79,7.39-9.79,13.6v5.11l-.93.59c-12.28,7.77-20.17,19.33-23.43,34.38l-.34,1.58h-52.99Zm318.55,326.33H140.72c-17.21,0-31.21-13.97-31.21-31.15v-246.3c0-17.18,14-31.15,31.21-31.15h318.55c17.21,0,31.21,13.97,31.21,31.15v246.3c0,17.17-14,31.15-31.21,31.15ZM140.72,183.06c-15,0-27.21,12.18-27.21,27.15v246.3c0,14.97,12.2,27.15,27.21,27.15h318.55c15,0,27.21-12.18,27.21-27.15v-246.3c0-14.97-12.21-27.15-27.21-27.15H140.72Zm258.47-21.73h-197.91l.66-2.51c2.55-9.68,6.92-17.17,13.34-22.88l2.9-2.58.42,3.85c.41,3.77,2.37,7.09,5.36,9.11h0c3.52,2.39,8.15,2.89,12.16,1.3,42.38-16.76,85.36-16.75,127.75,0,4.01,1.59,8.64,1.09,12.16-1.29,2.98-2.01,4.93-5.3,5.36-9.04l.43-3.76,2.86,2.48c7.03,6.09,11.71,13.77,13.9,22.85l.6,2.47Zm-192.66-4h187.5c-1.87-6.17-5-11.43-9.48-15.97-1.16,3.39-3.34,6.3-6.28,8.29-2.81,1.91-6.11,2.92-9.53,2.92-2.18,0-4.32-.41-6.35-1.21-41.41-16.37-83.4-16.37-124.81,0-2.03.8-4.17,1.21-6.35,1.21-3.42,0-6.72-1.01-9.53-2.92-2.94-1.99-5.12-4.9-6.27-8.27-3.97,4.28-6.91,9.54-8.91,15.96Zm22.63-19.09v-18.57c0-1.52,1.01-2.96,2.41-3.41,44.52-14.59,90.54-14.57,136.79.05,1.43.45,2.48,1.89,2.48,3.44h0s-.13,18.09-.13,18.09h-1.99c-.36,0-.63-.09-.75-.13l-.12-.04c-22.53-8.9-45.46-13.39-68.22-13.39s-45.19,4.35-67.76,12.93l-2.71,1.03Zm70.47-17.96c22.42,0,44.98,4.26,67.11,12.67l.09-12.92c-45.21-14.23-90.18-14.26-133.67-.08v12.51c22.14-8.09,44.49-12.18,66.47-12.18Zm67.52-.15h0s0,0,0,0Z"/></svg>