<?xml version="1.0" encoding="UTF-8"?><svg id="Layer_1" xmlns="http://www.w3.org/2000/svg" viewBox="0 0 600 600"><defs><style>.cls-1{fill:#de7f43;}</style></defs><g id="E_-_400_Insignia_military_rank"><path class="cls-1" d="m445.6,50.2H155.14c-5.81,0-10.79,4.98-10.79,10.79v363.49c0,3.32,1.66,5.81,4.15,8.3l145.23,114.52c4.15,3.32,9.13,3.32,12.45,0l145.23-114.52c2.49-1.66,4.15-4.99,4.15-8.3V60.99c.83-5.81-4.15-10.79-9.96-10.79Zm-9.96,368.47l-135.27,106.23-134.45-106.23V70.95h269.72v347.72Z"/><path class="cls-1" d="m200.78,182.98l53.94,39.01-20.74,63.07c-1.66,4.15,0,9.13,4.15,11.62,3.32,2.49,8.3,2.49,12.45,0l53.94-39.01,53.95,39.01c1.66,1.66,4.15,1.66,5.81,1.66,6.64,0,12.45-6.64,9.96-13.28l-20.74-63.07,53.94-39.01c3.32-2.49,4.98-7.47,4.15-11.62-1.66-4.15-4.98-7.47-9.96-7.47h-66.39l-20.75-63.07c-1.66-4.15-4.98-7.47-9.96-7.47s-8.3,2.49-9.96,7.47l-20.75,63.07h-66.39c-4.15,0-8.3,2.49-9.96,7.47-1.66,4.15,0,9.13,3.32,11.62Zm80.5,1.66c4.15,0,8.3-2.49,9.96-7.47l13.28-39.84,13.28,39.84c1.66,4.14,4.98,7.47,9.96,7.47h42.33l-34.03,24.89c-3.32,2.5-4.98,7.48-4.15,11.62l13.28,39.84-34.02-24.9c-3.32-2.49-8.3-2.49-12.45,0l-34.02,24.9,13.28-39.84c1.66-4.14,0-9.12-4.15-11.62l-34.02-24.89h41.49Z"/><path class="cls-1" d="m394.15,340.67h-186.73c-5.81,0-10.79,4.98-10.79,10.79s4.98,10.78,10.79,10.78h186.73c5.81,0,10.79-4.98,10.79-10.78s-5.81-10.79-10.79-10.79Z"/><path class="cls-1" d="m394.15,392.95h-186.73c-5.81,0-10.79,4.99-10.79,10.79s4.98,10.79,10.79,10.79h186.73c5.81,0,10.79-4.98,10.79-10.79s-5.81-10.79-10.79-10.79Z"/></g></svg>