<?xml version="1.0" encoding="UTF-8"?><svg id="Layer_1" xmlns="http://www.w3.org/2000/svg" viewBox="0 0 600 600"><defs><style>.cls-1{fill:#de7f43;}</style></defs><path class="cls-1" d="m300,187.96h0c18.39,0,32.65,16.07,30.47,34.33l-13.48,112.73c-1.03,8.65-8.37,15.16-17.08,15.16h0c-8.72,0-16.06-6.52-17.08-15.18l-13.3-112.75c-2.15-18.24,12.1-34.28,30.47-34.28Z"/><path class="cls-1" d="m282.62,404.94c-4.73-4.73-7.09-10.52-7.09-17.39s2.36-12.66,7.09-17.39c4.73-4.73,10.52-7.09,17.39-7.09s12.66,2.36,17.39,7.09c4.73,4.73,7.09,10.53,7.09,17.39s-2.36,12.66-7.09,17.39c-4.73,4.73-10.53,7.09-17.39,7.09s-12.66-2.36-17.39-7.09Z"/><path class="cls-1" d="m300,505.19c-113.14,0-205.19-92.05-205.19-205.19s92.05-205.19,205.19-205.19,205.19,92.05,205.19,205.19-92.05,205.19-205.19,205.19Zm0-385.55c-99.45,0-180.36,80.91-180.36,180.36s80.91,180.36,180.36,180.36,180.36-80.91,180.36-180.36-80.91-180.36-180.36-180.36Z"/></svg>