<?xml version="1.0" encoding="UTF-8"?><svg id="Layer_1" xmlns="http://www.w3.org/2000/svg" viewBox="0 0 600 600"><defs><style>.cls-1{fill:#de7f43;}</style></defs><path class="cls-1" d="m326.27,499.82h-160.27c-27.33,0-49.57-22.24-49.57-49.57V149.75c0-27.33,22.24-49.57,49.57-49.57h160.27c27.33,0,49.57,22.24,49.57,49.57v29.37l-199.82.17c-.29,0-.52.23-.52.52v210.35c0,.29.23.52.52.52,46.67-.05,134.47-.14,140.6-.16h.43s58.79,0,58.79,0v59.75c0,27.33-22.24,49.57-49.57,49.57ZM166,119.18c-16.85,0-30.57,13.71-30.57,30.57v300.51c0,16.85,13.71,30.57,30.57,30.57h160.27c16.85,0,30.57-13.71,30.57-30.57v-40.75h-39.79c-3.35.02-22.28.04-141.03.16-10.77,0-19.53-8.76-19.53-19.52v-210.35c0-10.76,8.75-19.51,19.51-19.52l180.83-.15v-10.38c0-16.85-13.71-30.57-30.57-30.57h-160.27Z"/><path class="cls-1" d="m256.16,465.28h-20.03c-11.06,0-20.03-8.97-20.03-20.03h0c0-11.06,8.97-20.03,20.03-20.03h20.03c11.06,0,20.03,8.97,20.03,20.03h0c0,11.06-8.97,20.03-20.03,20.03Z"/><path class="cls-1" d="m268.72,269.86c-8.3,0-15.03,6.73-15.03,15.03s6.73,15.03,15.03,15.03,15.03-6.73,15.03-15.03-6.73-15.03-15.03-15.03Zm70.12-25.12c-19.36,0-35.06,15.19-35.06,40.07s15.7,40.07,35.06,40.07,35.06-14.86,35.06-40.07-15.7-40.07-35.06-40.07Zm133.65-37.85c-2.53-5.99-7.9-10.49-14.42-11.83-1.3-.27-2.65-.41-4.04-.41h-230.39c-1.38,0-2.73.14-4.04.41-6.52,1.34-11.89,5.84-14.42,11.83-1.01,2.4-1.57,5.03-1.57,7.8v140.24c0,2.77.56,5.4,1.57,7.8,2.53,5.99,7.9,10.49,14.42,11.83,1.3.27,234.43.41,234.43.41,1.38,0,2.73-.14,4.04-.41,6.52-1.33,11.89-5.83,14.42-11.83,1.01-2.4,1.58-5.03,1.58-7.8v-140.24c0-2.77-.56-5.4-1.58-7.8Zm-23.47,112.67c-16.61.41-29.95,13.75-30.36,30.36h-159.65c-.41-16.61-13.75-29.95-30.36-30.36v-69.5c16.61-.41,29.95-13.75,30.36-30.36h159.65c.41,16.61,13.75,29.95,30.36,30.36v69.5Zm-40.07-49.68c-8.3,0-15.03,6.73-15.03,15.03s6.73,15.03,15.03,15.03,15.03-6.73,15.03-15.03-6.73-15.03-15.03-15.03Z"/></svg>