<?xml version="1.0" encoding="UTF-8"?><svg id="Layer_1" xmlns="http://www.w3.org/2000/svg" viewBox="0 0 600 600"><defs><style>.cls-1{fill:#de7f43;}</style></defs><path class="cls-1" d="m364.63,319.53c31.63-21.01,52.55-56.92,52.55-97.65,0-64.62-52.56-117.18-117.18-117.18s-117.18,52.56-117.18,117.18c0,40.74,20.92,76.65,52.55,97.65-71.58,26.41-122.86,95.13-122.86,175.77h31.25c0-86.16,70.09-156.24,156.24-156.24s156.24,70.09,156.24,156.24h31.25c0-80.64-51.28-149.36-122.86-175.77Zm-64.63-11.72c-47.38,0-85.93-38.55-85.93-85.93s38.55-85.93,85.93-85.93,85.93,38.55,85.93,85.93-38.55,85.93-85.93,85.93Z"/></svg>