<?xml version="1.0" encoding="UTF-8"?><svg id="Layer_1" xmlns="http://www.w3.org/2000/svg" viewBox="0 0 600 600"><defs><style>.cls-1{fill:#de7f43;}</style></defs><path class="cls-1" d="m346.92,342.53c22.96-15.25,38.15-41.32,38.15-70.89,0-46.91-38.16-85.07-85.07-85.07s-85.07,38.16-85.07,85.07c0,29.57,15.18,55.64,38.15,70.89-51.96,19.17-89.19,69.06-89.19,127.6h22.68c0-62.54,50.88-113.42,113.42-113.42s113.42,50.88,113.42,113.42h22.68c0-58.54-37.22-108.42-89.19-127.6Zm-109.3-70.89c0-34.4,27.98-62.38,62.38-62.38s62.38,27.98,62.38,62.38-27.98,62.38-62.38,62.38-62.38-27.98-62.38-62.38Z"/><path class="cls-1" d="m460.34,285.82c22.96-15.25,38.15-41.32,38.15-70.89,0-46.91-38.16-85.07-85.07-85.07-22.72,0-43.35,9.01-58.62,23.58-5.66,5.4-10.55,11.56-14.55,18.32,7.08,2.86,13.81,6.4,20.05,10.63,4.01-6.53,9.17-12.25,15.22-16.9,10.52-8.08,23.64-12.94,37.9-12.94,34.4,0,62.38,27.98,62.38,62.38,0,28.55-19.31,52.63-45.54,60.01-5.37,1.51-11,2.37-16.85,2.37-2.01,0-3.98-.11-5.94-.3-.41,8.17-1.69,16.09-3.82,23.68,3.24-.28,6.45-.7,9.76-.7,4.61,0,9.12.36,13.59.89,56.15,6.74,99.83,54.59,99.83,112.53h22.68c0-58.54-37.22-108.42-89.19-127.6Z"/><path class="cls-1" d="m186.58,300c3.31,0,6.52.42,9.76.7-2.13-7.59-3.41-15.52-3.82-23.68-1.96.19-3.94.3-5.94.3-5.84,0-11.48-.87-16.85-2.37-26.23-7.38-45.54-31.45-45.54-60.01,0-34.4,27.98-62.38,62.38-62.38,14.26,0,27.38,4.86,37.9,12.94,6.05,4.65,11.21,10.37,15.22,16.9,6.24-4.23,12.98-7.76,20.05-10.63-4.01-6.77-8.9-12.93-14.55-18.32-15.27-14.57-35.9-23.58-58.62-23.58-46.91,0-85.07,38.16-85.07,85.07,0,29.57,15.18,55.64,38.15,70.89-51.96,19.18-89.19,69.06-89.19,127.6h22.68c0-57.94,43.69-105.78,99.83-112.53,4.46-.54,8.98-.89,13.59-.89Z"/></svg>