<?xml version="1.0" encoding="UTF-8"?><svg id="Layer_1" xmlns="http://www.w3.org/2000/svg" viewBox="0 0 600 600"><defs><style>.save-icon{fill:#fff;}</style></defs><path class="cls-1" d="m486.28,217.13l-98.94-111.64c-2.89-3.26-7.75-5.44-12.1-5.44H121.84c-6.89,0-12.5,5.61-12.5,12.5v374.9c0,6.89,5.61,12.5,12.5,12.5h356.32c6.89,0,12.5-5.61,12.5-12.5V228.68c0-3.95-1.76-8.59-4.38-11.54Zm-132.91-98.08v115.05h-159.79v-115.05h159.79Zm118.29,361.9H128.34V119.05h46.24v121.55c0,6.89,5.61,12.5,12.5,12.5h172.79c6.89,0,12.5-5.61,12.5-12.5v-121.55h1.59l97.69,110.23v251.67Z"/><path class="cls-1" d="m174.54,299.01v128.06c0,6.89,5.61,12.5,12.5,12.5h225.91c6.89,0,12.5-5.61,12.5-12.5v-128.06c0-6.89-5.61-12.5-12.5-12.5h-225.91c-6.89,0-12.5,5.61-12.5,12.5Zm19,6.5h212.91v115.06h-212.91v-115.06Z"/></svg>