<?xml version="1.0" encoding="UTF-8"?><svg id="Layer_1" xmlns="http://www.w3.org/2000/svg" viewBox="0 0 600 600"><defs><style></style></defs><path class="cls-1" d="m560.84,261.23c6.66-1.39,11.61-8.55,13.77-20.14,2.74-14.64.05-31.53-12.11-36.31-31-12.72-66.3-19.17-104.91-19.17-43.05,0-86.84,8.07-126.63,23.34-8.77,3.36-17.37,3.95-27.33,4.62l-.65.04c-2.23.15-4.54.23-6.86.23-18.14,0-36.02-4.56-54.94-9.39-11.74-3-23.89-6.1-36.03-7.96-19.96-3.08-39.42-4.65-57.87-4.65-23.13,0-45.28,2.46-65.85,7.3-15.43,3.63-30.31,8.7-44.22,15.08-13.38,5.91-14.27,27.11-11.6,39.93,3.26,15.65,10.75,17.98,14.92,17.98.67,0,1.36-.06,2.03-.19.13-.02.25-.04.36-.04,1.37,0,3.56,3,4.72,5.79,0,6.77.73,35.06,11.99,64.31,17.16,44.59,50.43,69.54,96.2,72.14,2.55.14,5.12.22,7.63.22,18.65,0,35.95-3.93,51.43-11.68,14.54-7.28,26.78-17.55,36.38-30.52,14.03-18.96,22.5-41.41,28.93-60.85.75-2.27,1.46-4.74,2.21-7.34,4.13-14.36,8.3-26.34,17.62-27.56.63-.08,1.23-.12,1.8-.12,8.31,0,12.02,10.05,16.35,24.25.99,3.24,1.92,6.31,2.97,9.1,7.68,20.46,16.84,41.94,31.73,60.44,20.08,24.94,49.96,38.68,84.14,38.68,4.24,0,8.59-.22,12.92-.64,45.62-4.48,77.84-30.78,93.17-76.03,9.29-27.43,9.63-53.66,9.41-62.83,3.19-3.27,6.6-6.58,8.33-8.03Zm-21.36-.03c-1.44,1.52-2.18,3.56-2.04,5.65.02.3,1.83,29.89-8.51,60.43-13.49,39.83-40.56,62.01-80.45,65.94-3.85.38-7.7.57-11.46.57-29.56,0-55.3-11.75-72.48-33.09-13.56-16.85-22.13-37.03-29.38-56.32-.88-2.35-1.75-5.19-2.67-8.2-4.23-13.88-10.63-34.85-30.67-34.85-1.22,0-2.48.08-3.74.25-19.81,2.58-25.98,24.06-30.07,38.27-.71,2.46-1.37,4.78-2.04,6.77-6.36,19.25-14.01,39.44-26.75,56.66-17.24,23.31-44.15,36.14-75.77,36.14-2.23,0-4.51-.07-6.78-.19-39.88-2.27-67.78-23.19-82.92-62.19-11.69-30.09-11.13-60.13-11.13-60.42.02-.83-.1-1.66-.35-2.45-.56-1.76-5.85-17.2-19.35-17.2-.26,0-.51,0-.77.02-1.88-3.5-3.81-13.52-2.16-22.07.8-4.16,2.26-6.53,3.28-6.97.04-.02.09-.04.13-.06,13.02-5.98,26.97-10.74,41.46-14.14,19.45-4.58,40.45-6.9,62.43-6.9,17.68,0,36.38,1.5,55.59,4.47,11.42,1.76,23.21,4.77,34.61,7.67,18.99,4.84,38.62,9.85,58.64,9.85,2.66,0,5.32-.09,7.88-.27l.65-.04c10.7-.72,20.82-1.41,31.69-5.58,37.55-14.41,80.62-22.34,121.26-22.34,36.68,0,70.08,6.08,99.28,18.08.05.02.09.04.14.06,1.05.41,2.43,2.6,3.13,6.57,1.51,8.6-1.03,18.52-3.1,21.28-2.46.3-5.76,2.23-17.56,14.64Z"/><path class="cls-1" d="m163.45,414.89c-2.54,0-5.11-.07-7.65-.22-45.98-2.61-79.39-27.67-96.63-72.46-11.1-28.84-12.01-56.45-12.02-64.39-1.28-3.04-3.31-5.39-4.22-5.39-.08,0-.17.01-.26.03-.7.13-1.42.2-2.12.2-4.32,0-12.07-2.39-15.41-18.38-2.71-12.97-1.77-34.46,11.88-40.49,13.93-6.39,28.84-11.48,44.31-15.11,20.61-4.85,42.8-7.32,65.97-7.32,18.47,0,37.96,1.57,57.94,4.65,12.16,1.87,24.31,4.97,36.07,7.97,18.89,4.82,36.74,9.37,54.82,9.37,2.31,0,4.61-.08,6.83-.23l.66-.04c9.93-.67,18.49-1.25,27.19-4.59,39.85-15.29,83.7-23.37,126.81-23.37,38.68,0,74.04,6.46,105.1,19.21,12.42,4.88,15.18,22.03,12.41,36.86-2.19,11.73-7.17,19-14.04,20.51-1.61,1.35-4.73,4.37-8.05,7.76.22,10.02-.28,35.74-9.44,62.79-15.4,45.46-47.76,71.87-93.59,76.37-4.35.43-8.72.65-12.97.65-34.33,0-64.35-13.8-84.53-38.86-14.93-18.55-24.11-40.08-31.81-60.58-1.06-2.82-2-5.88-2.99-9.13-4.27-13.99-7.9-23.9-15.87-23.9-.55,0-1.13.04-1.74.12-9.01,1.18-13.12,13.01-17.2,27.2-.75,2.61-1.46,5.07-2.22,7.36-6.44,19.49-14.93,41.98-29,60.99-9.64,13.03-21.94,23.35-36.56,30.67-15.54,7.79-32.92,11.74-51.65,11.74Zm-120.53-143.46c1.83,0,4.13,3.57,5.18,6.1l.04.19c0,7.76.87,35.33,11.95,64.13,17.09,44.4,50.2,69.23,95.76,71.82,2.52.14,5.08.22,7.6.22,18.57,0,35.8-3.91,51.21-11.63,14.47-7.25,26.65-17.47,36.2-30.38,13.99-18.9,22.44-41.3,28.86-60.71.75-2.27,1.46-4.73,2.21-7.32,4.18-14.53,8.42-26.66,18.03-27.92.65-.08,1.28-.13,1.87-.13,8.66,0,12.44,10.2,16.83,24.6.98,3.23,1.92,6.28,2.96,9.07,7.67,20.42,16.81,41.86,31.65,60.3,19.98,24.82,49.73,38.49,83.75,38.49,4.22,0,8.55-.22,12.87-.64,45.41-4.46,77.48-30.64,92.74-75.69,9.17-27.09,9.62-52.84,9.38-62.66v-.21s.14-.15.14-.15c3.46-3.55,6.75-6.71,8.37-8.06l.1-.08.12-.03c6.51-1.36,11.26-8.37,13.38-19.74,2.7-14.43.09-31.08-11.8-35.75-30.95-12.7-66.18-19.14-104.73-19.14-42.99,0-86.72,8.06-126.45,23.31-8.83,3.39-17.47,3.98-27.47,4.65l-.66.04c-2.24.15-4.56.23-6.89.23-18.21,0-36.11-4.57-55.06-9.4-11.74-2.99-23.87-6.09-35.98-7.95-19.93-3.08-39.37-4.64-57.79-4.64-23.09,0-45.21,2.45-65.74,7.29-15.4,3.62-30.25,8.68-44.13,15.05-13.12,5.79-13.95,26.72-11.31,39.38,3.19,15.3,10.41,17.58,14.43,17.58.65,0,1.3-.06,1.94-.18.16-.03.32-.05.45-.05Zm120.53,128.49c-2.24,0-4.53-.07-6.8-.2-40.09-2.28-68.14-23.31-83.36-62.51-11.72-30.19-11.17-60.31-11.16-60.62.02-.78-.09-1.55-.33-2.29-.55-1.73-5.73-16.86-18.88-16.86-.25,0-.5,0-.75.02h-.31s-.15-.26-.15-.26c-1.96-3.66-3.88-13.75-2.21-22.4.84-4.36,2.4-6.83,3.57-7.34l.12-.06c13.05-5.99,27.04-10.76,41.55-14.17,19.49-4.59,40.53-6.92,62.54-6.92,17.71,0,36.43,1.51,55.66,4.48,11.45,1.76,23.24,4.77,34.65,7.68,18.95,4.84,38.55,9.84,58.52,9.84,2.65,0,5.29-.09,7.85-.27l.65-.04c10.67-.72,20.74-1.4,31.54-5.55,37.61-14.43,80.74-22.38,121.44-22.38,36.74,0,70.21,6.09,99.47,18.11l-.05.52.18-.47c1.45.56,2.8,3.29,3.44,6.95,1.49,8.48-.94,18.66-3.2,21.67l-.13.17-.21.03c-2.5.3-6.12,2.77-17.26,14.49h0c-1.34,1.41-2.04,3.33-1.91,5.27.02.3,1.84,29.98-8.54,60.62-13.56,40.03-40.77,62.33-80.88,66.27-3.87.38-7.74.57-11.51.57-29.71,0-55.59-11.82-72.87-33.28-13.6-16.91-22.2-37.12-29.46-56.46-.89-2.37-1.76-5.22-2.68-8.23-4.19-13.74-10.52-34.5-30.19-34.5-1.19,0-2.43.08-3.68.25-19.48,2.54-25.6,23.82-29.65,37.91-.72,2.52-1.38,4.81-2.04,6.79-6.38,19.29-14.04,39.53-26.82,56.8-17.34,23.44-44.39,36.34-76.17,36.34Zm-120.53-143.46c13.86,0,19.26,15.76,19.83,17.55.27.85.39,1.73.37,2.62,0,.3-.56,30.22,11.09,60.23,15.07,38.8,42.82,59.61,82.49,61.87,2.26.13,4.53.19,6.75.19,31.46,0,58.22-12.76,75.37-35.94,12.7-17.16,20.33-37.3,26.68-56.52.65-1.96,1.31-4.25,2.01-6.67,4.14-14.42,10.37-36.08,30.51-38.71,1.29-.17,2.57-.25,3.81-.25,20.41,0,26.88,21.19,31.15,35.21.92,3,1.78,5.83,2.66,8.17,7.23,19.25,15.78,39.39,29.3,56.18,17.08,21.22,42.69,32.91,72.09,32.91,3.74,0,7.57-.19,11.41-.57,39.68-3.9,66.61-25.97,80.03-65.6,10.32-30.46,8.51-59.94,8.49-60.24-.15-2.22.65-4.42,2.18-6.03h0c11.1-11.68,14.88-14.32,17.64-14.76,1.83-2.69,4.42-12.06,2.89-20.73-.7-4.01-2.07-5.9-2.82-6.19l-.15-.06c-29.14-11.97-62.48-18.04-99.09-18.04-40.59,0-83.59,7.92-121.09,22.31-10.94,4.2-21.09,4.89-31.83,5.61l-.65.04c-2.58.18-5.24.27-7.92.27-20.09,0-39.75-5.02-58.76-9.87-11.39-2.91-23.16-5.91-34.56-7.67-19.18-2.96-37.85-4.47-55.51-4.47-21.93,0-42.9,2.32-62.31,6.89-14.46,3.4-28.37,8.15-41.37,14.11l-.14.06c-.72.32-2.17,2.39-2.99,6.61-1.53,7.91.09,17.64,1.97,21.46.16,0,.32,0,.47,0Z"/><path class="cls-1" d="m248.74,248.55c-2.52-4.74-6.29-9.73-21.97-14.15-5.67-1.68-11.56-2.69-16.3-3.5-1.88-.32-3.65-.48-5.14-.78-16.03-3.22-32.56-4.84-49.14-4.84h-.04c-.74,0-1.45-.04-2.12.16-.49-.01-.98-.1-1.49-.11-5.75-.15-11.69-.33-17.52,0-.55-.08-1.11-.12-1.68-.08-16.55,1.23-36.92,4.53-47.72,19.36-8.99,12.35-9.22,33.6-7.94,44.2,1.21,10.12,3.02,19.49,5.4,27.85.93,3.3,3.93,5.44,7.2,5.44.68,0,1.36-.09,2.05-.29,3.98-1.13,6.29-5.27,5.16-9.24-2.16-7.61-3.82-16.21-4.93-25.56-1.33-11.02.03-26.54,5.18-33.6,6.98-9.59,23.12-12.15,35.28-13.14.58.08,1.08.09,1.57.05,5.59-.4,11.69-.25,17.58-.1,3.14.08,6.39.16,9.57.16.66,0,1.3-.09,1.92-.26,13.08.48,26.08,1.98,38.75,4.53,1.7.34,3.58.66,5.56,1,4.59.79,9.79,1.68,14.62,3.11.03.01.07.02.11.03,10.87,3.05,12.06,5.29,12.85,6.78.17.32.33.62.5.92,4.46,7.87,4.9,18.54,1.38,33.57-1.48,6.3-3.42,12.57-5.29,18.64l-.03.09c-.11.35-.18.7-.23,1.05-.14.45-.29.9-.43,1.34-.48,1.5-.95,2.94-1.41,4.46-.18.61-.37,1.2-.55,1.79-.17.54-.33,1.07-.5,1.62-1.57,4.91-3.62,9.68-6.1,14.15-.76,1.38-1.62,2.73-2.38,3.89-4.16,6.46-9.2,11.98-14.99,16.4-8.8,6.73-19.2,11.05-30.91,12.82-19.78,3-39.67-2.51-54.56-15.11-3.16-2.67-7.88-2.28-10.55.88-2.67,3.16-2.28,7.88.88,10.55,14.95,12.65,33.97,19.45,53.63,19.45,4.26,0,8.56-.32,12.84-.97,14.23-2.15,26.93-7.45,37.75-15.72,7.17-5.47,13.39-12.27,18.48-20.17.88-1.35,1.91-2.97,2.9-4.75,2.97-5.36,5.42-11.06,7.29-16.93.01-.04.02-.08.04-.11.16-.52.32-1.03.47-1.54.2-.65.4-1.3.59-1.94.43-1.4.87-2.77,1.32-4.19.23-.71.46-1.43.7-2.18.12-.39.2-.78.26-1.17,1.88-6.09,3.8-12.37,5.34-18.92,2.79-11.91,5.53-29.47-2.93-44.38-.1-.18-.2-.36-.3-.55Z"/><path class="cls-1" d="m163.99,382.58c-19.87,0-39.03-6.95-53.95-19.57-1.63-1.38-2.62-3.31-2.8-5.43-.18-2.13.48-4.19,1.86-5.82s3.31-2.62,5.43-2.8c2.13-.18,4.19.48,5.82,1.86,14.78,12.51,34.53,17.97,54.16,14.99,11.62-1.76,21.95-6.04,30.68-12.72,5.75-4.38,10.75-9.86,14.88-16.27.74-1.14,1.6-2.5,2.36-3.86,2.46-4.45,4.5-9.18,6.06-14.06.14-.47.29-.93.43-1.4l.12-.38c.17-.53.33-1.07.5-1.62.46-1.52.93-2.97,1.41-4.47l.43-1.34c.05-.36.13-.71.23-1.05,1.9-6.14,3.83-12.41,5.31-18.69,3.5-14.9,3.07-25.45-1.32-33.21-.17-.3-.33-.61-.51-.93-.75-1.41-1.88-3.53-12.54-6.53l-.12-.03c-4.78-1.42-9.96-2.31-14.52-3.09-1.91-.33-3.85-.66-5.61-1.01-12.54-2.52-25.52-4.03-38.6-4.51-.66.17-1.32.25-1.97.25-3.14,0-6.34-.08-9.44-.16h-.14c-5.88-.15-11.96-.31-17.53.09-.55.04-1.07.03-1.62-.05-11.63.95-27.88,3.34-34.86,12.93-5.07,6.96-6.41,22.33-5.09,33.25,1.11,9.32,2.77,17.9,4.92,25.48.58,2.05.33,4.21-.71,6.07-1.04,1.86-2.74,3.21-4.79,3.79-.71.2-1.45.3-2.18.3-3.55,0-6.71-2.39-7.68-5.81-2.38-8.39-4.2-17.79-5.41-27.93-1.29-10.68-1.05-32.08,8.03-44.55,10.91-14.99,31.43-18.33,48.09-19.57.54-.04,1.11-.01,1.73.08,5.46-.31,11.01-.16,16.38-.03l1.14.03c.26,0,.52.03.78.06.21.02.42.04.63.05.63-.17,1.27-.16,1.88-.16h.3c16.67,0,33.23,1.63,49.28,4.85.8.16,1.69.28,2.63.41.8.11,1.64.22,2.5.37,4.75.81,10.66,1.82,16.36,3.51,15.86,4.46,19.7,9.56,22.27,14.39l.02.04c.09.17.18.34.27.5,8.55,15.07,5.79,32.75,2.98,44.75-1.6,6.78-3.68,13.53-5.35,18.95-.05.38-.14.79-.26,1.17l-.7,2.18c-.47,1.46-.9,2.8-1.32,4.18-.19.64-.39,1.29-.6,1.94-.17.56-.32,1.04-.47,1.54l-.04.12c-1.88,5.9-4.34,11.63-7.33,17.02-.99,1.79-2.03,3.42-2.91,4.78-5.12,7.96-11.38,14.79-18.59,20.3-10.89,8.33-23.67,13.65-37.98,15.82-4.27.65-8.62.98-12.92.98Zm-48.78-32.65c-.2,0-.39,0-.59.03-1.86.15-3.55,1.02-4.75,2.45-1.21,1.42-1.78,3.23-1.63,5.09.15,1.86,1.02,3.55,2.45,4.75,14.73,12.47,33.66,19.33,53.3,19.33,4.25,0,8.55-.32,12.77-.96,14.14-2.14,26.77-7.4,37.53-15.63,7.13-5.44,13.3-12.18,18.36-20.04.88-1.35,1.9-2.96,2.88-4.73,2.95-5.33,5.39-11,7.25-16.84l.03-.11c.15-.49.3-.97.45-1.46.23-.73.43-1.38.62-2.01.42-1.38.85-2.74,1.3-4.13l.72-2.24c.1-.33.18-.68.24-1.09,1.77-5.76,3.76-12.21,5.35-18.96,2.77-11.83,5.49-29.26-2.88-44.02-.1-.17-.19-.35-.29-.53l.42-.27-.44.23c-2.47-4.64-6.18-9.54-21.66-13.9-5.64-1.67-11.52-2.68-16.25-3.49-.85-.15-1.68-.26-2.47-.36-.96-.13-1.86-.25-2.69-.42-15.99-3.21-32.49-4.83-49.04-4.83h-.35c-.59,0-1.16,0-1.67.14l-.08.02h-.08c-.26,0-.52-.03-.78-.06-.23-.02-.47-.05-.71-.05l-1.14-.03c-5.36-.14-10.91-.28-16.34.03h-.05s-.05,0-.05,0c-.57-.09-1.08-.11-1.56-.08-16.44,1.22-36.68,4.5-47.35,19.16-8.9,12.22-9.12,33.31-7.85,43.84,1.2,10.09,3.01,19.43,5.38,27.78.85,2.99,3.61,5.08,6.72,5.08.64,0,1.28-.09,1.91-.27,3.71-1.05,5.87-4.92,4.81-8.63-2.17-7.64-3.83-16.26-4.95-25.64-1.34-11.11.05-26.79,5.27-33.96,7.24-9.94,23.81-12.38,35.64-13.35h.05s.05,0,.05,0c.5.07.97.08,1.47.05,5.63-.4,11.73-.25,17.63-.1h.14c3.09.08,6.29.16,9.41.16.58,0,1.18-.08,1.79-.24l.07-.02h.07c13.15.48,26.22,2.01,38.83,4.54,1.74.35,3.68.68,5.54,1,4.63.79,9.83,1.68,14.68,3.12l.1.03c11.08,3.11,12.33,5.46,13.15,7.02.17.31.33.62.49.9,4.53,7.99,4.98,18.77,1.43,33.93-1.49,6.32-3.42,12.6-5.3,18.67-.12.37-.18.69-.25,1.07l-.45,1.41c-.48,1.49-.94,2.94-1.4,4.45-.17.56-.33,1.1-.5,1.63l-.12.38c-.14.46-.29.92-.43,1.4-1.58,4.95-3.64,9.75-6.14,14.25-.77,1.39-1.65,2.76-2.4,3.92-4.19,6.51-9.27,12.07-15.11,16.53-8.87,6.78-19.35,11.13-31.14,12.91-19.92,3.03-39.95-2.53-54.96-15.22-1.27-1.08-2.85-1.65-4.5-1.65Z"/><path class="cls-1" d="m454.05,223.57c-4.88.2-9.49.39-13.8.32-.45-.05-.92-.07-1.43-.06-.4.01-.95.03-1.54.05-.44.02-1.11.04-1.65.06-.34-.05-.68-.08-1.03-.08-23.82-.25-38.56,1.79-60.64,8.32-15.67,4.41-19.45,9.41-21.97,14.15-.1.19-.2.38-.3.56-8.46,14.91-5.72,32.47-2.93,44.38,1.54,6.55,3.46,12.84,5.35,18.93.06.38.14.77.26,1.15.26.82.52,1.62.77,2.4.43,1.34.85,2.64,1.25,3.98.19.64.38,1.25.58,1.87.17.54.34,1.08.51,1.64,0,.03.02.06.03.09,1.1,3.46,2.41,6.87,3.89,10.14,1.25,2.77,3.97,4.4,6.82,4.4,1.03,0,2.08-.22,3.08-.67,3.77-1.7,5.44-6.14,3.73-9.91-1.23-2.72-2.32-5.57-3.24-8.46-.17-.57-.35-1.13-.52-1.69-.18-.58-.36-1.15-.54-1.74-.43-1.41-.87-2.8-1.33-4.22-.16-.51-.33-1.03-.49-1.55-.06-.35-.13-.71-.24-1.06l-.08-.25c-1.86-6.01-3.78-12.23-5.24-18.47-3.53-15.04-3.09-25.71,1.37-33.57.17-.3.33-.61.5-.92.79-1.48,1.98-3.73,12.85-6.78.03,0,.07-.02.1-.03,20.49-6.07,33.6-7.91,55.54-7.72.57.07,1.2.11,1.87.09.65-.01,1.49-.04,2.26-.07.33-.01.65-.03.92-.03.18.02.36.03.54.03,4.96.11,10.25-.11,15.36-.32,19.51-.81,37.95-1.57,48.35,12.7,5.15,7.06,6.51,22.58,5.18,33.61-3.56,29.8-12.57,51.19-26.78,63.57-14.99,13.04-35.13,18.76-55.27,15.71-11.13-1.68-21.1-5.68-29.63-11.86-3.35-2.43-8.03-1.68-10.45,1.66-2.43,3.35-1.68,8.03,1.66,10.45,10.48,7.61,22.65,12.5,36.18,14.55,4.3.65,8.61.97,12.88.97,20.04,0,39.36-7.07,54.46-20.19,17.1-14.89,27.8-39.48,31.82-73.07,1.28-10.61,1.05-31.87-7.95-44.21-15.11-20.73-40.59-19.68-61.06-18.83Z"/><path class="cls-1" d="m436.79,380.38c-4.31,0-8.67-.33-12.96-.98-13.6-2.06-25.85-6.98-36.4-14.64-1.73-1.25-2.86-3.1-3.2-5.21s.17-4.22,1.42-5.94c2.58-3.56,7.59-4.36,11.15-1.77,8.46,6.14,18.35,10.1,29.41,11.77,19.98,3.03,39.99-2.66,54.86-15.59,14.11-12.29,23.07-33.57,26.61-63.25,1.32-10.93-.02-26.29-5.09-33.25-10.24-14.05-28.54-13.29-47.92-12.49-5.19.21-10.45.43-15.39.32-.19,0-.38-.02-.57-.03l-.86.04c-.78.03-1.62.06-2.27.08-.68.01-1.34-.02-1.94-.1-21.84-.18-34.78,1.62-55.34,7.71l-.11.03c-10.66,3-11.79,5.13-12.54,6.54-.17.32-.34.64-.51.94-4.4,7.75-4.82,18.3-1.32,33.21,1.46,6.22,3.38,12.42,5.23,18.43l.08.26c.1.33.18.69.25,1.12l.48,1.48c.46,1.43.9,2.81,1.33,4.23.14.47.29.95.44,1.42l.1.32c.17.56.35,1.12.52,1.7.91,2.86,2,5.69,3.22,8.4,1.82,4.01.03,8.75-3.98,10.57-1.04.47-2.15.71-3.29.71-3.13,0-5.99-1.84-7.28-4.69-1.49-3.29-2.8-6.72-3.91-10.2l-.53-1.73c-.19-.61-.38-1.23-.58-1.87-.38-1.26-.77-2.48-1.17-3.74l-.2-.62c-.21-.66-.43-1.33-.64-2.02-.12-.37-.21-.77-.27-1.23-1.75-5.66-3.76-12.15-5.34-18.89-2.81-12-5.56-29.69,2.98-44.74.08-.14.15-.28.23-.42l.07-.13c2.57-4.84,6.41-9.93,22.27-14.4,22.16-6.56,36.93-8.59,60.78-8.34.36,0,.73.03,1.09.09.45-.02,1.12-.05,1.56-.06.59-.02,1.14-.04,1.54-.05.51-.01,1.02,0,1.5.06,4.23.07,8.8-.12,13.65-.32l.1.5-.06.5c-4.86.2-9.45.39-13.75.32-.48-.05-.94-.07-1.41-.06-.4.01-.95.03-1.53.05-.44.02-1.11.04-1.65.06-.41-.05-.73-.08-1.04-.08-23.74-.24-38.43,1.77-60.49,8.3-15.49,4.36-19.2,9.26-21.67,13.91l-.07.13c-.08.15-.16.3-.24.44-8.37,14.75-5.65,32.19-2.88,44.02,1.57,6.7,3.57,13.18,5.34,18.9.08.49.15.83.26,1.15.21.68.43,1.35.64,2.01l.2.62c.4,1.26.8,2.49,1.18,3.75.19.63.38,1.25.58,1.86l.51,1.64c1.12,3.53,2.42,6.92,3.89,10.17,1.13,2.49,3.63,4.11,6.37,4.11.99,0,1.96-.21,2.88-.62,1.7-.77,3-2.15,3.66-3.9.66-1.75.6-3.64-.17-5.34-1.24-2.74-2.34-5.61-3.27-8.52-.18-.58-.35-1.14-.52-1.69l-.1-.32c-.15-.47-.29-.95-.44-1.43-.42-1.41-.87-2.79-1.32-4.21l-.49-1.55c-.08-.46-.15-.77-.24-1.06l-.08-.25c-1.86-6.03-3.78-12.25-5.25-18.51-3.56-15.17-3.1-25.95,1.42-33.93.17-.29.33-.6.5-.91.83-1.56,2.08-3.92,13.15-7.03,20.77-6.15,33.79-7.95,55.78-7.77.62.07,1.22.1,1.86.09.64-.01,1.48-.04,2.25-.07l.92-.03c.23.02.4.03.57.03,4.91.11,10.16-.1,15.23-.31,19.75-.82,38.31-1.59,48.87,12.9,5.23,7.17,6.62,22.85,5.27,33.96-3.57,29.93-12.64,51.42-26.95,63.88-15.1,13.13-35.38,18.9-55.67,15.83-11.21-1.7-21.25-5.72-29.84-11.95-3.12-2.26-7.49-1.57-9.76,1.55-1.1,1.51-1.54,3.36-1.24,5.2s1.29,3.46,2.8,4.56c10.42,7.56,22.52,12.42,35.96,14.46,4.24.64,8.55.97,12.8.97,20.03,0,39.25-7.13,54.13-20.07,17-14.81,27.65-39.29,31.65-72.76,1.27-10.54,1.05-31.64-7.86-43.86-14.96-20.52-40.29-19.47-60.64-18.63l-.04-1c20.59-.85,46.21-1.91,61.49,19.04,9.09,12.47,9.33,33.88,8.04,44.57-4.03,33.72-14.79,58.41-31.98,73.39-15.06,13.1-34.52,20.32-54.78,20.32Z"/><path class="cls-1" d="m98.94,330.08c-4.13,0-7.49,3.35-7.49,7.49v.71c0,4.13,3.35,7.49,7.49,7.49s7.49-3.35,7.49-7.49v-.71c0-4.13-3.35-7.49-7.49-7.49Z"/><path class="cls-1" d="m98.94,346.27c-4.4,0-7.99-3.58-7.99-7.99v-.71c0-4.4,3.58-7.99,7.99-7.99s7.99,3.58,7.99,7.99v.71c0,4.4-3.58,7.99-7.99,7.99Zm0-15.68c-3.85,0-6.99,3.13-6.99,6.99v.71c0,3.85,3.13,6.99,6.99,6.99s6.99-3.13,6.99-6.99v-.71c0-3.85-3.13-6.99-6.99-6.99Z"/><path class="cls-1" d="m386.59,342.56c0-4.13-3.35-7.49-7.49-7.49s-7.49,3.35-7.49,7.49v.71c0,4.13,3.35,7.49,7.49,7.49s7.49-3.35,7.49-7.49v-.71Z"/><path class="cls-1" d="m379.1,351.26c-4.4,0-7.99-3.58-7.99-7.99v-.71c0-4.4,3.58-7.99,7.99-7.99s7.99,3.58,7.99,7.99v.71c0,4.4-3.58,7.99-7.99,7.99Zm0-15.68c-3.85,0-6.99,3.13-6.99,6.99v.71c0,3.85,3.13,6.99,6.99,6.99s6.99-3.13,6.99-6.99v-.71c0-3.85-3.13-6.99-6.99-6.99Z"/></svg>