<?xml version="1.0" encoding="UTF-8"?>
<svg id="Layer_1" data-name="Layer 1" xmlns="http://www.w3.org/2000/svg" viewBox="0 0 600 1164.06">
  <defs>
    <style>
      .cls-1 {
        fill: #de7f43;
      }
    </style>
  </defs>
  <path class="cls-1" d="M448.45,316.44c7.73,0,14-6.27,14-14V87.17c0-7.73-6.27-14-14-14H104.02c-7.73,0-14,6.27-14,14v215.27c0,7.73,6.27,14,14,14h344.43ZM118.02,288.45v-79.64h44.35s0,0,.01,0c.02,0,.04,0,.06,0,.5,0,1-.03,1.49-.09.13-.01.25-.04.38-.06.39-.05.78-.12,1.16-.2.15-.03.29-.07.43-.11.35-.09.7-.19,1.05-.31.16-.05.31-.11.47-.17.32-.12.64-.26.95-.41.16-.08.32-.15.48-.23.32-.16.62-.35.92-.53.14-.08.27-.16.41-.25.41-.27.8-.57,1.17-.88.13-.11.25-.23.38-.35.26-.23.51-.47.75-.72.13-.14.25-.28.38-.42.24-.28.48-.56.7-.85.06-.08.13-.15.19-.24l29.17-40.51,35.95,89.88c.02.06.06.11.08.17.25.6.53,1.19.86,1.75.02.04.05.08.08.12.3.5.64.97,1,1.43.09.12.19.24.28.35.39.46.8.9,1.25,1.31.09.08.18.15.27.23.25.22.5.44.77.64.09.07.2.12.29.18.37.26.75.49,1.14.72.26.15.51.3.77.43.38.19.76.33,1.15.49.28.11.56.24.85.33.43.14.88.22,1.32.32.25.05.49.13.74.17.7.11,1.41.17,2.13.17.5,0,1-.03,1.5-.09.1-.01.21-.03.31-.04.38-.05.75-.11,1.13-.19.16-.04.33-.08.49-.12.3-.08.61-.17.91-.27.19-.06.39-.13.58-.2.09-.03.18-.06.27-.09.17-.07.34-.16.51-.23.21-.09.42-.18.63-.29.29-.14.56-.31.83-.47.16-.09.32-.18.47-.28.43-.28.83-.57,1.22-.89.05-.04.1-.09.15-.14.35-.29.67-.6.99-.92.1-.1.19-.21.29-.32.26-.28.51-.58.75-.88.05-.07.11-.12.16-.19l38.38-51.17h133v84.05H118.02ZM434.45,101.17v75.22h-140c-.09,0-.18.01-.28.01-.27,0-.53.02-.8.04-.21.02-.42.03-.63.06-.23.03-.46.07-.69.11-.23.04-.46.08-.69.13-.21.05-.41.1-.62.16-.24.06-.47.13-.7.21-.2.07-.4.14-.6.22-.22.08-.44.17-.65.26-.21.09-.42.2-.63.31-.19.09-.37.19-.56.29-.22.12-.44.26-.66.4-.16.1-.32.2-.48.31-.22.15-.42.31-.63.47-.15.12-.3.23-.45.36-.19.16-.37.33-.56.51-.16.15-.31.3-.46.45-.16.16-.31.33-.46.5-.16.19-.32.38-.48.58-.06.08-.13.15-.19.23l-27.63,36.84-36.17-90.41c-.05-.12-.1-.22-.15-.33-.12-.27-.23-.53-.37-.8-.08-.17-.18-.33-.27-.49-.13-.24-.27-.47-.41-.7-.11-.18-.23-.35-.35-.52-.14-.2-.28-.4-.43-.59-.14-.18-.29-.36-.45-.54-.14-.17-.29-.33-.44-.49-.18-.19-.36-.36-.55-.54-.15-.14-.29-.27-.44-.4-.21-.18-.42-.35-.64-.51-.11-.08-.21-.17-.32-.25-.05-.03-.1-.06-.15-.09-.21-.15-.43-.28-.64-.42-.19-.12-.37-.24-.56-.34-.17-.09-.35-.18-.52-.27-.24-.12-.49-.25-.74-.36-.12-.05-.24-.09-.37-.14-.3-.12-.61-.24-.92-.34-.09-.03-.18-.05-.28-.08-.34-.1-.68-.2-1.02-.27-.11-.03-.23-.04-.35-.06-.32-.06-.64-.12-.96-.16-.19-.02-.38-.03-.57-.05-.25-.02-.5-.05-.75-.05-.25,0-.5,0-.75.01-.2,0-.4,0-.59.02-.25.02-.5.05-.76.09-.2.03-.4.04-.6.08-.22.04-.44.09-.66.14-.24.05-.47.1-.7.16-.18.05-.36.11-.55.17-.27.09-.54.17-.8.27-.05.02-.1.03-.15.05-.12.05-.22.11-.34.16-.27.11-.53.23-.79.36-.17.08-.33.17-.49.26-.24.13-.47.27-.7.41-.17.11-.34.23-.51.35-.2.14-.4.28-.6.44-.18.14-.36.29-.53.44-.17.14-.33.29-.49.44-.19.18-.36.36-.54.55-.13.14-.27.29-.4.44-.18.21-.36.44-.53.66-.08.1-.17.2-.24.3l-39.88,55.37h-37.21v-79.64h316.43Z"/>
  <path class="cls-1" d="M163.69,374.9c0-7.73-6.27-14-14-14h-37.67c-7.73,0-14,6.27-14,14s6.27,14,14,14h37.67c7.73,0,14-6.27,14-14Z"/>
  <path class="cls-1" d="M248.01,360.9h-37.67c-7.73,0-14,6.27-14,14s6.27,14,14,14h37.67c7.73,0,14-6.27,14-14s-6.27-14-14-14Z"/>
  <path class="cls-1" d="M334.2,346.54c-15.64,0-28.36,12.72-28.36,28.36s12.72,28.36,28.36,28.36,28.36-12.72,28.36-28.36-12.72-28.36-28.36-28.36ZM333.83,374.9c0-.2.16-.37.36-.37s.37.16.37.37c0,.4-.73.4-.73,0Z"/>
  <path class="cls-1" d="M419.78,346.54c-15.64,0-28.37,12.72-28.37,28.36s12.72,28.36,28.37,28.36,28.36-12.72,28.36-28.36-12.72-28.36-28.36-28.36ZM419.41,374.9c0-.2.17-.37.37-.37s.36.16.36.37c0,.4-.73.4-.73,0Z"/>
  <path class="cls-1" d="M136.66,614.48c-25.72,0-46.64,20.92-46.64,46.64s20.92,46.64,46.64,46.64,46.64-20.92,46.64-46.64-20.92-46.64-46.64-46.64ZM136.66,679.77c-10.28,0-18.64-8.36-18.64-18.64s8.36-18.64,18.64-18.64,18.64,8.36,18.64,18.64-8.36,18.64-18.64,18.64Z"/>
  <path class="cls-1" d="M547.32,588.29h-32.84v-60.85c0-7.73-6.27-14-14-14h-65.69v-52.59h38.6c30.73,0,55.74-25,55.74-55.74V64.33c0-30.73-25-55.74-55.74-55.74H79.09c-30.73,0-55.74,25-55.74,55.74v340.79c0,30.73,25,55.74,55.74,55.74h38.6v52.59H52c-7.73,0-14,6.27-14,14v267.36c0,7.73,6.27,14,14,14h104.4v146.01h-57.77c-24.35,0-47.23,9.48-64.42,26.69-15.48,15.46-24.85,35.94-26.44,57.72,0,.05,0,.1-.01.15,0,.13-.03.27-.04.4,0,.15,0,.3,0,.45,0,.16-.02.33-.02.49,0,.09.01.18.01.26,0,.23.02.45.03.68.02.26.04.52.07.77.02.2.06.4.09.6.05.28.1.55.16.82.04.17.09.35.13.52.08.29.16.57.25.85.05.16.11.32.18.48.11.28.22.55.34.82.07.16.15.32.23.48.13.25.26.5.4.75.1.16.19.33.3.49.14.23.3.45.45.67.12.16.24.33.36.49.16.2.33.4.5.6.09.1.17.21.26.31.05.06.11.1.16.16.18.19.37.37.57.54.15.14.3.28.45.41.21.18.43.35.65.51.15.11.29.22.44.33.26.18.53.34.81.51.12.07.24.15.36.22.33.19.68.35,1.03.51.07.03.14.07.21.1,1.7.74,3.58,1.15,5.55,1.15h37.26c-7.12,10.36-11.3,22.89-11.3,36.38,0,35.5,28.88,64.37,64.37,64.37s64.38-28.88,64.38-64.37c0-13.49-4.18-26.02-11.3-36.38h222.28c-7.12,10.36-11.3,22.89-11.3,36.38,0,35.5,28.88,64.37,64.38,64.37s64.37-28.88,64.37-64.37c0-13.49-4.18-26.02-11.3-36.38h37.26c1.97,0,3.85-.41,5.55-1.15.06-.03.12-.06.18-.09.36-.16.72-.33,1.06-.53.12-.06.23-.14.34-.21.28-.17.56-.33.83-.52.14-.1.28-.21.42-.32.23-.17.45-.34.67-.52.15-.13.3-.27.44-.4.19-.18.39-.36.57-.55.05-.05.11-.1.16-.16.09-.1.17-.21.26-.31.17-.2.34-.39.5-.6.13-.16.25-.32.36-.49.16-.22.31-.44.45-.67.1-.16.2-.32.3-.49.14-.24.27-.49.4-.74.08-.16.16-.32.23-.48.12-.27.23-.54.34-.81.06-.16.12-.32.18-.48.09-.28.18-.56.25-.84.05-.17.09-.35.13-.52.06-.27.11-.54.16-.82.03-.2.07-.4.09-.6.03-.25.05-.51.07-.76.02-.23.03-.46.03-.69,0-.09.01-.17.01-.26,0-.17-.02-.33-.02-.49,0-.15,0-.3,0-.44,0-.13-.03-.25-.03-.38,0-.06-.01-.13-.02-.19-3.47-47.37-43.26-84.39-90.86-84.39h-57.77v-146.01h104.4c7.73,0,14-6.27,14-14v-60.85h32.84c24.81,0,45-20.18,45-45v-55.67c0-24.81-20.18-45-45-45ZM148.4,1091.1c0,20.06-16.32,36.38-36.38,36.38s-36.38-16.32-36.38-36.38,16.32-36.38,36.38-36.38,36.38,16.32,36.38,36.38ZM476.83,1091.1c0,20.06-16.32,36.38-36.38,36.38s-36.38-16.32-36.38-36.38,16.32-36.38,36.38-36.38,36.38,16.32,36.38,36.38ZM513.98,1026.72H38.5c3.04-9.51,8.32-18.24,15.51-25.41,11.91-11.93,27.76-18.49,44.63-18.49h355.21c27.91,0,51.95,18.37,60.14,43.91ZM51.35,405.12V64.33c0-15.3,12.44-27.74,27.74-27.74h394.3c15.29,0,27.74,12.44,27.74,27.74v340.79c0,15.3-12.44,27.74-27.74,27.74H79.09c-15.29,0-27.74-12.44-27.74-27.74ZM145.69,460.86h261.11v52.59H145.69v-52.59ZM368.08,952.2h-183.68v-143.39h183.68v143.39ZM486.48,780.81H66v-239.37h420.48v239.37ZM564.32,688.96c0,9.37-7.63,17-17,17h-32.84v-89.67h32.84c9.37,0,17,7.63,17,17v55.67Z"/>
</svg>