<?xml version="1.0" encoding="UTF-8"?><svg id="Layer_1" xmlns="http://www.w3.org/2000/svg" viewBox="0 0 600 600"><defs><style></style></defs><path class="cls-1" d="m421.43,324.28c-48.26,0-87.96,38.54-87.96,87.09,0,30.06,15.57,56.26,38.92,72.45h82.51c24.13,0,43.59-19.27,43.59-43.16v-68.6c-14.01-28.51-42.81-47.78-77.06-47.78Z"/><rect class="cls-2" x="334.25" y="291.14" width="19.46" height="19.27"/><rect class="cls-2" x="295.33" y="329.67" width="19.46" height="19.27"/><rect class="cls-2" x="295.33" y="291.14" width="19.46" height="19.27"/><rect class="cls-2" x="256.41" y="368.21" width="19.46" height="19.27"/><rect class="cls-2" x="256.41" y="329.67" width="19.46" height="19.27"/><rect class="cls-2" x="256.41" y="291.14" width="19.46" height="19.27"/><rect class="cls-2" x="217.49" y="406.74" width="19.46" height="19.27"/><rect class="cls-2" x="217.49" y="368.21" width="19.46" height="19.27"/><rect class="cls-2" x="217.49" y="329.67" width="19.46" height="19.27"/><rect class="cls-2" x="217.49" y="291.14" width="19.46" height="19.27"/><rect class="cls-2" x="178.58" y="406.74" width="19.46" height="19.27"/><rect class="cls-2" x="178.58" y="368.21" width="19.46" height="19.27"/><rect class="cls-2" x="178.58" y="329.67" width="19.46" height="19.27"/><rect class="cls-2" x="178.58" y="291.14" width="19.46" height="19.27"/><rect class="cls-2" x="139.66" y="406.74" width="19.46" height="19.27"/><rect class="cls-2" x="139.66" y="368.21" width="19.46" height="19.27"/><rect class="cls-2" x="139.66" y="329.67" width="19.46" height="19.27"/><rect class="cls-2" x="139.66" y="291.14" width="19.46" height="19.27"/><path class="cls-2" d="m401.97,242.58H100.74c-5.45,0-10.12-4.62-10.12-10.02s4.67-10.02,10.12-10.02h302c5.45,0,10.12,4.62,10.12,10.02-.78,5.39-5.45,10.02-10.9,10.02Z"/><path class="cls-2" d="m455.67,493.06H144.33c-29.58,0-53.71-23.89-53.71-53.18v-240.46c0-29.29,24.13-53.18,53.71-53.18h24.13c5.45,0,10.12,4.62,10.12,10.02s-4.67,10.02-10.12,10.02h-24.13c-18.68,0-34.25,15.41-34.25,33.91v241.23c0,18.5,15.57,33.91,34.25,33.91h311.34c18.68,0,34.25-15.41,34.25-33.91v-242c0-18.5-15.57-33.91-34.25-33.91h-24.13c-5.45,0-10.12-4.62-10.12-10.02s4.67-10.02,10.12-10.02h24.13c29.58,0,53.71,23.89,53.71,53.18v241.23c0,29.29-24.13,53.18-53.71,53.18Z"/><path class="cls-2" d="m381.86,165.51h-159.21c-5.26,0-9.76-4.62-9.76-10.02s4.51-10.02,9.76-10.02h159.21c5.26,0,9.76,4.62,9.76,10.02s-4.51,10.02-9.76,10.02Z"/><path class="cls-2" d="m192.59,204.05c-18.68,0-34.24-15.41-34.24-33.91v-29.29c0-9.25,3.89-17.72,10.12-23.89,6.23-6.17,14.79-10.02,24.13-10.02,18.68,0,34.25,15.41,34.25,33.91v29.29c0,18.5-15.57,33.91-34.25,33.91Zm0-77.07c-3.89,0-7.78,1.54-10.12,3.85-3.12,3.08-3.89,6.16-3.89,10.02v29.29c0,7.71,6.22,14.64,14.79,14.64s14.79-6.16,14.79-14.64v-29.29c-.78-7.71-7-13.87-15.57-13.87Z"/><path class="cls-2" d="m406.64,204.05c-18.68,0-34.25-15.41-34.25-33.91v-29.29c0-9.25,3.89-17.72,10.12-23.89,6.23-6.17,14.79-10.02,24.13-10.02,18.68,0,34.25,15.41,34.25,33.91v29.29c0,18.5-15.57,33.91-34.25,33.91Zm0-77.07c-3.89,0-7.78,1.54-10.12,3.85-3.11,3.08-3.89,6.16-3.89,10.02v29.29c0,7.71,6.23,14.64,14.79,14.64s14.79-6.16,14.79-14.64v-29.29c-.78-7.71-7.01-13.87-15.57-13.87Z"/><path class="cls-2" d="m372.39,493.06c-1.55,0-3.89-.77-5.45-1.54-27.24-17.72-43.59-47.78-43.59-80.15,0-53.18,43.59-96.34,97.29-96.34,36.58,0,70.05,20.04,86.4,52.41,2.33,4.62.78,10.79-3.9,13.1-4.67,2.31-10.89.77-13.23-3.85-13.23-25.43-39.69-41.62-69.27-41.62-42.81,0-77.84,34.68-77.84,77.07,0,25.43,13.24,50.1,34.25,63.97,4.67,3.09,5.45,9.25,2.34,13.1-.78,2.31-3.12,3.85-7.01,3.85Z"/><path class="cls-1" d="m467.61,378.13h-22.78v-22.74c0-3.63-2.95-6.58-6.59-6.58h-39.01c-3.63,0-6.59,2.95-6.59,6.58v22.74h-22.78c-3.63,0-6.59,2.95-6.59,6.58v38.94c0,3.63,2.95,6.58,6.59,6.58h22.78v22.73c0,3.63,2.95,6.58,6.59,6.58h39.01c3.63,0,6.59-2.95,6.59-6.58v-22.73h22.78c3.63,0,6.59-2.95,6.59-6.58v-38.94c0-3.63-2.95-6.58-6.59-6.58Zm-34.64,46.83v22.74h-28.46v-22.74c0-3.63-2.95-6.58-6.59-6.58h-22.78v-28.41h22.78c3.63,0,6.59-2.95,6.59-6.58v-22.73h28.46v22.73c0,3.63,2.95,6.58,6.59,6.58h22.78v28.41h-22.78c-3.63,0-6.59,2.95-6.59,6.58Z"/><path class="cls-1" d="m438.24,460.76h-39.01c-4.31,0-7.82-3.5-7.82-7.8v-21.5h-21.55c-4.31,0-7.82-3.5-7.82-7.81v-38.94c0-4.31,3.51-7.81,7.82-7.81h21.55v-21.51c0-4.3,3.51-7.81,7.82-7.81h39.01c4.31,0,7.82,3.5,7.82,7.81v21.51h21.55c4.31,0,7.82,3.5,7.82,7.81v38.94c0,4.31-3.51,7.81-7.82,7.81h-21.55v21.5c0,4.3-3.51,7.8-7.82,7.8Zm-68.38-81.41c-2.95,0-5.36,2.4-5.36,5.35v38.94c0,2.95,2.4,5.35,5.36,5.35h24.01v23.96c0,2.95,2.4,5.35,5.36,5.35h39.01c2.96,0,5.36-2.4,5.36-5.35v-23.96h24.01c2.96,0,5.36-2.4,5.36-5.35v-38.94c0-2.95-2.4-5.35-5.36-5.35h-24.01v-23.97c0-2.95-2.4-5.35-5.36-5.35h-39.01c-2.95,0-5.36,2.4-5.36,5.35v23.97h-24.01Zm64.33,69.57h-30.92v-23.97c0-2.95-2.4-5.35-5.36-5.35h-24.01v-30.86h24.01c2.96,0,5.36-2.4,5.36-5.35v-23.96h30.92v23.96c0,2.95,2.4,5.35,5.36,5.35h24.01v30.86h-24.01c-2.95,0-5.36,2.4-5.36,5.35v23.97Zm-28.46-2.46h26v-21.51c0-4.31,3.51-7.81,7.82-7.81h21.55v-25.95h-21.55c-4.31,0-7.82-3.5-7.82-7.81v-21.5h-26v21.5c0,4.31-3.51,7.81-7.82,7.81h-21.55v25.95h21.55c4.31,0,7.82,3.5,7.82,7.81v21.51Z"/></svg>