<?xml version="1.0" encoding="UTF-8"?>
<svg id="Layer_1" data-name="Layer 1" xmlns="http://www.w3.org/2000/svg" viewBox="0 0 600 600">
  <defs>
    <style>
      .cls-1 {
        fill: #de7f43;
      }
    </style>
  </defs>
  <path class="cls-1" d="M303.84,357.77c-3.03-2.12-7.21-1.39-9.33,1.64-2.12,3.03-1.39,7.21,1.65,9.33,6.08,4.26,13.33,10.9,13.33,18.34s-7.25,14.08-13.33,18.34c-15.74,11.03-19.05,22.03-19.05,29.32s3.3,18.3,19.05,29.32c1.17.82,2.51,1.21,3.84,1.21,2.11,0,4.19-1,5.49-2.86,2.12-3.03,1.39-7.21-1.65-9.33-6.08-4.26-13.33-10.9-13.33-18.34s7.25-14.08,13.33-18.34c15.74-11.03,19.05-22.03,19.05-29.32s-3.3-18.3-19.05-29.32Z"/>
  <path class="cls-1" d="M395.17,357.77c-3.03-2.12-7.21-1.39-9.33,1.64-2.12,3.03-1.39,7.21,1.65,9.33,6.08,4.26,13.33,10.9,13.33,18.34s-7.25,14.08-13.33,18.34c-15.74,11.03-19.05,22.03-19.05,29.32s3.3,18.3,19.05,29.32c1.17.82,2.51,1.21,3.84,1.21,2.11,0,4.19-1,5.49-2.86,2.12-3.03,1.39-7.21-1.65-9.33-6.08-4.26-13.33-10.9-13.33-18.34s7.25-14.08,13.33-18.34c15.74-11.03,19.05-22.03,19.05-29.32s-3.3-18.3-19.05-29.32Z"/>
  <path class="cls-1" d="M212.52,357.77c-3.03-2.12-7.21-1.39-9.33,1.64-2.12,3.03-1.39,7.21,1.65,9.33,6.08,4.26,13.33,10.9,13.33,18.34s-7.25,14.08-13.33,18.34c-15.74,11.03-19.05,22.03-19.05,29.32s3.3,18.3,19.05,29.32c1.17.82,2.51,1.21,3.84,1.21,2.11,0,4.19-1,5.49-2.86,2.12-3.03,1.39-7.21-1.65-9.33-6.08-4.26-13.33-10.9-13.33-18.34s7.25-14.08,13.33-18.34c15.74-11.03,19.05-22.03,19.05-29.32s-3.3-18.3-19.05-29.32Z"/>
  <path class="cls-1" d="M487.37,134.72H112.63c-23.09,0-41.88,18.79-41.88,41.88v115.37c0,23.09,18.79,41.88,41.88,41.88h374.74c23.09,0,41.88-18.79,41.88-41.88v-115.37c0-23.09-18.79-41.88-41.88-41.88ZM112.63,148.12h374.74c15.7,0,28.48,12.78,28.48,28.48v81.47H84.15v-81.47c0-15.7,12.78-28.48,28.48-28.48ZM487.37,320.45H112.63c-15.7,0-28.48-12.78-28.48-28.48v-20.51h431.7v20.51c0,15.7-12.78,28.48-28.48,28.48Z"/>
  <path class="cls-1" d="M480.12,287.2H119.88c-3.7,0-6.7,3-6.7,6.7s3,6.7,6.7,6.7h360.24c3.7,0,6.7-3,6.7-6.7s-3-6.7-6.7-6.7Z"/>
</svg>