<?xml version="1.0" encoding="UTF-8"?>
<svg id="Layer_1" data-name="Layer 1" xmlns="http://www.w3.org/2000/svg" viewBox="0 0 600 600">
  <defs>
    <style>
      .cls-1 {
        fill: #de7f43;
      }
    </style>
  </defs>
  <path class="cls-1" d="M362.8,101.57c1.63.97,5.43,3.87,5.43,5.81v36.04h117.43c1.94,0,5.8,3.55,5.77,5.86-.83,12.96,1.25,27.54.08,40.3-.56,6.07-4.4,7.64-10.12,7.32l-.51,295.96-4.34,4.97-345.96.6c-6.58-.33-9.77-8.43-5.37-13.15.43-.46,3.61-2.37,3.84-2.37h76.41v-55.42c0-1.15,4.8-5.26,6.64-4.99,14.16.95,30.26-1.43,44.17-.09,2.94.28,8.1,2.53,8.1,5.85v54.64h74.41V158.92h-203.07v329.86c0,.68-2.58,4.39-3.58,4.95-5.2,2.95-11.88-.33-11.93-6.5V158.92c-6.19.58-11.02-.36-11.66-7.32-1.28-13.99.99-29.97.08-44.17.51-3.25,2.83-4.42,5.38-5.86h248.81ZM352.72,117.07H124.07v26.35h228.65v-26.35ZM475.96,158.92h-121.69v22.48h121.69v-22.48ZM465.89,196.9h-111.61v286.01h111.61V196.9ZM248.86,437.96h-27.9v44.96h27.9v-44.96Z"/>
  <path class="cls-1" d="M315.34,189.72c-.99-3.64-3.41-5.56-7.17-6.01-16.54-1.97-37.13,1.36-54.1.2-3.64.99-5.56,3.41-6.01,7.17l.35,171.76c1.09,3.85,3.89,5.7,7.81,6.15,16.32,1.86,36.45-1.11,53.15-.33,3.02-.72,5.98-3.76,6.16-7.01l-.2-171.91ZM300.02,353.47h-36.43v-40.3h36.43v40.3ZM300.02,297.67h-36.43v-42.24l1.16-1.16h35.27v43.41ZM300.02,238.76h-36.43v-39.53h36.43v39.53Z"/>
  <path class="cls-1" d="M226.2,189.72c-.99-3.64-3.41-5.56-7.17-6.01-16.54-1.97-37.13,1.36-54.1.2-3.64.99-5.56,3.41-6.01,7.17l.18,171.93c1.42,3.69,4.11,5.54,7.98,5.98,16.21,1.84,35.95-1.22,52.53-.18,4.19-1.32,6.88-4.11,6.8-8.71l-.21-170.37ZM210.88,353.47h-36.43v-40.3h36.43v40.3ZM210.88,297.67h-36.43v-43.41h35.27l1.16,1.16v42.24ZM210.88,238.76h-36.43v-39.53h36.43v39.53Z"/>
  <path class="cls-1" d="M432.97,224c-11.04-.94-34.97-1.18-45.76.02-3.58.4-7.03,1.94-8.56,5.39l-.39,157.81c.02,1.74.7,4.26,1.83,5.54.96,1.08,3.97,2.49,5.55,2.59,15.63-1.42,34.4,1.83,49.64,0,2.6-.31,6.17-1.99,7-4.63l.38-158.58c-.26-5.87-4.47-7.68-9.7-8.13ZM427.13,379.83h-33.33v-35.65h33.33v35.65ZM427.13,328.67h-33.33v-37.98h33.33v37.98ZM427.13,275.19h-33.33v-35.65h33.33v35.65Z"/>
</svg>