<?xml version="1.0" encoding="UTF-8"?>
<svg id="Layer_1" data-name="Layer 1" xmlns="http://www.w3.org/2000/svg" viewBox="0 0 600 251.36">
  <defs>
    <style>
      .cls-1 {
        fill: #de7f43;
      }
    </style>
  </defs>
  <path class="cls-1" d="M418.34,212.61h-164.86s-67.86,0-67.86,0c-16.53,43.46-78.73,43.77-93.53,0h-46.92c-13.54,0-32.91,3.15-37.47-14.33-1.57-5.67-.79-26.77-.63-33.7.47-19.84,10.55-40.78,25.04-54.32,19.37-18.26,79.67-29.6,105.81-34.01,15.27-2.52,13.23-4.57,25.98-13.54C234.59,12.96,257.42,6.03,346.07,6.03c19.84,0,48.18,0,66.92,5.98,18.58,6.14,55.27,30.86,71.33,42.99,19.84,15.12,16.69,12.12,42.2,11.97h22.36c30.23-.32,30.07,9.92,36.37,38.1l5.2,23.62c2.2,10.08,2.83,15.59,2.83,25.82v17.63c-.16,21.73-19.05,21.57-35.27,24.72-14.64,2.83-29.29,5.51-43.77,8.82-13.86,51.65-82.03,51.33-95.89,6.93ZM218.05,44.14c-17.32,9.92-34.48,20.47-50.54,32.28-22.52,16.38-13.23,9.6-39.99,15.12-28.34,5.83-57.47,12.75-84.08,24.25,10.23.63,33.7-4.72,34.01,7.72.79,40.47-27.24,38.42-58.1,38.73v18.74c0,24.41,4.88,18.89,27.4,18.89h41.88s0-2.52,0-2.52c.16-65.97,100.14-68.65,99.35,2.52h51.17s175.88,0,175.88,0c-.79-68.81,94.16-70.54,99.04-7.56,8.5-1.1,59.99-10.23,65.19-14.01,2.05-4.09,1.1-28.18,1.1-34.33-5.35,0-21.89-.32-25.82-3.62-5.04-4.25-8.82-26.77-8.97-32.44-.32-12.44,16.69-10.55,24.72-10.55-2.99-17.95-6.61-17.48-22.2-17.16-13.07.32-39.68,1.42-50.86-1.73-10.23-2.99-18.89-11.34-27.4-17.48-49.6-36.06-63.3-42.2-123.92-41.73-50.54-.16-82.98-.63-127.85,24.88ZM558.63,109.95l4.41,20c4.88.16,9.6.79,14.49.94-1.1-6.93-2.68-14.01-4.09-20.94-4.88-.31-9.76,0-14.8,0ZM32.89,128.85c-3.62,4.41-10.71,15.27-10.08,20.63l.63.31c15.43.32,34.64,2.99,40.78-15.12.63-1.73,1.1-3.78.31-5.51l-.79-.31h-30.86ZM428.26,191.99c-2.52,21.26,13.86,38.73,34.48,40.94,58.26-4.88,43.77-75.74,3.62-72.9-18.58-3.78-36.06,14.8-38.1,31.96ZM115.24,168.37c-25.82,21.41-11.65,62.2,21.57,64.56,48.02,1.57,52.59-69.91,3.15-72.9-8.82-.79-18.26,2.83-24.72,8.35Z"/>
  <path class="cls-1" d="M410.31,103.34h-148.64s-57.94,0-57.94,0c-9.45,0-19.21.47-28.81,0-14.96-10.23,14.01-22.99,23.15-29.13,65.34-43.46,77.63-42.04,150.37-42.04,32.12,0,45.98,1.42,73.85,19.37,7.24,4.57,21.89,10.39,15.27,20-4.57,6.61-21.41,27.55-27.24,31.96v-.16ZM348.11,45.08v45.19s55.27,0,55.27,0c2.99,0,17.79-18.74,20.31-22.2-18.11-13.7-34.01-20.78-56.37-22.99-6.3-.31-12.75,0-19.21,0ZM222.62,73.89l-16.38,10.55c-2.68,1.73-5.67,3.31-8.03,5.35l.16.47h136.99s0-45.19,0-45.19c-51.8,0-70.38,1.73-112.74,28.81Z"/>
  <path class="cls-1" d="M466.36,176.24c25.82,1.1,24.72,40.47-3.62,39.99-26.61-5.98-22.36-40.94,3.62-39.99ZM457.23,195.77c1.1,4.09,2.2,6.77,6.77,7.72,10.23-1.26,11.34-12.6,1.42-14.49-4.88-.32-6.77,2.2-8.19,6.77Z"/>
  <path class="cls-1" d="M141.69,176.24c27.08,5.67,19.52,43.46-6.46,39.99-26.77-6.77-19.68-42.36,6.46-39.99ZM136.81,203.32c4.09.94,6.61-1.26,8.66-4.72.31-5.04-.63-7.56-5.51-9.6-9.92-.79-11.65,10.86-3.15,14.33Z"/>
</svg>