<?xml version="1.0" encoding="UTF-8"?>
<svg id="Layer_1" data-name="Layer 1" xmlns="http://www.w3.org/2000/svg" viewBox="0 0 600 600">
  <defs>
    <style>
      .cls-1 {
        fill: #de7f43;
      }
    </style>
  </defs>
  <path class="cls-1" d="M485.04,435.95l-363.44-.5c-25.64.17-27.89,34.92-2.42,37.86h361.69c21.58-1.83,24.57-30.54,4.17-37.36Z"/>
  <path class="cls-1" d="M194.33,128.68c-8.15-1.77-17.33.45-21.63,8.07-8.34,14.76,4.86,26.21,9.05,40.04,15.36,50.74-24.19,101.82-21.23,155.95,1.07,19.49,19.94,91.5,48.63,60.27,13.36-14.55-2.9-28.96-7.19-44.99-13.47-50.32,23.17-97.45,22.65-147.75-.17-16.53-12.11-67.64-30.26-71.58Z"/>
  <path class="cls-1" d="M397.65,394.54c7.75,7.05,19.94,6.53,27.51-.57,13.94-13.08-6.26-35.16-8.77-50.06-8.89-52.72,28.74-101.2,22.78-157.49-1.9-17.93-20.65-77.38-46.91-54.59-15.12,13.12,2.05,32.16,5.89,45.98,14.13,50.86-22.8,97.71-22.69,147.75.03,14.7,11.38,59.15,22.19,68.99Z"/>
  <path class="cls-1" d="M303.07,128.73c-16.61-3.79-27.3,7.33-23.77,23.77,1.19,5.54,6.42,11.65,8.38,17.61,19.11,57.98-22.32,105.49-18.48,165,1.22,19,17.69,83.38,46.27,60.22,14.48-11.73.7-28.08-3.09-39.59-23.01-69.83,45.62-127.94,6.96-207.84-3.78-7.8-6.75-17-16.27-19.17Z"/>
</svg>