<?xml version="1.0" encoding="UTF-8"?>
<svg id="Layer_1" data-name="Layer 1" xmlns="http://www.w3.org/2000/svg" viewBox="0 0 600 600">
  <defs>
    <style>
      .cls-1 {
        fill: #de7f43;
      }
    </style>
  </defs>
  <g id="_27097_-_Running_on_Empty" data-name="27097 - Running on Empty">
    <g>
      <path class="cls-1" d="M300.16,452.95c-23.47,0-42.69-19.22-42.69-42.69s19.22-42.69,42.69-42.69,42.69,19.22,42.69,42.69-19.22,42.69-42.69,42.69ZM300.16,381.91c-15.75,0-28.51,12.76-28.51,28.51s12.76,28.51,28.51,28.51,28.51-12.76,28.51-28.51-12.76-28.51-28.51-28.51Z"/>
      <path class="cls-1" d="M515.17,431.69h-182.41c-3.94,0-7.09-3.15-7.09-7.09s3.15-7.09,7.09-7.09h176.58c2.84-14.02,4.25-28.35,4.25-42.69,0-57.02-22.21-110.58-62.54-150.9s-93.88-62.54-150.9-62.54-110.58,22.21-150.9,62.54-62.54,93.88-62.54,150.9c0,14.33,1.42,28.67,4.25,42.69h176.58c3.94,0,7.09,3.15,7.09,7.09s-3.15,7.09-7.09,7.09H85.14c-3.31,0-6.14-2.36-6.93-5.51-3.94-16.85-5.83-34.02-5.83-51.35,0-60.8,23.63-117.98,66.63-160.98,43-43,100.18-66.63,160.98-66.63s117.98,23.63,160.98,66.63c43,43,66.63,100.18,66.63,160.98,0,17.33-1.89,34.65-5.83,51.35-.47,3.15-3.31,5.51-6.62,5.51Z"/>
      <path class="cls-1" d="M300.16,196.83c-3.94,0-7.09-3.15-7.09-7.09v-35.6c0-3.94,3.15-7.09,7.09-7.09s7.09,3.15,7.09,7.09v35.6c0,3.94-3.15,7.09-7.09,7.09Z"/>
      <path class="cls-1" d="M431.06,251.01c-1.89,0-3.62-.63-5.04-2.05-2.84-2.84-2.84-7.25,0-10.08l25.2-25.2c2.84-2.84,7.25-2.84,10.08,0s2.84,7.25,0,10.08l-25.2,25.2c-1.42,1.42-3.31,2.05-5.04,2.05Z"/>
      <path class="cls-1" d="M169.26,251.01c-1.89,0-3.62-.63-5.04-2.05l-25.2-25.2c-2.84-2.84-2.84-7.25,0-10.08s7.25-2.84,10.08,0l25.2,25.2c2.84,2.84,2.84,7.25,0,10.08-1.26,1.42-3.15,2.05-5.04,2.05Z"/>
      <path class="cls-1" d="M136.5,403.17h-28.51c-3.94,0-7.09-3.15-7.09-7.09v-56.86c0-3.94,3.15-7.09,7.09-7.09h28.51c3.94,0,7.09,3.15,7.09,7.09s-3.15,7.09-7.09,7.09h-21.42v42.69h21.42c3.94,0,7.09,3.15,7.09,7.09s-3.15,7.09-7.09,7.09Z"/>
      <path class="cls-1" d="M136.5,374.66h-28.51c-3.94,0-7.09-3.15-7.09-7.09s3.15-7.09,7.09-7.09h28.51c3.94,0,7.09,3.15,7.09,7.09s-3.15,7.09-7.09,7.09Z"/>
      <path class="cls-1" d="M463.82,403.17c-3.94,0-7.09-3.15-7.09-7.09v-56.86c0-3.94,3.15-7.09,7.09-7.09h28.51c3.94,0,7.09,3.15,7.09,7.09s-3.15,7.09-7.09,7.09h-21.42v49.78c0,3.94-3.15,7.09-7.09,7.09Z"/>
      <path class="cls-1" d="M492.33,374.66h-28.51c-3.94,0-7.09-3.15-7.09-7.09s3.15-7.09,7.09-7.09h28.51c3.94,0,7.09,3.15,7.09,7.09s-3.15,7.09-7.09,7.09Z"/>
      <path class="cls-1" d="M264.56,417.04c-1.89,0-3.78-.79-5.2-2.21l-106.8-113.41c-2.36-2.52-2.52-6.62-.32-9.29,2.21-2.84,6.14-3.47,9.29-1.58l131.53,80.02c3.31,2.05,4.41,6.46,2.36,9.77-2.05,3.31-6.46,4.41-9.77,2.36l-86.64-52.61,70.73,75.29c2.68,2.84,2.52,7.4-.32,10.08-1.42.95-3.15,1.58-4.88,1.58Z"/>
      <path class="cls-1" d="M349.93,331.98h-99.55c-3.94,0-7.09-3.15-7.09-7.09s3.15-7.09,7.09-7.09h99.55c3.94,0,7.09,3.15,7.09,7.09s-3.15,7.09-7.09,7.09Z"/>
      <path class="cls-1" d="M342.85,331.98h-85.38c-3.94,0-7.09-3.15-7.09-7.09v-97.82c0-8.82,7.25-16.07,16.07-16.07h67.58c8.82,0,16.07,7.25,16.07,16.07v97.82c-.16,3.94-3.31,7.09-7.25,7.09ZM264.56,317.8h71.2v-90.73c0-.95-.79-1.73-1.73-1.73h-67.58c-.95,0-1.73.79-1.73,1.73v90.73h-.16Z"/>
      <path class="cls-1" d="M342.85,266.76h-85.38c-3.94,0-7.09-3.15-7.09-7.09s3.15-7.09,7.09-7.09h85.38c3.94,0,7.09,3.15,7.09,7.09s-3.15,7.09-7.09,7.09Z"/>
      <path class="cls-1" d="M385.53,317.8h-.16c-11.66-.16-21.11-9.77-21.11-21.74v-9.77c0-2.21-1.89-4.1-4.1-4.1h-17.17c-3.94,0-7.09-3.15-7.09-7.09s3.15-7.09,7.09-7.09h17.01c10.08,0,18.43,8.19,18.43,18.43v9.77c0,4.1,3.15,7.4,7.09,7.4,1.89,0,3.78-.79,5.04-2.05s2.05-3.15,2.05-5.04v-27.88c0-6.46-3.62-12.29-9.45-15.12-3.47-1.73-4.88-5.99-3.15-9.61,1.73-3.47,5.99-4.88,9.61-3.15,10.71,5.36,17.17,16.07,17.17,27.88v27.88c0,5.67-2.21,11.03-6.3,15.12s-9.29,6.14-14.96,6.14Z"/>
    </g>
  </g>
</svg>