<?xml version="1.0" encoding="UTF-8"?>
<svg id="Layer_1" data-name="Layer 1" xmlns="http://www.w3.org/2000/svg" viewBox="0 0 600 600">
  <defs>
    <style>
      .cls-1 {
        fill: #de7f43;
      }
    </style>
  </defs>
  <g>
    <path class="cls-1" d="M206.19,391.68c-6.51,0-12.71-2.35-17.61-6.72l-25.82-22.99c-5.29-4.71-8.43-11.2-8.84-18.28-.41-7.07,1.96-13.88,6.67-19.18l28.56-32.07c2.1-2.36,5.72-2.57,8.08-.47,2.36,2.1,2.57,5.72.47,8.08l-28.56,32.07c-5.53,6.21-4.97,15.76,1.23,21.28l25.82,22.99c6.21,5.53,15.76,4.98,21.28-1.23l28.56-32.07c2.1-2.36,5.72-2.57,8.08-.47,2.36,2.1,2.57,5.72.47,8.08l-28.56,32.07c-4.71,5.29-11.2,8.43-18.28,8.84-.52.03-1.05.05-1.57.05Z"/>
    <path class="cls-1" d="M263.5,359c-5.31,0-10.38-1.92-14.38-5.49l-62.12-55.31c-8.92-7.94-9.71-21.66-1.77-30.58,7.94-8.92,21.66-9.72,30.58-1.77h0l62.12,55.31c8.92,7.94,9.71,21.66,1.77,30.58-3.85,4.32-9.15,6.89-14.92,7.22-.43.02-.86.04-1.28.04ZM201.42,271.82c-.2,0-.4,0-.6.02-2.72.16-5.22,1.37-7.03,3.4-1.81,2.04-2.73,4.66-2.57,7.38.16,2.72,1.37,5.22,3.4,7.03l62.12,55.31c2.04,1.81,4.66,2.73,7.38,2.57,2.72-.16,5.22-1.37,7.03-3.4,3.74-4.2,3.37-10.67-.84-14.41l-62.12-55.31c-1.89-1.68-4.27-2.59-6.78-2.59Z"/>
    <g>
      <path class="cls-1" d="M262.97,321.24c-1.37,0-2.74-.49-3.83-1.48-2.35-2.12-2.53-5.74-.41-8.09l32.29-35.78c2.12-2.35,5.74-2.53,8.09-.41,2.35,2.12,2.53,5.74.41,8.09l-32.29,35.78c-1.13,1.25-2.69,1.89-4.25,1.89Z"/>
      <path class="cls-1" d="M222.91,285.57c-1.37,0-2.74-.49-3.83-1.48-2.35-2.12-2.53-5.74-.41-8.09l32.29-35.78c2.12-2.35,5.74-2.53,8.09-.41,2.35,2.12,2.53,5.74.41,8.09l-32.29,35.78c-1.13,1.25-2.69,1.89-4.25,1.89Z"/>
    </g>
    <path class="cls-1" d="M87,463.44c-8.84,0-17.27-3.2-23.92-9.13-2.36-2.1-2.57-5.72-.47-8.08,2.1-2.36,5.72-2.57,8.08-.47,4.91,4.37,11.22,6.56,17.78,6.18,6.56-.38,12.57-3.29,16.94-8.2l69.79-78.37c2.1-2.36,5.72-2.57,8.08-.47,2.36,2.1,2.57,5.72.47,8.08l-69.79,78.37c-6.4,7.19-15.22,11.46-24.83,12.01-.71.04-1.42.06-2.13.06Z"/>
  </g>
  <g>
    <path class="cls-1" d="M517.38,136.56h-166.37c-11.83,0-21.46,8.59-21.46,19.14v288.6c0,10.56,9.63,19.14,21.46,19.14h166.37c11.83,0,21.46-8.59,21.46-19.14V155.7c0-10.55-9.63-19.14-21.46-19.14ZM524.32,444.3c0,3.42-3.12,6.19-6.94,6.19h-166.37c-3.83,0-6.94-2.78-6.94-6.19V155.7c0-3.42,3.11-6.19,6.94-6.19h166.37c3.83,0,6.94,2.78,6.94,6.19v288.6Z"/>
    <path class="cls-1" d="M462.73,179.91h-53.93c-26.18,0-47.49,21.3-47.49,47.49s21.3,47.49,47.49,47.49h53.93c26.18,0,47.49-21.3,47.49-47.49s-21.3-47.49-47.49-47.49ZM462.73,261.94h-53.93c-19.05,0-34.54-15.49-34.54-34.54s15.49-34.54,34.54-34.54h53.93c19.04,0,34.54,15.49,34.54,34.54s-15.49,34.54-34.54,34.54Z"/>
    <path class="cls-1" d="M462.73,325.12h-53.93c-26.18,0-47.49,21.3-47.49,47.49s21.3,47.49,47.49,47.49h53.93c26.18,0,47.49-21.3,47.49-47.49s-21.3-47.49-47.49-47.49ZM462.73,407.14h-53.93c-19.05,0-34.54-15.49-34.54-34.54s15.49-34.54,34.54-34.54h53.93c19.04,0,34.54,15.5,34.54,34.54s-15.49,34.54-34.54,34.54Z"/>
    <path class="cls-1" d="M413.37,214.45c-3.87,0-7.01,3.14-7.01,7.01v11.87c0,3.87,3.14,7.01,7.01,7.01s7.01-3.14,7.01-7.01v-11.87c0-3.87-3.14-7.01-7.01-7.01Z"/>
    <path class="cls-1" d="M458.15,214.45c-3.88,0-7.01,3.14-7.01,7.01v11.87c0,3.87,3.14,7.01,7.01,7.01s7.01-3.14,7.01-7.01v-11.87c0-3.87-3.14-7.01-7.01-7.01Z"/>
    <path class="cls-1" d="M413.37,359.65c-3.87,0-7.01,3.14-7.01,7.01v11.87c0,3.87,3.14,7.01,7.01,7.01s7.01-3.14,7.01-7.01v-11.87c0-3.87-3.14-7.01-7.01-7.01Z"/>
    <path class="cls-1" d="M458.15,359.65c-3.88,0-7.01,3.14-7.01,7.01v11.87c0,3.87,3.14,7.01,7.01,7.01s7.01-3.14,7.01-7.01v-11.87c0-3.87-3.14-7.01-7.01-7.01Z"/>
  </g>
</svg>