<?xml version="1.0" encoding="UTF-8"?>
<svg id="Layer_1" data-name="Layer 1" xmlns="http://www.w3.org/2000/svg" viewBox="0 0 600 600">
  <defs>
    <style>
      .cls-1 {
        fill: #de7f43;
        stroke: #de7f43;
        stroke-miterlimit: 10;
        stroke-width: 3px;
      }
    </style>
  </defs>
  <path class="cls-1" d="M199.22,203.65c-.03-.44-.07-.88-.13-1.32-.05-.44-.12-.88-.19-1.31-.07-.44-.16-.87-.25-1.3-.1-.43-.2-.86-.32-1.29-.12-.43-.24-.85-.38-1.27-.14-.42-.29-.83-.45-1.24-.16-.41-.33-.81-.51-1.21-.18-.4-.37-.79-.57-1.19-.2-.39-.41-.78-.62-1.16-.22-.38-.45-.76-.68-1.12-.24-.37-.48-.73-.74-1.09-.25-.36-.52-.71-.79-1.05-.27-.34-.55-.68-.84-1.01-.29-.33-.58-.65-.89-.97-.3-.32-.61-.62-.93-.93-.32-.3-.64-.59-.98-.88-.33-.29-.67-.56-1.02-.83-.35-.27-.7-.53-1.06-.78-.36-.25-.72-.49-1.1-.73-.37-.23-.75-.46-1.13-.67-.38-.21-.77-.42-1.16-.62-5.55-2.78-10.53-2.91-16.58-2.43-8.14,3.11-14.44,7.48-18.09,15.68-2.81,6.32-3.17,13.55-.63,20.02.16.4.33.8.51,1.19.18.39.37.78.57,1.16.2.38.41.76.62,1.13.22.37.44.74.68,1.1.24.36.48.71.73,1.06.25.35.51.69.79,1.03.27.33.55.66.83.98.29.32.58.63.88.94.3.31.61.61.93.9.32.29.64.57.97.85.33.27.67.54,1.01.8.35.26.7.51,1.05.75.36.24.72.47,1.09.69.37.22.74.43,1.12.64.38.2.76.4,1.15.58.39.18.78.36,1.18.52,5.03,2.1,10.35,2.41,15.72,1.79,7.48-2.43,13.58-6.08,17.31-13.28.2-.39.39-.79.57-1.2.18-.4.35-.81.51-1.22s.31-.83.45-1.25c.14-.42.27-.84.39-1.27.12-.43.23-.85.33-1.29.1-.43.19-.86.26-1.3.08-.44.14-.87.2-1.31.06-.44.1-.88.13-1.32.03-.44.06-.88.07-1.32.01-.44.01-.88,0-1.33,0-.44-.03-.88-.06-1.33ZM190.16,206.77c-.05.57-.13,1.14-.24,1.7-.11.56-.24,1.12-.41,1.67-.17.55-.36,1.09-.58,1.62-.22.53-.47,1.05-.74,1.55-2.98,5.5-7.41,7.74-13.2,9.48-3.29-.27-6.15-.65-9.09-2.25-4.03-2.18-7.14-5.72-8.42-10.16-.16-.54-.29-1.09-.39-1.65-.1-.56-.17-1.12-.22-1.68-.05-.56-.06-1.13-.05-1.69.01-.57.05-1.13.12-1.69.07-.56.16-1.12.29-1.67.12-.55.28-1.1.46-1.63.18-.54.38-1.06.62-1.58.23-.52.49-1.02.77-1.51,3.18-5.53,7.86-7.91,13.83-9.48,2.65.34,5.2.98,7.61,2.17,4.1,2.04,7.43,5.65,8.86,10.02.18.54.33,1.1.46,1.66.12.56.22,1.12.29,1.69.07.57.1,1.14.11,1.71,0,.57-.01,1.15-.06,1.72Z"/>
  <path class="cls-1" d="M371.71,203.69c-.03-.45-.07-.9-.12-1.35-.05-.45-.11-.9-.19-1.35-.07-.45-.16-.89-.25-1.34-.1-.44-.2-.88-.32-1.32-1.79-6.87-6.09-12.84-12.29-16.35-4.8-2.71-10.81-3.91-16.29-3.62-8.26,2.39-15.25,5.78-19.58,13.6-.22.4-.43.81-.62,1.22-.2.41-.38.83-.56,1.25-.18.42-.34.85-.5,1.28-.16.43-.3.86-.43,1.3-.13.44-.26.88-.37,1.32-.11.44-.21.89-.3,1.34-.09.45-.17.9-.23,1.35-.07.45-.12.91-.17,1.36-.04.45-.08.91-.1,1.37-.02.46-.03.91-.03,1.37,0,.46.01.91.04,1.37.02.46.06.91.11,1.37.05.45.11.91.18,1.36.07.45.15.9.24,1.35.09.45.2.89.31,1.34.12.44.24.88.38,1.32.13.42.27.83.42,1.24.15.41.31.81.48,1.21.17.4.35.8.54,1.19.19.39.39.78.6,1.16.21.38.43.76.66,1.13s.47.74.71,1.09c.25.36.5.71.77,1.06.26.35.54.68.82,1.02.28.33.57.66.87.98.3.32.6.63.92.93s.63.6.96.88c.33.29.66.56,1.01.83.34.27.69.53,1.05.78.35.25.72.49,1.08.73.37.23.74.46,1.12.67.38.22.76.42,1.15.62,4.92,2.47,10.05,3.36,15.52,3.06,7.82-1.91,14.28-5.45,18.6-12.48.23-.39.46-.78.67-1.18.21-.4.42-.8.61-1.21.19-.41.38-.82.55-1.24.17-.42.34-.84.49-1.27.15-.43.29-.86.42-1.29s.25-.87.36-1.31c.11-.44.2-.88.29-1.33.09-.45.16-.89.22-1.34.06-.45.12-.9.16-1.35.04-.45.07-.9.09-1.36.02-.45.02-.91.02-1.36,0-.45-.02-.91-.05-1.36ZM362.59,205.32c0,.3-.02.6-.05.91-.02.3-.05.6-.09.9-.04.3-.08.6-.14.9-.05.3-.12.59-.19.89-.07.29-.15.59-.23.88-.09.29-.18.58-.28.87-.1.29-.21.57-.32.85-.12.28-.24.56-.37.83-.13.27-.26.54-.41.81-2.76,5.09-7.17,7.73-12.55,9.34-3.53.22-7.02-.25-10.19-1.88-4.01-2.06-7.07-5.88-8.38-10.17-1.38-4.55-1.03-9.5,1.24-13.7,2.88-5.31,7.17-7.43,12.7-9,3.36,0,6.54.18,9.61,1.69,4.05,1.99,7.16,5.38,8.65,9.64.1.29.19.57.28.86.09.29.16.58.23.88.07.29.13.59.19.89.06.3.1.6.14.9.04.3.07.6.1.9.02.3.04.6.05.91,0,.3,0,.61,0,.91Z"/>
  <path class="cls-1" d="M458.81,204.78c-.03-.45-.07-.9-.12-1.35-.05-.45-.11-.9-.19-1.35-.07-.45-.16-.89-.25-1.34-.1-.44-.2-.88-.32-1.32-1.79-6.87-6.09-12.84-12.29-16.35-4.8-2.71-10.81-3.91-16.29-3.62-8.26,2.39-15.25,5.78-19.58,13.6-.22.4-.43.81-.62,1.22-.2.41-.38.83-.56,1.25-.18.42-.34.85-.5,1.28-.16.43-.3.86-.43,1.3-.13.44-.26.88-.37,1.32-.11.44-.21.89-.3,1.34-.09.45-.17.9-.23,1.35-.07.45-.12.91-.17,1.36-.04.45-.08.91-.1,1.37-.02.46-.03.91-.03,1.37,0,.46.01.91.04,1.37.02.46.06.91.11,1.37.05.45.11.91.18,1.36.07.45.15.9.24,1.35.09.45.2.89.31,1.34.12.44.24.88.38,1.32.13.42.27.83.42,1.24.15.41.31.81.48,1.21.17.4.35.8.54,1.19.19.39.39.78.6,1.16.21.38.43.76.66,1.13s.47.74.71,1.09c.25.36.5.71.77,1.06.26.35.54.68.82,1.02.28.33.57.66.87.98.3.32.6.63.92.93s.63.6.96.88c.33.29.66.56,1.01.83.34.27.69.53,1.05.78.35.25.72.49,1.08.73.37.23.74.46,1.12.67.38.22.76.42,1.15.62,4.92,2.47,10.05,3.36,15.52,3.06,7.82-1.91,14.28-5.45,18.6-12.48.23-.39.46-.78.67-1.18.21-.4.42-.8.61-1.21.19-.41.38-.82.55-1.24.17-.42.34-.84.49-1.27.15-.43.29-.86.42-1.29s.25-.87.36-1.31c.11-.44.2-.88.29-1.33.09-.45.16-.89.22-1.34.06-.45.12-.9.16-1.35.04-.45.07-.9.09-1.36.02-.45.02-.91.02-1.36,0-.45-.02-.91-.05-1.36ZM449.7,206.41c0,.3-.02.6-.05.91-.02.3-.05.6-.09.9-.04.3-.08.6-.14.9-.05.3-.12.59-.19.89-.07.29-.15.59-.23.88-.09.29-.18.58-.28.87-.1.29-.21.57-.32.85-.12.28-.24.56-.37.83-.13.27-.26.54-.41.81-2.76,5.09-7.17,7.73-12.55,9.34-3.53.22-7.02-.25-10.19-1.88-4.01-2.06-7.07-5.88-8.38-10.17-1.38-4.55-1.03-9.5,1.24-13.7,2.88-5.31,7.17-7.43,12.7-9,3.36,0,6.54.18,9.61,1.69,4.05,1.99,7.16,5.38,8.65,9.64.1.29.19.57.28.86.09.29.16.58.23.88.07.29.13.59.19.89.06.3.1.6.14.9.04.3.07.6.1.9.02.3.04.6.05.91,0,.3,0,.61,0,.91Z"/>
  <path class="cls-1" d="M284.11,203.79c-.02-.44-.05-.88-.09-1.32-.04-.44-.09-.87-.15-1.31-.06-.44-.13-.87-.22-1.3-.08-.43-.18-.86-.28-1.29-.1-.43-.22-.85-.35-1.27-.13-.42-.26-.84-.41-1.25-.14-.42-.3-.83-.46-1.24-.16-.41-.34-.82-.52-1.22-.19-.4-.38-.8-.58-1.19-.2-.39-.42-.78-.64-1.16s-.46-.76-.7-1.12-.5-.73-.76-1.09-.53-.71-.81-1.05c-.28-.34-.57-.68-.86-1-.3-.33-.6-.65-.91-.96-.31-.31-.63-.62-.96-.91s-.66-.58-1.01-.86c-.34-.28-.69-.55-1.05-.81-.36-.26-.72-.51-1.09-.76-.37-.24-.74-.48-1.13-.7-.38-.22-.77-.44-1.16-.64s-.79-.4-1.19-.58c-4.98-2.31-10.11-3.05-15.54-2.49-8.66,3.3-15.44,7.51-19.39,16.28-.19.41-.36.83-.52,1.25-.16.42-.32.85-.46,1.28s-.27.86-.39,1.3c-.12.44-.23.88-.33,1.32-.1.44-.18.89-.26,1.33s-.14.9-.19,1.35c-.05.45-.09.9-.12,1.35-.03.45-.05.91-.05,1.36,0,.45,0,.91.02,1.36.02.45.04.91.08,1.36.04.45.09.9.15,1.35.06.45.14.9.22,1.34.09.45.18.89.29,1.33.11.44.23.88.36,1.31.13.43.27.86.42,1.29.15.43.32.85.49,1.27.16.39.32.78.5,1.17.18.38.36.76.56,1.14.2.38.4.75.61,1.11.21.37.44.72.67,1.08.23.35.47.7.72,1.04.25.34.51.68.78,1.01.27.33.54.65.83.96.28.31.57.62.87.92.3.3.61.59.92.88.31.28.63.56.96.83.33.27.66.53,1,.78.34.25.69.49,1.04.73.35.23.71.46,1.08.67.36.22.73.42,1.11.62.37.2.75.38,1.14.56.38.18.77.35,1.17.5,5.34,2.17,10.31,2.16,15.93,1.45,7.87-2.61,14.23-6.96,17.97-14.57.19-.39.38-.79.55-1.2.17-.4.34-.81.49-1.22.15-.41.3-.83.43-1.25.13-.42.26-.84.37-1.27.11-.43.21-.85.3-1.28.09-.43.17-.86.24-1.3.07-.43.13-.87.17-1.31.05-.44.08-.88.11-1.31.03-.44.04-.88.04-1.32,0-.44,0-.88-.02-1.32ZM275.18,206.42c-.05.55-.13,1.1-.23,1.65-.1.55-.24,1.08-.39,1.62-.16.53-.34,1.06-.55,1.57-2.37,5.77-6.66,8.52-12.24,10.75-3.6.34-7.35.37-10.75-1.02-4.29-1.76-7.73-5.06-9.43-9.4-.2-.52-.37-1.05-.52-1.58-.15-.54-.27-1.08-.36-1.63-.1-.55-.16-1.1-.2-1.66-.04-.55-.05-1.11-.04-1.67.01-.56.05-1.11.12-1.66.07-.55.16-1.1.28-1.64.12-.54.27-1.08.44-1.61.17-.53.37-1.05.6-1.56,2.61-5.93,7.11-8.64,12.93-10.85,3.07-.11,5.87.01,8.79,1.08,4.53,1.66,8.3,5.03,10.23,9.48.22.51.42,1.03.59,1.56.17.53.31,1.06.43,1.61.12.54.21,1.09.27,1.64.06.55.1,1.11.1,1.66,0,.56-.02,1.11-.07,1.66Z"/>
  <path class="cls-1" d="M500.3,475.17c4.6-6.17,8.06-12.54,9.01-20.28,1.65-13.49.51-28.03.41-41.65-.1-22.4-.09-44.79.04-67.19.35-44.74.36-89.48.02-134.22-.06-16.3,1.63-41.89-.4-56.77-1.38-10.08-5.31-17.61-13.56-23.74-5.44-4.05-10.75-5.64-17.43-6.29-12.34-1.21-25.18-.5-37.6-.51l-68.56.05-148.21-.03c-31.16,0-62.46.54-93.61-.23-12.07,1.29-22.57,5.9-30.39,15.48-4.52,5.53-7.8,11.97-8.67,19.09-2.12,17.41-.99,35.73-1.01,53.28l.02,98.64-.23,97.07c-.02,15.04-1.29,31.41.31,46.28.88,8.2,5.59,14.48,10.64,20.69M107.35,146.52c5.24-7.31,12.65-10.75,21.3-12.13,1.05-.06,2.1-.08,3.16-.1,74.17-1.69,148.64-.28,222.84-.28l78.18-.05c14.95-.03,30.62-.99,45.49.55,5.69.59,9.88,1.99,14.03,6.06,6.98,6.85,8.01,15.45,7.98,24.71-9.13.83-18.46.47-27.63.46l-273.03.05c-12.65,0-93.72,1.45-99.45-.67-.24-.57-.35-.75-.47-1.31-.94-4.34,5.14-13.84,7.6-17.27ZM500.23,237.11h-250.26s-96.73.09-96.73.09c-17.72.09-35.47-.18-53.17.68l.06-62.63c16.05-.58,32.28-.17,48.34-.18,35.75-.14,71.5-.08,107.25.19l98.28-.1c24.8-.13,49.82-.79,74.6.22.64-.57,1.51-.94,2.62-.94s1.97.36,2.61.93c8.75-.54,17.69-.21,26.45-.22,13.29-.16,26.57-.07,39.86.26l.1,61.7ZM492.84,468.68c-5.19,5.02-9.97,6.35-17.05,6.51-26.04.6-52.22,0-78.28-.01l-151.87-.07h-80.3c-14.27.02-29.6,1.2-43.71-.65-5.41-.71-10.37-3.47-14.24-7.29-3.51-3.46-6.48-8.72-7.26-13.62-1.17-7.38-.58-15.41-.56-22.9l.12-39.64.28-144.44,400.21-.17.08,143.83.03,39.61c.02,8.26.62,17.11-.66,25.29-.84,5.37-3.49,9.36-6.77,13.56Z"/>
  <path class="cls-1" d="M465.04,340.45c0-18.9,1.45-44.07,0-62.2-.27-3.43-.98-7.38-2.94-10.28-1.23-1.82-3.53-2.05-5.6-2.38-11.06-1.74-22.88-.91-34.07-.91l-55.15.06-147.62-.12c-23.61-.04-47.34.48-70.93-.08-2.76,1.12-5.7,2.28-7.1,5.14-.81,1.66-.93,3.73-.99,5.56-.46,14.01-.86,126.46,1.23,131.6.78,1.93,2.18,3.55,4.12,4.34,3.74,1.52,8.27,1.77,12.26,1.83,19.15.33,38.36-.12,57.51-.1l141.82.05h67.41c10.6-.04,22.27.85,32.67-.83,3.32-2.22,5.92-4.37,6.75-8.54,1.57-7.9.72-17.01.68-25.07l-.04-38.07ZM455.51,402.17c-1.73,1.06-3.49,1.08-5.47,1.13-38.58.96-77.44-.04-116.04-.06l-183.67.14c-1-15.1-.33-30.66-.34-45.81l-.04-83.3c13.09-.78,26.45-.23,39.58-.21l71.29.09,194.84.08c.12,42.59.8,85.37-.15,127.94Z"/>
  <rect class="cls-1" x="101.73" y="468.36" width="398.49" height="7.34"/>
</svg>