<?xml version="1.0" encoding="UTF-8"?>
<svg id="Layer_1" data-name="Layer 1" xmlns="http://www.w3.org/2000/svg" viewBox="0 0 600 600">
  <defs>
    <style>
      .cls-1 {
        fill: #de7f43;
        stroke: #de7f43;
        stroke-miterlimit: 10;
        stroke-width: 3px;
      }
    </style>
  </defs>
  <path class="cls-1" d="M168.98,497.3c15.25-.12,30.5-.13,45.74-.04l.03,17.09c-15.27.17-30.54.16-45.8-.01l.03-17.03Z"/>
  <path class="cls-1" d="M382.98,497.51c15.46-.18,30.93-.16,46.39.06.36,5.52.64,11.04.85,16.57-15.64.78-31.34.45-46.99.31-.37-5.63-.24-11.3-.25-16.94Z"/>
  <path class="cls-1" d="M351.8,134.31c-.08-.79-.19-1.57-.34-2.34-.15-.77-.35-1.54-.57-2.3-.24-.77-.52-1.52-.84-2.26-.32-.74-.67-1.46-1.06-2.17-.39-.71-.81-1.39-1.27-2.05-.46-.66-.95-1.3-1.47-1.92-.52-.61-1.07-1.2-1.65-1.76-.58-.56-1.19-1.08-1.82-1.58-.63-.5-1.29-.96-1.97-1.39-.68-.43-1.38-.83-2.1-1.19-4.79-2.43-9.66-2.94-14.95-2.54-7.85,3.23-13.89,7.51-17.08,15.7-.31.79-.58,1.59-.81,2.41-.23.82-.41,1.65-.55,2.48-.14.84-.23,1.68-.28,2.52-.05.85-.05,1.69-.01,2.54.04.85.12,1.69.25,2.53.13.84.3,1.67.52,2.49.22.82.48,1.63.78,2.42.3.79.65,1.57,1.03,2.32,2.84,5.48,8.13,9.54,14.04,11.17,3.59.99,7.37.9,11.06.78,7.12-2.09,12.66-5.46,16.32-12.14.38-.69.72-1.41,1.03-2.14.31-.73.57-1.47.81-2.23s.43-1.52.59-2.3c.16-.77.27-1.56.35-2.34.08-.79.12-1.57.12-2.37,0-.79-.03-1.58-.11-2.37ZM340.71,139.22c-1.33,5.33-4.32,8.06-8.81,10.91-1.97.09-3.75.07-5.71-.26-3.31-.55-6.48-2.87-8.27-5.68-2.09-3.27-2.41-7.22-1.38-10.91,1.47-5.26,4.69-7.73,9.18-10.45,1.8-.04,3.67.05,5.44.4,3.39.68,6.54,3.1,8.29,6.05,1.77,2.99,2.09,6.6,1.26,9.93Z"/>
  <path class="cls-1" d="M418.12,135.2c-.04-.93-.13-1.85-.26-2.77-.13-.92-.31-1.83-.54-2.73-.23-.9-.5-1.79-.81-2.66-.33-.93-.7-1.84-1.12-2.74-.42-.89-.89-1.76-1.4-2.61-.51-.85-1.06-1.66-1.66-2.45-.6-.79-1.23-1.54-1.9-2.27-.67-.72-1.38-1.41-2.12-2.06-.74-.65-1.52-1.26-2.32-1.83-.81-.57-1.64-1.1-2.5-1.58-.86-.49-1.74-.93-2.65-1.32-5.2-2.27-9.96-2.78-15.56-2.39-9.19,2.94-16.38,7.25-20.97,16.08-.41.79-.78,1.6-1.11,2.43-.33.83-.62,1.67-.87,2.53-.25.86-.45,1.73-.62,2.6-.16.88-.28,1.76-.36,2.65-.08.89-.11,1.78-.1,2.67.01.89.07,1.78.16,2.67.1.89.24,1.77.43,2.64.18.87.41,1.73.68,2.59.3.96.65,1.9,1.05,2.82.4.92.85,1.82,1.34,2.7.49.88,1.03,1.72,1.61,2.54.58.82,1.2,1.61,1.86,2.36.66.76,1.36,1.48,2.09,2.16.73.68,1.5,1.33,2.31,1.93.8.6,1.63,1.17,2.49,1.69.86.52,1.74.99,2.65,1.42,5.69,2.66,10.89,3.27,17.09,2.85,9.05-3.25,15.92-7.4,20.3-16.43.41-.83.78-1.69,1.1-2.56.33-.87.61-1.76.84-2.66.24-.9.43-1.81.57-2.72.15-.92.24-1.84.29-2.77.05-.93.06-1.85.02-2.78ZM406.37,141.76c-2.45,6.84-7.27,10.09-13.53,13.15-2.54.23-5.09.12-7.55-.65-5.13-1.62-9.42-5.18-11.49-10.19-2.01-4.85-1.75-10.44.39-15.2,2.69-5.97,7.11-8.38,12.9-10.82,2.47.15,5.01.29,7.38,1.03,4.62,1.43,9.07,4.41,11.32,8.79,2.25,4.39,2.22,9.31.57,13.89Z"/>
  <path class="cls-1" d="M285.97,113.7c-34.06-.92-68.64-.86-102.71-.04-2.89,11.98-1.35,31.53.57,43.57,33.77.46,68.05,1.19,101.8,0,1.44-14.08,1.21-29.41.34-43.54ZM193.25,146.1c-.24-7.31-.17-14.67-.25-21.98,27.68-.22,55.37-.29,83.05-.19v22.29s-82.8-.12-82.8-.12Z"/>
  <path class="cls-1" d="M449.31,264.28l-.05-111.54c0-15.87.87-32.06.24-47.87-.11-2.79-.55-5.67-1.47-8.32-1.37-3.96-4.08-6.96-7.9-8.67-3.72-1.66-8-2.25-12.04-2.38-14.48-.44-29.15.31-43.65.34l-97.49-.06-79.97-.07c-14.37,0-29.05-.61-43.38.25-5.18,2.59-9.1,4.99-11.07,10.69-4.05,11.68-1.42,56.91-1.39,71.4l.26,137.53c.11,55-1.21,110.32.14,165.28.1,4.13-.14,9.23,1.99,12.88.7,1.19,1.87,2.34,2.79,3.34,24.86,3.9,68.46,1.28,95.51,1.27l186.26.52c3.74-1.06,7.23-2.86,9.26-6.37,2.24-3.87,1.85-9.99,1.96-14.37.62-24.27,0-48.71-.04-73l.04-130.85ZM437.88,478.15c-32.47.74-65.18-.24-97.67-.33l-177.53.04c-.74-61-.03-122.05-.03-183.06,0-37.43-.95-74.87-.66-112.29,33.75-.94,67.78-.1,101.56-.11l174.9.06-.57,295.7ZM437.56,171.74l-275.84-.07c-.1-13.73-2.78-64.86,2.32-74.42l161.48.39c36.95-.05,74.39-1.57,111.26.26,3.01,9.52,2.4,62.97.79,73.84Z"/>
  <path class="cls-1" d="M413.89,316.96c-.09-1.89-.23-3.78-.42-5.67-.19-1.89-.42-3.77-.7-5.64-.28-1.87-.61-3.74-.98-5.59-.37-1.86-.79-3.71-1.26-5.54-.46-1.84-.97-3.66-1.53-5.47s-1.15-3.61-1.8-5.39c-.64-1.78-1.33-3.54-2.06-5.29-.73-1.75-1.5-3.48-2.32-5.19-.82-1.71-1.68-3.4-2.58-5.06-.9-1.67-1.84-3.31-2.83-4.93-.98-1.62-2-3.21-3.07-4.78-1.06-1.57-2.16-3.11-3.3-4.62-1.14-1.51-2.31-3-3.53-4.46-1.21-1.46-2.46-2.88-3.74-4.27-1.28-1.39-2.6-2.76-3.95-4.08-1.35-1.33-2.73-2.62-4.15-3.88-23.1-20.68-49.19-29.25-80.02-28.54-32.94,2.16-59.19,14.25-81.31,39.22-1.23,1.41-2.42,2.84-3.58,4.31-1.16,1.46-2.28,2.96-3.36,4.48-1.08,1.52-2.13,3.07-3.14,4.64-1.01,1.57-1.98,3.17-2.91,4.79-.93,1.62-1.82,3.26-2.67,4.92-.85,1.66-1.66,3.34-2.43,5.04-.77,1.7-1.5,3.42-2.18,5.16-.68,1.74-1.33,3.49-1.93,5.26-.6,1.77-1.15,3.55-1.67,5.35-.51,1.8-.98,3.6-1.4,5.42-.42,1.82-.8,3.65-1.14,5.48-.33,1.84-.62,3.68-.87,5.53-.24,1.85-.44,3.71-.6,5.57-.15,1.86-.26,3.72-.32,5.59-.06,1.87-.08,3.73-.05,5.6.03,1.87.1,3.73.22,5.6,2.02,30.1,17.17,58.79,40.06,78.35,20.64,17.64,49.48,28.35,76.74,27.06,31.94-1.66,59.99-13.9,81.69-37.79,1.24-1.37,2.44-2.77,3.6-4.19,1.17-1.43,2.3-2.88,3.4-4.36s2.15-2.99,3.18-4.52c1.02-1.53,2.01-3.09,2.95-4.67.95-1.58,1.85-3.18,2.72-4.81.87-1.63,1.69-3.27,2.48-4.94.79-1.67,1.54-3.35,2.24-5.05.71-1.7,1.37-3.42,1.99-5.16.62-1.73,1.2-3.48,1.74-5.25.54-1.76,1.03-3.54,1.48-5.32s.85-3.58,1.22-5.39c.36-1.81.68-3.62.95-5.44.27-1.82.5-3.65.68-5.48.18-1.83.32-3.67.42-5.51.09-1.84.14-3.68.15-5.52s-.04-3.69-.12-5.53ZM403.48,328.35c-.1,1.65-.23,3.3-.4,4.95-.18,1.65-.39,3.29-.65,4.92-.25,1.64-.55,3.26-.89,4.89-.33,1.62-.71,3.23-1.12,4.84-.41,1.6-.87,3.2-1.36,4.78-.49,1.58-1.02,3.15-1.59,4.7-.57,1.56-1.18,3.1-1.82,4.62-.64,1.53-1.33,3.03-2.04,4.53-.72,1.49-1.47,2.97-2.26,4.42-.79,1.46-1.62,2.89-2.48,4.31-.86,1.41-1.76,2.81-2.69,4.18-16.6,24.26-41.33,39.12-69.95,44.5-1.66.25-3.32.46-4.99.64-1.67.17-3.34.31-5.01.4-1.67.09-3.35.15-5.02.16-1.68.02-3.35,0-5.03-.07-1.68-.06-3.35-.17-5.02-.31-1.67-.14-3.34-.33-5-.55-1.66-.22-3.32-.49-4.97-.79-1.65-.3-3.29-.64-4.92-1.02-1.63-.38-3.26-.8-4.87-1.25-1.61-.46-3.21-.95-4.8-1.48-1.59-.53-3.17-1.1-4.73-1.71-1.56-.61-3.11-1.25-4.64-1.93-1.53-.68-3.05-1.4-4.55-2.15-1.5-.75-2.98-1.54-4.44-2.36-1.46-.82-2.9-1.68-4.32-2.57-1.42-.89-2.82-1.81-4.2-2.77-22.07-15.47-37.43-40.62-41.95-67.11-4.47-26.17,2.57-54.88,17.88-76.48,16.78-23.66,41.79-38.08,70.16-42.77,24.99-3.72,51.59,2.72,72.51,16.63,23.47,15.6,38.29,39.59,43.53,67.14.31,1.63.58,3.26.81,4.9.23,1.64.42,3.29.57,4.94.15,1.65.26,3.3.32,4.96.07,1.65.1,3.31.08,4.97-.01,1.66-.07,3.31-.16,4.96Z"/>
  <path class="cls-1" d="M383.66,308.94c-3.56-21.96-16.65-42.45-34.74-55.32-1.01-.7-2.03-1.39-3.07-2.04-1.04-.66-2.09-1.3-3.16-1.91-1.07-.61-2.15-1.2-3.24-1.77-1.09-.57-2.19-1.11-3.31-1.63-1.12-.52-2.24-1.01-3.38-1.48-1.14-.47-2.28-.92-3.44-1.34-1.16-.42-2.32-.82-3.49-1.19-1.17-.37-2.35-.72-3.54-1.04-1.19-.32-2.38-.61-3.58-.88-1.2-.27-2.41-.51-3.62-.72-1.21-.22-2.43-.4-3.65-.57-1.22-.16-2.44-.3-3.67-.41-1.23-.11-2.45-.19-3.68-.25-1.23-.06-2.46-.09-3.69-.09-1.23,0-2.46.02-3.69.07s-2.46.13-3.68.23c-24.34,3.03-44.66,12.69-59.84,32.42-13.4,17.4-20.64,39.54-17.6,61.5,3.12,22.53,16.18,43.45,34.33,57.01,16.97,12.68,36.47,17.43,57.37,16.65,24.1-3.79,46.38-14.07,61.09-34.23,12.81-17.56,18.77-41.52,15.29-63.01ZM374.14,325.59c-.07,1.22-.16,2.43-.29,3.65-.13,1.21-.28,2.42-.47,3.63-.19,1.21-.4,2.4-.65,3.6-.24,1.19-.52,2.38-.82,3.56-.3,1.18-.64,2.35-1,3.52-.36,1.16-.75,2.32-1.17,3.46-.42,1.15-.86,2.28-1.34,3.4-.47,1.12-.98,2.23-1.5,3.33-.53,1.1-1.08,2.18-1.66,3.26-.58,1.07-1.19,2.13-1.82,3.17-.63,1.04-1.29,2.07-1.98,3.08-.68,1.01-1.39,2-2.12,2.97-13.86,18.41-32.83,26.59-55.12,29.71-19.22-.37-36.47-5.06-51.63-17.32-.94-.76-1.86-1.54-2.75-2.34-.9-.81-1.78-1.63-2.64-2.48-.86-.85-1.69-1.72-2.51-2.61-.81-.89-1.6-1.8-2.37-2.73-.77-.93-1.51-1.88-2.23-2.84-.72-.97-1.42-1.95-2.09-2.95-.67-1-1.32-2.02-1.94-3.05-.62-1.03-1.22-2.08-1.78-3.15-.57-1.06-1.11-2.14-1.63-3.23-.52-1.09-1-2.19-1.47-3.31-.46-1.11-.89-2.24-1.3-3.38-.4-1.14-.78-2.28-1.13-3.44-.35-1.16-.67-2.32-.95-3.49s-.55-2.35-.78-3.53c-.23-1.18-.43-2.37-.6-3.56-.17-1.19-.31-2.39-.42-3.59-1.89-19.58,4.94-39.33,17.48-54.34,14.34-17.16,32.29-23.61,53.99-25.57,16.16-1.01,33.74,4.1,46.76,13.72,15.49,11.44,26.48,29.17,29.28,48.26.17,1.21.32,2.42.43,3.63.11,1.21.2,2.43.25,3.65.05,1.22.08,2.44.07,3.66,0,1.22-.04,2.44-.11,3.65Z"/>
</svg>