<?xml version="1.0" encoding="UTF-8"?>
<svg id="Layer_1" data-name="Layer 1" xmlns="http://www.w3.org/2000/svg" viewBox="0 0 600 600">
  <defs>
    <style>
      .cls-1 {
        fill: #de7f43;
        stroke: #de7f43;
        stroke-miterlimit: 10;
      }
    </style>
  </defs>
  <path class="cls-1" d="M333.55,506.08h-67.1c-14.61,0-27.25-10.45-30.05-24.83-.27-1.4.09-2.84,1-3.94.9-1.1,2.25-1.74,3.68-1.74h117.85c1.43,0,2.77.64,3.68,1.74.91,1.09,1.28,2.54,1,3.94-2.8,14.38-15.43,24.83-30.05,24.83ZM247.72,485.1c3.56,6.87,10.71,11.44,18.73,11.44h67.1c8.02,0,15.17-4.57,18.72-11.44h-104.55Z"/>
  <path class="cls-1" d="M366.27,485.1h-132.52c-19.05,0-34.55-15.63-34.55-34.84V170.91c0-19.21,15.5-34.84,34.55-34.84h132.52c19.04,0,34.54,15.63,34.54,34.84v279.36c0,19.21-15.5,34.84-34.54,34.84ZM233.74,145.6c-13.79,0-25.01,11.35-25.01,25.3v279.36c0,13.95,11.22,25.3,25.01,25.3h132.52c13.79,0,25.01-11.35,25.01-25.3V170.91c0-13.96-11.22-25.3-25.01-25.3h-132.52Z"/>
  <path class="cls-1" d="M396.04,455.03h-192.08c-2.63,0-4.77-2.14-4.77-4.77V170.91c0-2.63,2.13-4.77,4.77-4.77h192.08c2.63,0,4.77,2.14,4.77,4.77v279.36c0,2.63-2.13,4.77-4.77,4.77ZM208.73,445.5h182.55V175.67h-182.55v269.83Z"/>
  <path class="cls-1" d="M311.54,131.84h-23.06c-2.63,0-4.77-2.14-4.77-4.77v-28.18c0-9.61,3.75-18.83,10.55-25.95,7.04-7.12,16.21-11,25.88-11h28.31c2.63,0,4.77,2.14,4.77,4.77v23.51c0,2.63-2.13,4.77-4.77,4.77h-28.31c-1.06,0-1.94.37-2.69,1.12-.52.52-1.14,1.44-1.14,2.78v28.18c0,2.63-2.13,4.77-4.77,4.77ZM293.24,122.3h13.53v-23.41c0-3.59,1.39-6.96,3.9-9.49,2.56-2.58,5.83-3.95,9.46-3.95h23.54v-13.98h-23.54c-7.11,0-13.87,2.89-19.04,8.12-5.12,5.36-7.85,12.05-7.85,19.3v23.41Z"/>
  <path class="cls-1" d="M346.35,145.6h-92.69c-2.63,0-4.77-2.14-4.77-4.77,0-10.21,8.25-18.53,18.39-18.53h65.43c10.15,0,18.4,8.32,18.4,18.53,0,2.63-2.13,4.77-4.77,4.77ZM259.78,136.07h80.46c-1.56-2.54-4.35-4.23-7.52-4.23h-65.43c-3.16,0-5.95,1.69-7.51,4.23Z"/>
  <path class="cls-1" d="M347.81,543.35h-28.52c-2.63,0-4.77-2.14-4.77-4.77v-13.77c0-2.63,2.13-4.77,4.77-4.77h28.52c4.52,0,8.34,3.83,8.34,8.36v6.57c0,4.53-3.82,8.36-8.34,8.36ZM324.06,533.82h22.55v-4.23h-22.55v4.23ZM280.71,543.35h-28.52c-4.52,0-8.33-3.83-8.33-8.36v-6.57c0-4.53,3.81-8.36,8.33-8.36h28.52c2.63,0,4.77,2.14,4.77,4.77v13.77c0,2.63-2.13,4.77-4.77,4.77ZM253.39,533.82h22.55v-4.23h-22.55v4.23ZM308.39,519.42h-16.77c-2.63,0-4.77-2.14-4.77-4.77v-13.34c0-2.63,2.13-4.77,4.77-4.77h16.77c2.63,0,4.77,2.14,4.77,4.77v13.34c0,2.63-2.13,4.77-4.77,4.77ZM296.38,509.88h7.24v-3.81h-7.24v3.81Z"/>
  <path class="cls-1" d="M310.91,553.52h-21.81c-7.26,0-13.16-5.94-13.16-13.24v-17.15c0-7.31,5.9-13.24,13.16-13.24h21.81c7.25,0,13.15,5.94,13.15,13.24v17.15c0,7.31-5.9,13.24-13.15,13.24ZM289.1,519.42c-2,0-3.62,1.66-3.62,3.71v17.15c0,2.05,1.63,3.71,3.62,3.71h21.81c2,0,3.62-1.66,3.62-3.71v-17.15c0-2.05-1.62-3.71-3.62-3.71h-21.81Z"/>
  <path class="cls-1" d="M362.28,110.44c-10.44,0-18.61-8.23-18.61-18.74v-26.47c0-10.34,8.35-18.74,18.61-18.74,4.91,0,8.75,3.95,8.75,9v46.18c0,4.84-3.93,8.79-8.75,8.79ZM361.51,56.05c-4.65.4-8.3,4.37-8.3,9.18v26.47c0,5.17,3.99,9.21,9.08,9.21l-.77-44.86Z"/>
  <path class="cls-1" d="M344.25,426.87c-2.63,0-4.77-2.14-4.77-4.77v-100.7h-97.35c-7.48,0-13.58-6.13-13.58-13.67v-49.14c0-7.54,6.09-13.67,13.58-13.67h97.35v-53.68c0-2.63,2.13-4.77,4.77-4.77s4.77,2.14,4.77,4.77v53.68h8.86c7.48,0,13.58,6.13,13.58,13.67v49.14c0,7.54-6.09,13.67-13.58,13.67h-8.86v100.7c0,2.63-2.13,4.77-4.77,4.77ZM344.25,311.86h13.63c2.19,0,4.04-1.89,4.04-4.13v-49.14c0-2.24-1.85-4.13-4.04-4.13h-115.75c-2.19,0-4.04,1.89-4.04,4.13v49.14c0,2.24,1.85,4.13,4.04,4.13h102.12Z"/>
  <path class="cls-1" d="M332.71,305.5h-65.43c-2.63,0-4.77-2.14-4.77-4.77v-35.15c0-2.63,2.13-4.77,4.77-4.77h65.43c2.63,0,4.77,2.14,4.77,4.77v35.15c0,2.63-2.13,4.77-4.77,4.77ZM272.05,295.97h55.89v-25.62h-55.89v25.62Z"/>
</svg>